<?xml version="1.0" encoding="utf-8" standalone="no"?>
<!DOCTYPE svg PUBLIC "-//W3C//DTD SVG 1.1//EN"
  "http://www.w3.org/Graphics/SVG/1.1/DTD/svg11.dtd">
<svg xmlns:xlink="http://www.w3.org/1999/xlink" width="416.480937pt" height="325.986375pt" viewBox="0 0 416.480937 325.986375" xmlns="http://www.w3.org/2000/svg" version="1.1">
 <metadata>
  <rdf:RDF xmlns:dc="http://purl.org/dc/elements/1.1/" xmlns:cc="http://creativecommons.org/ns#" xmlns:rdf="http://www.w3.org/1999/02/22-rdf-syntax-ns#">
   <cc:Work>
    <dc:type rdf:resource="http://purl.org/dc/dcmitype/StillImage"/>
    <dc:date>2026-05-22T20:06:49.438866</dc:date>
    <dc:format>image/svg+xml</dc:format>
    <dc:creator>
     <cc:Agent>
      <dc:title>Matplotlib v3.10.9, https://matplotlib.org/</dc:title>
     </cc:Agent>
    </dc:creator>
   </cc:Work>
  </rdf:RDF>
 </metadata>
 <defs>
  <style type="text/css">*{stroke-linejoin: round; stroke-linecap: butt}</style>
 </defs>
 <g id="figure_1">
  <g id="patch_1">
   <path d="M 0 325.986375 
L 416.480937 325.986375 
L 416.480937 0 
L 0 0 
z
" style="fill: #ffffff"/>
  </g>
  <g id="axes_1">
   <g id="patch_2">
    <path d="M 52.160938 288.430125 
L 409.280938 288.430125 
L 409.280938 22.318125 
L 52.160938 22.318125 
z
" style="fill: #ffffff"/>
   </g>
   <g id="matplotlib.axis_1">
    <g id="xtick_1">
     <g id="line2d_1">
      <defs>
       <path id="m84231706f4" d="M 0 0 
L 0 3.5 
" style="stroke: #000000; stroke-width: 0.8"/>
      </defs>
      <g>
       <use xlink:href="#m84231706f4" x="68.393665" y="288.430125" style="stroke: #000000; stroke-width: 0.8"/>
      </g>
     </g>
     <g id="text_1">
      <!-- 0 -->
      <g transform="translate(65.212415 303.028562) scale(0.1 -0.1)">
       <defs>
        <path id="DejaVuSans-30" d="M 2034 4250 
Q 1547 4250 1301 3770 
Q 1056 3291 1056 2328 
Q 1056 1369 1301 889 
Q 1547 409 2034 409 
Q 2525 409 2770 889 
Q 3016 1369 3016 2328 
Q 3016 3291 2770 3770 
Q 2525 4250 2034 4250 
z
M 2034 4750 
Q 2819 4750 3233 4129 
Q 3647 3509 3647 2328 
Q 3647 1150 3233 529 
Q 2819 -91 2034 -91 
Q 1250 -91 836 529 
Q 422 1150 422 2328 
Q 422 3509 836 4129 
Q 1250 4750 2034 4750 
z
" transform="scale(0.015625)"/>
       </defs>
       <use xlink:href="#DejaVuSans-30"/>
      </g>
     </g>
    </g>
    <g id="xtick_2">
     <g id="line2d_2">
      <g>
       <use xlink:href="#m84231706f4" x="128.072809" y="288.430125" style="stroke: #000000; stroke-width: 0.8"/>
      </g>
     </g>
     <g id="text_2">
      <!-- 5 -->
      <g transform="translate(124.891559 303.028562) scale(0.1 -0.1)">
       <defs>
        <path id="DejaVuSans-35" d="M 691 4666 
L 3169 4666 
L 3169 4134 
L 1269 4134 
L 1269 2991 
Q 1406 3038 1543 3061 
Q 1681 3084 1819 3084 
Q 2600 3084 3056 2656 
Q 3513 2228 3513 1497 
Q 3513 744 3044 326 
Q 2575 -91 1722 -91 
Q 1428 -91 1123 -41 
Q 819 9 494 109 
L 494 744 
Q 775 591 1075 516 
Q 1375 441 1709 441 
Q 2250 441 2565 725 
Q 2881 1009 2881 1497 
Q 2881 1984 2565 2268 
Q 2250 2553 1709 2553 
Q 1456 2553 1204 2497 
Q 953 2441 691 2322 
L 691 4666 
z
" transform="scale(0.015625)"/>
       </defs>
       <use xlink:href="#DejaVuSans-35"/>
      </g>
     </g>
    </g>
    <g id="xtick_3">
     <g id="line2d_3">
      <g>
       <use xlink:href="#m84231706f4" x="187.751954" y="288.430125" style="stroke: #000000; stroke-width: 0.8"/>
      </g>
     </g>
     <g id="text_3">
      <!-- 10 -->
      <g transform="translate(181.389454 303.028562) scale(0.1 -0.1)">
       <defs>
        <path id="DejaVuSans-31" d="M 794 531 
L 1825 531 
L 1825 4091 
L 703 3866 
L 703 4441 
L 1819 4666 
L 2450 4666 
L 2450 531 
L 3481 531 
L 3481 0 
L 794 0 
L 794 531 
z
" transform="scale(0.015625)"/>
       </defs>
       <use xlink:href="#DejaVuSans-31"/>
       <use xlink:href="#DejaVuSans-30" transform="translate(63.623047 0)"/>
      </g>
     </g>
    </g>
    <g id="xtick_4">
     <g id="line2d_4">
      <g>
       <use xlink:href="#m84231706f4" x="247.431098" y="288.430125" style="stroke: #000000; stroke-width: 0.8"/>
      </g>
     </g>
     <g id="text_4">
      <!-- 15 -->
      <g transform="translate(241.068598 303.028562) scale(0.1 -0.1)">
       <use xlink:href="#DejaVuSans-31"/>
       <use xlink:href="#DejaVuSans-35" transform="translate(63.623047 0)"/>
      </g>
     </g>
    </g>
    <g id="xtick_5">
     <g id="line2d_5">
      <g>
       <use xlink:href="#m84231706f4" x="307.110242" y="288.430125" style="stroke: #000000; stroke-width: 0.8"/>
      </g>
     </g>
     <g id="text_5">
      <!-- 20 -->
      <g transform="translate(300.747742 303.028562) scale(0.1 -0.1)">
       <defs>
        <path id="DejaVuSans-32" d="M 1228 531 
L 3431 531 
L 3431 0 
L 469 0 
L 469 531 
Q 828 903 1448 1529 
Q 2069 2156 2228 2338 
Q 2531 2678 2651 2914 
Q 2772 3150 2772 3378 
Q 2772 3750 2511 3984 
Q 2250 4219 1831 4219 
Q 1534 4219 1204 4116 
Q 875 4013 500 3803 
L 500 4441 
Q 881 4594 1212 4672 
Q 1544 4750 1819 4750 
Q 2544 4750 2975 4387 
Q 3406 4025 3406 3419 
Q 3406 3131 3298 2873 
Q 3191 2616 2906 2266 
Q 2828 2175 2409 1742 
Q 1991 1309 1228 531 
z
" transform="scale(0.015625)"/>
       </defs>
       <use xlink:href="#DejaVuSans-32"/>
       <use xlink:href="#DejaVuSans-30" transform="translate(63.623047 0)"/>
      </g>
     </g>
    </g>
    <g id="xtick_6">
     <g id="line2d_6">
      <g>
       <use xlink:href="#m84231706f4" x="366.789387" y="288.430125" style="stroke: #000000; stroke-width: 0.8"/>
      </g>
     </g>
     <g id="text_6">
      <!-- 25 -->
      <g transform="translate(360.426887 303.028562) scale(0.1 -0.1)">
       <use xlink:href="#DejaVuSans-32"/>
       <use xlink:href="#DejaVuSans-35" transform="translate(63.623047 0)"/>
      </g>
     </g>
    </g>
    <g id="text_7">
     <!-- Time (s) -->
     <g transform="translate(210.392031 316.706687) scale(0.1 -0.1)">
      <defs>
       <path id="DejaVuSans-54" d="M -19 4666 
L 3928 4666 
L 3928 4134 
L 2272 4134 
L 2272 0 
L 1638 0 
L 1638 4134 
L -19 4134 
L -19 4666 
z
" transform="scale(0.015625)"/>
       <path id="DejaVuSans-69" d="M 603 3500 
L 1178 3500 
L 1178 0 
L 603 0 
L 603 3500 
z
M 603 4863 
L 1178 4863 
L 1178 4134 
L 603 4134 
L 603 4863 
z
" transform="scale(0.015625)"/>
       <path id="DejaVuSans-6d" d="M 3328 2828 
Q 3544 3216 3844 3400 
Q 4144 3584 4550 3584 
Q 5097 3584 5394 3201 
Q 5691 2819 5691 2113 
L 5691 0 
L 5113 0 
L 5113 2094 
Q 5113 2597 4934 2840 
Q 4756 3084 4391 3084 
Q 3944 3084 3684 2787 
Q 3425 2491 3425 1978 
L 3425 0 
L 2847 0 
L 2847 2094 
Q 2847 2600 2669 2842 
Q 2491 3084 2119 3084 
Q 1678 3084 1418 2786 
Q 1159 2488 1159 1978 
L 1159 0 
L 581 0 
L 581 3500 
L 1159 3500 
L 1159 2956 
Q 1356 3278 1631 3431 
Q 1906 3584 2284 3584 
Q 2666 3584 2933 3390 
Q 3200 3197 3328 2828 
z
" transform="scale(0.015625)"/>
       <path id="DejaVuSans-65" d="M 3597 1894 
L 3597 1613 
L 953 1613 
Q 991 1019 1311 708 
Q 1631 397 2203 397 
Q 2534 397 2845 478 
Q 3156 559 3463 722 
L 3463 178 
Q 3153 47 2828 -22 
Q 2503 -91 2169 -91 
Q 1331 -91 842 396 
Q 353 884 353 1716 
Q 353 2575 817 3079 
Q 1281 3584 2069 3584 
Q 2775 3584 3186 3129 
Q 3597 2675 3597 1894 
z
M 3022 2063 
Q 3016 2534 2758 2815 
Q 2500 3097 2075 3097 
Q 1594 3097 1305 2825 
Q 1016 2553 972 2059 
L 3022 2063 
z
" transform="scale(0.015625)"/>
       <path id="DejaVuSans-20" transform="scale(0.015625)"/>
       <path id="DejaVuSans-28" d="M 1984 4856 
Q 1566 4138 1362 3434 
Q 1159 2731 1159 2009 
Q 1159 1288 1364 580 
Q 1569 -128 1984 -844 
L 1484 -844 
Q 1016 -109 783 600 
Q 550 1309 550 2009 
Q 550 2706 781 3412 
Q 1013 4119 1484 4856 
L 1984 4856 
z
" transform="scale(0.015625)"/>
       <path id="DejaVuSans-73" d="M 2834 3397 
L 2834 2853 
Q 2591 2978 2328 3040 
Q 2066 3103 1784 3103 
Q 1356 3103 1142 2972 
Q 928 2841 928 2578 
Q 928 2378 1081 2264 
Q 1234 2150 1697 2047 
L 1894 2003 
Q 2506 1872 2764 1633 
Q 3022 1394 3022 966 
Q 3022 478 2636 193 
Q 2250 -91 1575 -91 
Q 1294 -91 989 -36 
Q 684 19 347 128 
L 347 722 
Q 666 556 975 473 
Q 1284 391 1588 391 
Q 1994 391 2212 530 
Q 2431 669 2431 922 
Q 2431 1156 2273 1281 
Q 2116 1406 1581 1522 
L 1381 1569 
Q 847 1681 609 1914 
Q 372 2147 372 2553 
Q 372 3047 722 3315 
Q 1072 3584 1716 3584 
Q 2034 3584 2315 3537 
Q 2597 3491 2834 3397 
z
" transform="scale(0.015625)"/>
       <path id="DejaVuSans-29" d="M 513 4856 
L 1013 4856 
Q 1481 4119 1714 3412 
Q 1947 2706 1947 2009 
Q 1947 1309 1714 600 
Q 1481 -109 1013 -844 
L 513 -844 
Q 928 -128 1133 580 
Q 1338 1288 1338 2009 
Q 1338 2731 1133 3434 
Q 928 4138 513 4856 
z
" transform="scale(0.015625)"/>
      </defs>
      <use xlink:href="#DejaVuSans-54"/>
      <use xlink:href="#DejaVuSans-69" transform="translate(57.958984 0)"/>
      <use xlink:href="#DejaVuSans-6d" transform="translate(85.742188 0)"/>
      <use xlink:href="#DejaVuSans-65" transform="translate(183.154297 0)"/>
      <use xlink:href="#DejaVuSans-20" transform="translate(244.677734 0)"/>
      <use xlink:href="#DejaVuSans-28" transform="translate(276.464844 0)"/>
      <use xlink:href="#DejaVuSans-73" transform="translate(315.478516 0)"/>
      <use xlink:href="#DejaVuSans-29" transform="translate(367.578125 0)"/>
     </g>
    </g>
   </g>
   <g id="matplotlib.axis_2">
    <g id="ytick_1">
     <g id="line2d_7">
      <defs>
       <path id="mf2613e4e8b" d="M 0 0 
L -3.5 0 
" style="stroke: #000000; stroke-width: 0.8"/>
      </defs>
      <g>
       <use xlink:href="#mf2613e4e8b" x="52.160938" y="266.560607" style="stroke: #000000; stroke-width: 0.8"/>
      </g>
     </g>
     <g id="text_8">
      <!-- −0.4 -->
      <g transform="translate(20.878125 270.359826) scale(0.1 -0.1)">
       <defs>
        <path id="DejaVuSans-2212" d="M 678 2272 
L 4684 2272 
L 4684 1741 
L 678 1741 
L 678 2272 
z
" transform="scale(0.015625)"/>
        <path id="DejaVuSans-2e" d="M 684 794 
L 1344 794 
L 1344 0 
L 684 0 
L 684 794 
z
" transform="scale(0.015625)"/>
        <path id="DejaVuSans-34" d="M 2419 4116 
L 825 1625 
L 2419 1625 
L 2419 4116 
z
M 2253 4666 
L 3047 4666 
L 3047 1625 
L 3713 1625 
L 3713 1100 
L 3047 1100 
L 3047 0 
L 2419 0 
L 2419 1100 
L 313 1100 
L 313 1709 
L 2253 4666 
z
" transform="scale(0.015625)"/>
       </defs>
       <use xlink:href="#DejaVuSans-2212"/>
       <use xlink:href="#DejaVuSans-30" transform="translate(83.789062 0)"/>
       <use xlink:href="#DejaVuSans-2e" transform="translate(147.412109 0)"/>
       <use xlink:href="#DejaVuSans-34" transform="translate(179.199219 0)"/>
      </g>
     </g>
    </g>
    <g id="ytick_2">
     <g id="line2d_8">
      <g>
       <use xlink:href="#mf2613e4e8b" x="52.160938" y="221.211853" style="stroke: #000000; stroke-width: 0.8"/>
      </g>
     </g>
     <g id="text_9">
      <!-- −0.2 -->
      <g transform="translate(20.878125 225.011072) scale(0.1 -0.1)">
       <use xlink:href="#DejaVuSans-2212"/>
       <use xlink:href="#DejaVuSans-30" transform="translate(83.789062 0)"/>
       <use xlink:href="#DejaVuSans-2e" transform="translate(147.412109 0)"/>
       <use xlink:href="#DejaVuSans-32" transform="translate(179.199219 0)"/>
      </g>
     </g>
    </g>
    <g id="ytick_3">
     <g id="line2d_9">
      <g>
       <use xlink:href="#mf2613e4e8b" x="52.160938" y="175.8631" style="stroke: #000000; stroke-width: 0.8"/>
      </g>
     </g>
     <g id="text_10">
      <!-- 0.0 -->
      <g transform="translate(29.257812 179.662319) scale(0.1 -0.1)">
       <use xlink:href="#DejaVuSans-30"/>
       <use xlink:href="#DejaVuSans-2e" transform="translate(63.623047 0)"/>
       <use xlink:href="#DejaVuSans-30" transform="translate(95.410156 0)"/>
      </g>
     </g>
    </g>
    <g id="ytick_4">
     <g id="line2d_10">
      <g>
       <use xlink:href="#mf2613e4e8b" x="52.160938" y="130.514346" style="stroke: #000000; stroke-width: 0.8"/>
      </g>
     </g>
     <g id="text_11">
      <!-- 0.2 -->
      <g transform="translate(29.257812 134.313565) scale(0.1 -0.1)">
       <use xlink:href="#DejaVuSans-30"/>
       <use xlink:href="#DejaVuSans-2e" transform="translate(63.623047 0)"/>
       <use xlink:href="#DejaVuSans-32" transform="translate(95.410156 0)"/>
      </g>
     </g>
    </g>
    <g id="ytick_5">
     <g id="line2d_11">
      <g>
       <use xlink:href="#mf2613e4e8b" x="52.160938" y="85.165593" style="stroke: #000000; stroke-width: 0.8"/>
      </g>
     </g>
     <g id="text_12">
      <!-- 0.4 -->
      <g transform="translate(29.257812 88.964812) scale(0.1 -0.1)">
       <use xlink:href="#DejaVuSans-30"/>
       <use xlink:href="#DejaVuSans-2e" transform="translate(63.623047 0)"/>
       <use xlink:href="#DejaVuSans-34" transform="translate(95.410156 0)"/>
      </g>
     </g>
    </g>
    <g id="ytick_6">
     <g id="line2d_12">
      <g>
       <use xlink:href="#mf2613e4e8b" x="52.160938" y="39.816839" style="stroke: #000000; stroke-width: 0.8"/>
      </g>
     </g>
     <g id="text_13">
      <!-- 0.6 -->
      <g transform="translate(29.257812 43.616058) scale(0.1 -0.1)">
       <defs>
        <path id="DejaVuSans-36" d="M 2113 2584 
Q 1688 2584 1439 2293 
Q 1191 2003 1191 1497 
Q 1191 994 1439 701 
Q 1688 409 2113 409 
Q 2538 409 2786 701 
Q 3034 994 3034 1497 
Q 3034 2003 2786 2293 
Q 2538 2584 2113 2584 
z
M 3366 4563 
L 3366 3988 
Q 3128 4100 2886 4159 
Q 2644 4219 2406 4219 
Q 1781 4219 1451 3797 
Q 1122 3375 1075 2522 
Q 1259 2794 1537 2939 
Q 1816 3084 2150 3084 
Q 2853 3084 3261 2657 
Q 3669 2231 3669 1497 
Q 3669 778 3244 343 
Q 2819 -91 2113 -91 
Q 1303 -91 875 529 
Q 447 1150 447 2328 
Q 447 3434 972 4092 
Q 1497 4750 2381 4750 
Q 2619 4750 2861 4703 
Q 3103 4656 3366 4563 
z
" transform="scale(0.015625)"/>
       </defs>
       <use xlink:href="#DejaVuSans-30"/>
       <use xlink:href="#DejaVuSans-2e" transform="translate(63.623047 0)"/>
       <use xlink:href="#DejaVuSans-36" transform="translate(95.410156 0)"/>
      </g>
     </g>
    </g>
    <g id="text_14">
     <!-- Amplitude -->
     <g transform="translate(14.798437 180.996781) rotate(-90) scale(0.1 -0.1)">
      <defs>
       <path id="DejaVuSans-41" d="M 2188 4044 
L 1331 1722 
L 3047 1722 
L 2188 4044 
z
M 1831 4666 
L 2547 4666 
L 4325 0 
L 3669 0 
L 3244 1197 
L 1141 1197 
L 716 0 
L 50 0 
L 1831 4666 
z
" transform="scale(0.015625)"/>
       <path id="DejaVuSans-70" d="M 1159 525 
L 1159 -1331 
L 581 -1331 
L 581 3500 
L 1159 3500 
L 1159 2969 
Q 1341 3281 1617 3432 
Q 1894 3584 2278 3584 
Q 2916 3584 3314 3078 
Q 3713 2572 3713 1747 
Q 3713 922 3314 415 
Q 2916 -91 2278 -91 
Q 1894 -91 1617 61 
Q 1341 213 1159 525 
z
M 3116 1747 
Q 3116 2381 2855 2742 
Q 2594 3103 2138 3103 
Q 1681 3103 1420 2742 
Q 1159 2381 1159 1747 
Q 1159 1113 1420 752 
Q 1681 391 2138 391 
Q 2594 391 2855 752 
Q 3116 1113 3116 1747 
z
" transform="scale(0.015625)"/>
       <path id="DejaVuSans-6c" d="M 603 4863 
L 1178 4863 
L 1178 0 
L 603 0 
L 603 4863 
z
" transform="scale(0.015625)"/>
       <path id="DejaVuSans-74" d="M 1172 4494 
L 1172 3500 
L 2356 3500 
L 2356 3053 
L 1172 3053 
L 1172 1153 
Q 1172 725 1289 603 
Q 1406 481 1766 481 
L 2356 481 
L 2356 0 
L 1766 0 
Q 1100 0 847 248 
Q 594 497 594 1153 
L 594 3053 
L 172 3053 
L 172 3500 
L 594 3500 
L 594 4494 
L 1172 4494 
z
" transform="scale(0.015625)"/>
       <path id="DejaVuSans-75" d="M 544 1381 
L 544 3500 
L 1119 3500 
L 1119 1403 
Q 1119 906 1312 657 
Q 1506 409 1894 409 
Q 2359 409 2629 706 
Q 2900 1003 2900 1516 
L 2900 3500 
L 3475 3500 
L 3475 0 
L 2900 0 
L 2900 538 
Q 2691 219 2414 64 
Q 2138 -91 1772 -91 
Q 1169 -91 856 284 
Q 544 659 544 1381 
z
M 1991 3584 
L 1991 3584 
z
" transform="scale(0.015625)"/>
       <path id="DejaVuSans-64" d="M 2906 2969 
L 2906 4863 
L 3481 4863 
L 3481 0 
L 2906 0 
L 2906 525 
Q 2725 213 2448 61 
Q 2172 -91 1784 -91 
Q 1150 -91 751 415 
Q 353 922 353 1747 
Q 353 2572 751 3078 
Q 1150 3584 1784 3584 
Q 2172 3584 2448 3432 
Q 2725 3281 2906 2969 
z
M 947 1747 
Q 947 1113 1208 752 
Q 1469 391 1925 391 
Q 2381 391 2643 752 
Q 2906 1113 2906 1747 
Q 2906 2381 2643 2742 
Q 2381 3103 1925 3103 
Q 1469 3103 1208 2742 
Q 947 2381 947 1747 
z
" transform="scale(0.015625)"/>
      </defs>
      <use xlink:href="#DejaVuSans-41"/>
      <use xlink:href="#DejaVuSans-6d" transform="translate(68.408203 0)"/>
      <use xlink:href="#DejaVuSans-70" transform="translate(165.820312 0)"/>
      <use xlink:href="#DejaVuSans-6c" transform="translate(229.296875 0)"/>
      <use xlink:href="#DejaVuSans-69" transform="translate(257.080078 0)"/>
      <use xlink:href="#DejaVuSans-74" transform="translate(284.863281 0)"/>
      <use xlink:href="#DejaVuSans-75" transform="translate(324.072266 0)"/>
      <use xlink:href="#DejaVuSans-64" transform="translate(387.451172 0)"/>
      <use xlink:href="#DejaVuSans-65" transform="translate(450.927734 0)"/>
     </g>
    </g>
   </g>
   <g id="line2d_13">
    <path d="M 68.393665 160.976952 
L 68.791526 160.752961 
L 69.587248 159.737739 
L 71.576553 159.32989 
L 71.974413 159.197306 
L 72.372274 159.431356 
L 72.770136 159.501093 
L 73.167996 159.688982 
L 73.963719 159.741643 
L 74.361579 160.497201 
L 74.75944 160.940474 
L 75.157302 161.813462 
L 75.555162 161.992884 
L 75.953023 162.306836 
L 76.748745 164.835852 
L 77.544467 168.158179 
L 77.942328 168.211464 
L 78.73805 171.981376 
L 79.533771 176.530839 
L 79.931633 176.589951 
L 80.329494 178.644745 
L 81.523077 182.57228 
L 81.920934 182.512012 
L 82.318802 183.522377 
L 82.716659 183.776911 
L 83.910242 183.702695 
L 84.705968 182.014885 
L 85.501682 177.698054 
L 85.899551 177.894839 
L 87.490991 163.999435 
L 87.888848 164.057361 
L 89.4803 149.173794 
L 89.878157 149.131348 
L 91.07174 140.958799 
L 91.469597 139.5965 
L 91.867466 139.491744 
L 92.265323 138.702789 
L 92.66318 138.569396 
L 93.458905 140.539845 
L 93.856762 140.641381 
L 94.254631 143.14538 
L 95.050345 151.297431 
L 95.448214 155.649757 
L 95.846071 155.685149 
L 97.039654 171.90346 
L 97.437511 179.623503 
L 97.83538 179.836413 
L 99.42682 197.288871 
L 99.824677 197.328039 
L 100.222546 200.22207 
L 100.620403 202.201611 
L 101.01826 202.498985 
L 101.813986 202.515968 
L 102.211843 202.168461 
L 102.609712 200.005008 
L 103.405426 192.094047 
L 103.803294 192.178455 
L 104.996877 176.225301 
L 105.394734 167.287181 
L 105.792591 167.262877 
L 106.19046 162.120924 
L 106.588317 153.507049 
L 107.384043 142.047532 
L 107.7819 142.04302 
L 108.577626 129.665191 
L 109.37334 123.271833 
L 109.771209 123.138145 
L 110.169066 122.223869 
L 110.566923 122.276111 
L 110.964792 123.158529 
L 111.362649 125.508298 
L 111.760506 125.58496 
L 112.158375 129.005639 
L 112.954089 141.03401 
L 113.351958 148.321351 
L 113.749815 148.399509 
L 114.54554 164.652961 
L 114.943397 179.58328 
L 115.341254 185.909173 
L 115.739123 185.907366 
L 117.330563 211.481099 
L 117.72842 211.428835 
L 118.126289 215.311323 
L 118.524146 217.533095 
L 118.922003 217.914682 
L 119.319872 217.423056 
L 119.717729 217.504049 
L 120.115586 215.133737 
L 120.513455 211.536175 
L 121.309169 199.979544 
L 121.707038 199.975803 
L 122.502752 183.505392 
L 122.900621 169.912328 
L 123.298478 161.179951 
L 123.696335 161.128224 
L 124.094204 150.787665 
L 124.49206 143.973426 
L 124.889917 132.051442 
L 125.287786 126.963018 
L 125.685643 127.015622 
L 126.481369 115.757068 
L 126.879226 110.908425 
L 127.277083 108.700031 
L 128.072809 108.705813 
L 128.470666 109.112456 
L 128.868535 111.843652 
L 129.266392 116.290574 
L 129.664249 116.340435 
L 130.459975 129.509418 
L 131.255701 148.560157 
L 131.653558 148.51431 
L 133.244998 190.893915 
L 133.642867 191.03119 
L 134.438581 211.104977 
L 135.234306 224.82565 
L 135.632163 224.931789 
L 136.030032 228.356119 
L 136.427889 229.330233 
L 136.825746 229.350504 
L 137.223615 227.962832 
L 137.621472 228.100352 
L 138.019329 225.050195 
L 138.815055 212.277537 
L 139.212912 203.658099 
L 139.610781 203.804349 
L 140.406495 181.729821 
L 141.202221 156.034972 
L 141.600078 155.971157 
L 141.997947 145.301487 
L 142.395804 130.934933 
L 143.19153 114.502291 
L 143.589387 114.439823 
L 144.385113 103.098417 
L 144.78297 100.193762 
L 145.180827 99.468635 
L 145.578695 99.39483 
L 145.976552 100.342415 
L 146.374409 102.091108 
L 147.170135 113.129335 
L 147.567992 113.158517 
L 147.965861 120.938254 
L 148.761575 141.911282 
L 149.159444 155.893441 
L 149.557301 155.864794 
L 150.750884 195.92555 
L 151.148741 206.052536 
L 151.54661 206.144073 
L 152.342324 225.134407 
L 152.740193 231.033282 
L 153.13805 234.849788 
L 153.535907 234.990823 
L 153.933776 237.44088 
L 154.331633 237.97561 
L 154.72949 237.138562 
L 155.127359 234.285355 
L 155.525216 234.321521 
L 155.923073 229.296969 
L 156.718798 213.083044 
L 157.116655 200.911779 
L 157.514524 200.988055 
L 157.912381 189.717312 
L 159.105964 144.891421 
L 159.503821 144.757324 
L 160.299547 121.399791 
L 161.095273 104.950279 
L 161.49313 104.953862 
L 162.288856 95.764821 
L 162.686713 93.948127 
L 163.08457 93.975881 
L 163.482439 93.854323 
L 163.880296 95.375298 
L 164.278153 99.971077 
L 165.073879 113.844485 
L 165.471736 113.892464 
L 165.869605 124.153549 
L 167.063187 168.043118 
L 167.461044 167.661973 
L 168.654627 208.687639 
L 169.052484 219.089078 
L 169.450353 218.94623 
L 169.84821 228.553386 
L 170.643936 240.233819 
L 171.041793 242.746707 
L 171.43965 242.845114 
L 171.837519 243.718372 
L 172.235376 242.927172 
L 172.633233 240.295811 
L 173.031102 234.968897 
L 173.428959 235.000573 
L 173.826816 228.637848 
L 174.622542 208.713556 
L 175.020399 197.174422 
L 175.418268 197.218869 
L 177.009708 136.990194 
L 177.407565 137.016383 
L 178.20329 112.043459 
L 178.999016 96.373333 
L 179.396873 96.278441 
L 179.79473 92.181158 
L 180.192599 90.175406 
L 180.590456 89.828873 
L 180.988313 91.203507 
L 181.386182 91.243142 
L 181.784039 94.519907 
L 182.181896 99.536613 
L 182.977622 118.381106 
L 183.375479 118.326869 
L 183.773348 128.31958 
L 184.966931 176.192564 
L 185.364788 176.148071 
L 186.558371 215.569267 
L 186.956228 225.683694 
L 187.354097 225.671495 
L 188.149775 239.245171 
L 188.547715 242.900144 
L 188.945536 244.218999 
L 189.343358 244.345931 
L 189.741298 244.231039 
L 190.139119 242.157218 
L 190.53694 238.04005 
L 190.934881 231.785709 
L 191.332702 231.853687 
L 191.730523 224.242919 
L 192.526285 201.602848 
L 192.924106 187.88074 
L 193.322047 187.852329 
L 194.913451 128.932605 
L 195.311272 128.881429 
L 196.107034 108.129907 
L 196.504855 99.858476 
L 196.902795 93.93577 
L 197.300617 93.901055 
L 197.698438 90.310636 
L 198.096378 89.614805 
L 198.4942 90.12457 
L 198.892021 92.62739 
L 199.289961 92.636075 
L 199.687782 96.199874 
L 200.881365 122.378689 
L 201.279186 122.223166 
L 202.074948 147.171374 
L 202.87071 182.004634 
L 203.268531 181.904674 
L 204.064293 209.784285 
L 204.859935 230.377018 
L 205.257876 230.558889 
L 205.655697 236.689156 
L 206.053518 240.707328 
L 206.451459 243.017031 
L 206.84928 243.614863 
L 207.247101 243.767893 
L 207.645041 242.422395 
L 208.042863 239.407497 
L 208.838624 227.298064 
L 209.236446 227.322462 
L 210.032207 208.494294 
L 210.82785 182.416569 
L 211.22579 182.304718 
L 212.817194 124.553253 
L 213.215015 124.48956 
L 214.010777 105.795965 
L 214.408598 99.925864 
L 214.806539 95.792166 
L 215.20436 95.649862 
L 215.602181 93.540714 
L 216.000122 93.019997 
L 216.397943 94.026717 
L 216.795764 97.323072 
L 217.193705 97.456534 
L 217.989347 112.003416 
L 218.387287 120.104812 
L 218.785109 132.223473 
L 219.18293 132.070013 
L 219.58087 142.872335 
L 220.774453 187.437254 
L 221.172274 187.319898 
L 221.968036 210.638724 
L 222.365857 220.610914 
L 222.763678 227.343458 
L 223.161619 227.533515 
L 223.55944 232.777396 
L 223.957261 235.724634 
L 224.355202 237.153913 
L 224.753023 236.934402 
L 225.150844 236.957666 
L 225.548785 235.021887 
L 225.946606 231.624086 
L 226.742368 218.246408 
L 227.140189 218.137027 
L 227.53801 209.4602 
L 228.333772 185.396351 
L 228.731593 169.967848 
L 229.129533 169.808418 
L 230.720938 124.106159 
L 231.118759 124.096795 
L 231.91452 110.201166 
L 232.312342 105.072403 
L 232.710282 102.665042 
L 233.108103 102.668443 
L 233.505924 101.662154 
L 233.903865 102.263229 
L 234.301686 104.915587 
L 234.699507 109.153768 
L 235.097448 109.108488 
L 235.495269 114.720237 
L 236.688852 141.789997 
L 237.086673 141.617263 
L 237.882435 164.171085 
L 238.280256 179.555541 
L 238.678197 188.800786 
L 239.076018 188.706599 
L 239.473839 199.028785 
L 239.871779 205.224672 
L 240.269601 215.266745 
L 240.667422 220.107158 
L 241.065362 220.14355 
L 241.463183 224.092384 
L 241.861005 226.119632 
L 242.258945 226.680528 
L 242.656766 225.127129 
L 243.054588 225.03464 
L 243.452528 221.384882 
L 244.24817 210.998589 
L 244.646111 203.553684 
L 245.043932 203.586471 
L 246.237515 178.163105 
L 246.635336 166.133799 
L 247.033277 166.095269 
L 247.828919 146.030627 
L 248.624681 129.610568 
L 249.022502 129.657482 
L 249.818264 118.248053 
L 250.614025 113.691093 
L 251.011847 113.945046 
L 251.409668 113.297738 
L 251.807608 114.242035 
L 252.603251 122.267494 
L 253.001191 122.057938 
L 253.796834 134.80164 
L 254.592595 153.30188 
L 254.990416 153.340086 
L 255.786178 168.655258 
L 256.183999 179.920478 
L 256.58194 187.163867 
L 256.979761 187.193572 
L 257.775523 201.198814 
L 258.571165 210.860298 
L 258.969106 210.703368 
L 259.366927 213.454836 
L 259.764748 214.754032 
L 260.162689 214.957648 
L 260.56051 213.996821 
L 260.958331 213.770758 
L 261.356271 211.360177 
L 262.151914 203.444597 
L 262.549854 198.299287 
L 262.947675 198.1233 
L 263.743437 184.351926 
L 264.53908 168.64971 
L 264.93702 168.488742 
L 266.130603 147.4 
L 266.528424 142.015403 
L 266.926245 142.068325 
L 267.722007 132.717412 
L 268.119828 130.199218 
L 268.517769 128.987477 
L 269.313411 128.849684 
L 269.711352 129.930685 
L 270.109173 131.709966 
L 270.506994 135.139398 
L 270.904935 135.140486 
L 271.700577 143.858829 
L 272.496339 154.210115 
L 272.89416 154.122098 
L 273.689921 166.765623 
L 274.087743 171.648784 
L 274.485683 179.101296 
L 274.883504 179.119465 
L 276.077087 190.529392 
L 276.474908 192.887414 
L 276.872849 192.976527 
L 277.27067 194.544208 
L 277.668491 195.643401 
L 278.066432 195.598059 
L 278.464253 194.627278 
L 278.862074 194.522119 
L 279.260015 192.983683 
L 280.055657 187.882681 
L 280.453598 184.546137 
L 280.851419 184.461058 
L 281.24924 180.626504 
L 282.442823 166.774842 
L 282.840763 166.775085 
L 284.034346 155.093455 
L 284.432167 152.004871 
L 284.829989 152.181505 
L 285.62575 147.485347 
L 286.023572 146.103411 
L 286.421512 145.383568 
L 287.217154 145.221469 
L 287.615095 145.528276 
L 288.012916 146.58336 
L 288.410737 147.967268 
L 288.808678 147.899313 
L 289.206499 149.341426 
L 290.002261 154.239286 
L 290.400082 157.00848 
L 290.797903 157.201068 
L 292.389426 168.191816 
L 292.787248 168.054074 
L 293.980831 174.66219 
L 294.378652 176.580312 
L 294.776592 176.707734 
L 295.572235 178.709539 
L 295.970175 178.921368 
L 297.163758 178.67775 
L 298.357341 178.478669 
L 299.948745 173.615583 
L 300.346566 173.561401 
L 301.142328 170.680452 
L 301.540149 169.065147 
L 301.93809 168.151758 
L 302.335911 167.824775 
L 303.927315 163.045785 
L 304.325255 162.959094 
L 305.120898 160.673843 
L 305.518838 160.094946 
L 305.916659 159.297323 
L 306.712421 158.803776 
L 307.110242 158.041709 
L 307.508063 157.631194 
L 307.906004 156.785941 
L 308.303825 156.698354 
L 308.701646 156.467171 
L 310.29317 156.504118 
L 311.088812 156.7694 
L 311.486753 157.673298 
L 311.884574 158.045597 
L 312.282395 158.001029 
L 313.078157 160.242472 
L 313.873918 163.060503 
L 314.27174 162.996078 
L 315.067501 165.772748 
L 315.863144 170.37601 
L 316.261084 170.403228 
L 317.056727 175.095435 
L 317.852488 178.92203 
L 318.250309 179.146377 
L 318.64825 180.580536 
L 319.443892 182.688183 
L 319.841833 182.923559 
L 320.637475 183.03988 
L 321.035416 182.993407 
L 321.433237 182.436821 
L 321.831058 181.517353 
L 322.228999 181.616324 
L 322.62682 180.080237 
L 323.820403 172.630029 
L 324.218224 172.805082 
L 325.411807 162.119129 
L 325.809747 159.28116 
L 326.207569 159.083503 
L 326.60539 155.445277 
L 327.798973 147.911602 
L 328.196913 147.955114 
L 328.594734 146.357795 
L 329.390496 144.641776 
L 330.186138 144.858361 
L 330.584079 145.690103 
L 330.9819 147.424035 
L 331.777662 152.564883 
L 332.175483 152.372015 
L 332.971245 160.12167 
L 333.766887 168.989598 
L 334.164828 169.041901 
L 335.35841 182.938286 
L 335.756232 186.751469 
L 336.154053 186.742749 
L 336.949815 193.0746 
L 337.347636 195.398867 
L 337.745576 196.498896 
L 338.541219 196.945173 
L 338.939159 196.832334 
L 339.33698 195.611253 
L 339.734801 193.198133 
L 340.132742 193.139839 
L 340.530563 190.380426 
L 341.326325 181.981522 
L 341.724146 176.948228 
L 342.121967 176.814405 
L 343.31555 158.13744 
L 343.713491 152.71374 
L 344.111312 152.827271 
L 345.702716 134.489868 
L 346.100656 134.638045 
L 346.896299 130.489586 
L 347.294239 129.798743 
L 347.69206 129.845997 
L 348.089882 129.749789 
L 348.487822 131.178592 
L 348.885643 133.799025 
L 349.681405 142.596479 
L 350.079226 142.575437 
L 350.874988 154.143686 
L 351.67063 168.919405 
L 352.068571 169.112104 
L 352.864213 183.518777 
L 353.659975 195.590529 
L 354.057796 195.57714 
L 354.853558 204.549044 
L 355.251379 207.461726 
L 355.64932 209.486457 
L 356.047141 209.463102 
L 356.444962 209.960102 
L 356.842902 209.641142 
L 357.240724 207.777739 
L 357.638545 204.117051 
L 358.036485 204.248381 
L 358.832128 194.485856 
L 359.627889 180.493337 
L 360.025711 180.559462 
L 360.821472 161.841438 
L 361.617234 145.5217 
L 362.015055 145.505828 
L 363.208638 126.631836 
L 363.606459 122.607134 
L 364.0044 122.707264 
L 364.402221 120.087852 
L 364.800042 118.670749 
L 365.197983 118.356051 
L 365.595804 119.349642 
L 365.993625 119.547249 
L 366.391566 121.651522 
L 366.789387 125.069027 
L 367.585148 136.644704 
L 367.98297 136.662549 
L 368.778731 152.936516 
L 369.574374 170.593081 
L 369.972314 170.508845 
L 370.767957 189.174923 
L 371.563718 204.444945 
L 371.961539 204.406331 
L 372.35948 210.467011 
L 372.757301 214.678617 
L 373.155122 217.107383 
L 373.553063 218.320394 
L 373.950884 218.389256 
L 374.348705 218.190153 
L 374.746646 216.640903 
L 375.144467 213.219294 
L 375.542288 208.196376 
L 375.940229 208.180458 
L 376.735871 194.376985 
L 377.531633 176.858651 
L 377.929454 176.824265 
L 379.123037 145.604779 
L 379.520977 136.288286 
L 379.918798 136.36946 
L 381.112381 114.704365 
L 381.510203 110.298892 
L 381.908143 110.216675 
L 382.305964 108.061702 
L 382.703785 107.428067 
L 383.101726 107.446592 
L 383.499547 109.62018 
L 383.897368 109.535492 
L 384.295309 113.187041 
L 385.090951 126.148622 
L 385.488892 133.615272 
L 385.886713 133.473398 
L 387.080296 166.496308 
L 387.478117 180.007266 
L 387.876058 179.94105 
L 389.06964 208.205491 
L 389.467462 216.260495 
L 389.865283 216.279746 
L 390.661044 226.310437 
L 391.058866 228.402148 
L 391.456806 228.713875 
L 391.854627 228.799788 
L 392.252449 227.88465 
L 393.04821 222.326186 
L 393.04821 222.326186 
" clip-path="url(#pd32d7790df)" style="fill: none; stroke: #ff0000; stroke-opacity: 0.9; stroke-width: 1.5; stroke-linecap: square"/>
   </g>
   <g id="line2d_14">
    <path d="M 68.393665 163.785659 
L 68.791526 161.207578 
L 69.189387 160.042698 
L 69.587248 157.693659 
L 69.985108 157.629563 
L 71.178691 146.116472 
L 71.576553 143.636847 
L 71.974413 143.622925 
L 73.565857 129.570208 
L 73.963719 129.624423 
L 74.361579 127.311999 
L 74.75944 125.726289 
L 75.157302 124.736371 
L 75.953023 124.547494 
L 76.350884 124.488268 
L 76.748745 126.744867 
L 77.544467 134.358787 
L 77.942328 134.420371 
L 78.73805 143.105337 
L 79.533771 156.924728 
L 79.931633 157.007893 
L 81.12522 177.579629 
L 81.523077 185.302547 
L 81.920934 185.502535 
L 83.114516 203.141464 
L 83.512385 207.747763 
L 83.910242 207.752978 
L 84.308099 210.257227 
L 84.705968 211.293356 
L 85.103825 211.377205 
L 85.501682 210.255368 
L 85.899551 210.176076 
L 86.695265 202.825655 
L 87.093134 197.594617 
L 87.490991 189.959436 
L 87.888848 189.971372 
L 89.082431 166.35787 
L 89.4803 159.882374 
L 89.878157 159.754488 
L 90.673883 148.970541 
L 91.07174 129.388224 
L 91.469597 120.271151 
L 91.867466 120.451798 
L 92.66318 99.977153 
L 93.061048 94.622871 
L 93.458905 91.050591 
L 93.856762 91.083651 
L 94.254631 87.429607 
L 94.652488 86.707655 
L 95.050345 86.964397 
L 95.448214 89.216506 
L 95.846071 89.226528 
L 96.243928 92.820145 
L 96.641797 99.086186 
L 97.437511 116.798843 
L 97.83538 116.801496 
L 98.233237 126.885471 
L 99.028963 153.283461 
L 99.42682 165.758312 
L 99.824677 165.625959 
L 100.620403 193.382035 
L 101.01826 207.930972 
L 101.416129 218.192171 
L 101.813986 218.28212 
L 102.211843 229.509406 
L 103.007569 241.614575 
L 103.405426 243.697035 
L 103.803294 243.590692 
L 104.201151 243.860472 
L 104.599008 243.279872 
L 104.996877 240.142101 
L 105.394734 235.218678 
L 105.792591 235.27915 
L 106.588317 220.260731 
L 106.986174 221.635706 
L 107.384043 211.444458 
L 107.7819 211.403666 
L 108.179757 200.245084 
L 108.577626 170.354054 
L 109.37334 141.795144 
L 109.771209 141.925589 
L 110.566923 108.999152 
L 110.964792 99.042992 
L 111.362649 85.337964 
L 111.760506 85.337964 
L 112.556232 67.667164 
L 112.954089 62.762175 
L 113.351958 61.281062 
L 113.749815 61.358336 
L 114.147671 61.219161 
L 114.54554 61.627073 
L 114.943397 65.195929 
L 115.341254 70.712038 
L 115.739123 70.712038 
L 116.13698 79.23901 
L 116.534837 91.161787 
L 117.330563 123.532112 
L 117.72842 123.670902 
L 118.126289 138.353604 
L 118.922003 176.012107 
L 119.319872 190.379776 
L 119.717729 190.505691 
L 120.911312 235.90519 
L 121.309169 255.426422 
L 121.707038 255.458733 
L 122.104895 264.160434 
L 122.502752 269.61251 
L 123.298478 267.146581 
L 123.696335 267.147375 
L 124.094204 269.940336 
L 124.49206 266.938226 
L 124.889917 262.330067 
L 125.287786 254.322611 
L 125.685643 254.277602 
L 126.481369 230.038331 
L 127.277083 194.566436 
L 127.674952 194.566436 
L 128.072809 175.740597 
L 128.868535 129.565832 
L 129.266392 107.804394 
L 129.664249 107.788113 
L 130.062118 88.150425 
L 130.459975 86.957594 
L 130.857832 66.496758 
L 131.255701 57.001477 
L 131.653558 57.034832 
L 132.449284 45.262635 
L 132.847141 43.875394 
L 133.244998 43.765423 
L 133.642867 43.911446 
L 134.83645 59.295059 
L 135.234306 68.969898 
L 135.632163 68.915479 
L 136.427889 94.974438 
L 137.223615 129.876358 
L 137.621472 129.735504 
L 138.019329 149.055638 
L 138.417198 151.595236 
L 138.815055 208.182408 
L 139.212912 228.721244 
L 139.610781 228.884636 
L 140.008638 238.231876 
L 140.804364 260.940105 
L 141.202221 269.378148 
L 141.600078 269.280852 
L 141.997947 273.796908 
L 142.395804 276.334125 
L 142.793661 276.05777 
L 143.19153 273.365505 
L 143.589387 273.510167 
L 143.987244 268.692883 
L 144.385113 269.969541 
L 145.180827 246.315382 
L 145.578695 246.213732 
L 146.374409 208.553951 
L 146.772278 180.230863 
L 147.170135 161.787702 
L 147.567992 161.926818 
L 149.159444 76.632658 
L 149.557301 76.785892 
L 150.353027 50.000265 
L 150.750884 39.78539 
L 151.148741 37.218379 
L 151.54661 37.217018 
L 151.944467 34.854484 
L 152.342324 34.500197 
L 152.740193 34.414125 
L 153.13805 44.385386 
L 153.535907 44.385386 
L 154.331633 60.934575 
L 155.127359 91.374586 
L 155.525216 91.402929 
L 155.923073 108.966796 
L 156.718798 151.048421 
L 157.116655 166.336184 
L 157.514524 166.156272 
M 158.310238 219.138576 
L 158.708107 227.349989 
L 159.105964 241.038805 
L 159.503821 240.740092 
L 159.90169 225.438811 
L 160.299547 225.474568 
L 160.697404 232.000503 
L 161.095273 224.777513 
L 163.880296 224.740417 
L 164.278153 228.196673 
L 164.676022 217.008319 
L 165.073879 218.387374 
L 165.869605 218.424855 
L 166.267462 226.330503 
L 166.665319 226.228582 
L 167.063187 225.090578 
L 167.858901 225.007363 
L 168.25677 227.870388 
L 168.654627 227.68371 
L 169.052484 227.641128 
L 169.450353 224.848551 
L 169.84821 224.946777 
L 170.246067 225.779924 
L 170.643936 225.640069 
L 171.43965 225.705121 
L 171.837519 221.421569 
L 172.235376 221.325747 
L 172.633233 219.792914 
L 173.031102 219.097513 
L 173.428959 217.409247 
L 173.428959 217.409247 
" clip-path="url(#pd32d7790df)" style="fill: none; stroke: #000000; stroke-opacity: 0.9; stroke-width: 1.5; stroke-linecap: square"/>
   </g>
   <g id="line2d_15">
    <path d="M 70.38297 167.024889 
L 71.178691 160.751299 
L 71.576553 158.536126 
L 71.974413 158.389357 
L 72.770136 153.743994 
L 73.167996 151.905784 
L 73.565857 150.989263 
L 74.361579 150.624455 
L 74.75944 150.732159 
L 75.157302 151.696795 
L 75.555162 153.135257 
L 75.953023 153.193968 
L 76.350884 155.120063 
L 77.146606 160.688394 
L 77.544467 164.288445 
L 77.942328 164.439908 
L 78.340188 168.30517 
L 78.73805 170.953326 
L 79.533771 179.881267 
L 79.931633 179.736171 
L 81.523077 190.220377 
L 81.920934 190.264912 
L 82.318802 191.600287 
L 82.716659 192.501403 
L 83.114516 192.427462 
L 83.512385 191.017674 
L 83.910242 190.95424 
L 84.308099 189.679282 
L 84.705968 187.1494 
L 85.501682 179.751617 
L 85.899551 179.659496 
L 86.297408 175.85676 
L 87.490991 161.089673 
L 87.888848 160.931855 
L 88.684574 151.76636 
L 89.4803 145.212195 
L 89.878157 145.152969 
L 90.673883 141.467771 
L 91.07174 140.700085 
L 91.469597 140.952518 
L 91.867466 140.79899 
L 92.265323 141.813283 
L 93.061048 146.374869 
L 93.458905 150.087866 
L 93.856762 150.152715 
L 95.448214 170.583766 
L 95.846071 170.697768 
L 97.437511 191.889438 
L 97.83538 192.074846 
L 98.631094 198.630419 
L 99.028963 200.315397 
L 99.42682 201.330688 
L 99.824677 201.513511 
L 100.222546 201.444377 
L 100.620403 200.487632 
L 101.01826 198.599242 
L 101.416129 195.672295 
L 101.813986 195.844634 
L 102.609712 187.744462 
L 103.405426 176.628621 
L 103.803294 176.540262 
L 105.394734 153.509502 
L 105.792591 153.381696 
L 106.588317 144.135865 
L 106.986174 140.828671 
L 107.384043 138.519082 
L 107.7819 138.665059 
L 108.179757 137.369332 
L 108.577626 137.291173 
L 108.975483 138.6164 
L 109.37334 141.026686 
L 109.771209 141.15847 
L 110.566923 148.41325 
L 111.362649 158.56214 
L 111.760506 158.394613 
L 113.351958 183.132641 
L 113.749815 183.284773 
L 114.54554 194.581374 
L 115.341254 201.807326 
L 115.739123 201.657335 
L 116.13698 203.898176 
L 116.534837 205.015909 
L 116.932706 205.087673 
L 117.330563 204.643188 
L 117.72842 204.75241 
L 118.126289 202.966758 
L 118.524146 200.667145 
L 119.319872 192.928634 
L 119.717729 192.869311 
L 120.513455 182.10502 
L 121.309169 169.67248 
L 121.707038 169.631274 
L 123.298478 148.290763 
L 123.696335 148.249654 
L 124.094204 144.477477 
L 124.49206 141.806866 
L 124.889917 139.974028 
L 125.287786 139.372069 
L 125.685643 139.361888 
L 126.0835 139.959222 
L 126.879226 144.658623 
L 127.277083 148.24877 
L 127.674952 148.219067 
L 128.072809 152.230527 
L 129.266392 169.278121 
L 129.664249 169.460897 
L 130.459975 181.03393 
L 131.255701 190.871356 
L 131.653558 190.934312 
L 132.449284 198.249562 
L 132.847141 200.674673 
L 133.244998 202.122001 
L 133.642867 202.32598 
L 134.040724 202.762099 
L 134.438581 202.736613 
L 134.83645 201.745448 
L 135.234306 199.733459 
L 135.632163 199.691671 
L 136.427889 193.819807 
L 137.223615 185.321925 
L 137.621472 185.31793 
L 138.417198 174.172649 
L 139.212912 164.179354 
L 139.610781 164.029039 
L 140.804364 151.791505 
L 141.202221 149.24998 
L 141.600078 149.341312 
L 141.997947 147.638036 
L 142.395804 146.781602 
L 142.793661 146.807677 
L 143.19153 148.015111 
L 143.589387 148.066899 
L 144.385113 152.828767 
L 145.180827 160.015676 
L 145.578695 160.032576 
L 145.976552 163.55538 
L 146.374409 168.890378 
M 147.170135 178.199273 
L 147.567992 178.356023 
L 148.761575 189.095005 
L 149.159444 191.751052 
L 149.557301 191.544291 
L 149.955158 193.884815 
L 150.353027 195.35552 
L 150.750884 196.003896 
L 151.148741 196.016338 
L 151.944467 195.509509 
L 152.342324 194.188311 
L 152.740193 192.367931 
L 153.13805 189.959059 
L 153.535907 189.719686 
L 154.72949 181.170664 
L 155.127359 177.171865 
L 155.525216 177.106906 
L 155.923073 171.439202 
L 156.320941 167.460745 
L 157.116655 161.933088 
L 157.514524 161.961884 
L 158.310238 157.146549 
L 158.708107 155.57682 
L 159.105964 154.683697 
L 159.90169 154.368262 
L 160.299547 154.841155 
L 160.697404 155.70971 
L 161.095273 157.349455 
L 161.49313 157.483078 
L 162.288856 161.437374 
L 163.08457 166.286214 
L 163.482439 166.342104 
L 163.880296 168.812063 
L 164.278153 170.358836 
L 164.676022 173.924397 
L 165.073879 176.259487 
L 165.869605 176.730633 
L 166.665319 180.622141 
L 167.063187 181.721039 
L 167.461044 181.671822 
L 167.858901 182.156854 
L 168.25677 182.374941 
L 168.654627 182.457017 
L 169.052484 182.244293 
L 169.450353 182.226097 
L 169.84821 181.654188 
L 170.246067 180.847152 
L 171.041793 178.469481 
L 171.43965 178.389996 
L 171.837519 178.065157 
L 172.633233 174.287245 
L 173.031102 169.936802 
L 173.428959 169.968764 
L 174.622542 166.083469 
L 175.020399 165.094168 
L 175.418268 165.003785 
L 175.816125 163.854891 
L 176.213982 163.18516 
L 176.611851 162.242312 
L 177.805433 162.309371 
L 178.20329 162.030612 
L 178.601147 161.964984 
L 178.999016 162.058531 
L 179.396873 161.926315 
L 179.79473 162.227333 
L 180.192599 162.326193 
L 180.590456 162.917491 
L 180.988313 163.013751 
L 181.386182 163.591689 
L 181.784039 163.716296 
L 182.579765 164.111324 
L 182.977622 164.69262 
L 183.375479 164.959713 
L 183.773348 165.445872 
L 184.569062 166.905216 
L 185.364788 167.411373 
L 186.956228 170.589571 
L 187.354097 170.61471 
L 187.751954 171.227541 
L 188.945536 173.848721 
L 189.343358 173.690053 
L 189.741298 174.380238 
L 190.139119 174.700244 
L 190.53694 175.352703 
L 191.332702 175.656784 
L 193.322047 174.979541 
L 194.117689 173.32072 
L 194.913451 170.199925 
L 195.311272 169.992704 
L 196.107034 166.170353 
L 196.902795 161.987955 
L 197.300617 161.977244 
L 198.4942 156.290966 
L 198.892021 154.781585 
L 199.289961 154.763851 
L 200.085604 152.727708 
L 200.483544 152.346597 
L 201.279186 152.33111 
L 201.677127 152.558897 
L 202.074948 153.314255 
L 202.87071 156.252474 
L 203.268531 156.208812 
L 204.064293 160.223254 
L 204.859935 165.901382 
L 205.257876 166.026268 
L 206.84928 178.028017 
L 207.247101 178.080019 
L 207.645041 181.597427 
L 208.838624 186.134207 
L 209.634267 186.497687 
L 210.032207 186.259465 
L 210.430028 185.666278 
L 210.82785 183.836127 
L 211.22579 183.780568 
L 211.623611 181.875801 
L 212.021432 179.221021 
L 212.817194 172.06326 
L 213.215015 171.946934 
L 214.806539 155.252794 
L 215.20436 155.426276 
L 216.397943 145.329059 
L 216.795764 143.105224 
L 217.193705 143.005275 
L 217.591526 141.490559 
L 217.989347 140.594535 
L 218.387287 140.309178 
L 218.785109 140.895969 
L 219.18293 140.987006 
L 219.978692 143.867922 
L 220.774453 150.902602 
L 221.172274 150.901831 
L 221.968036 159.193365 
L 222.763678 169.336063 
L 223.161619 169.314105 
L 224.355202 184.209332 
L 224.753023 187.391547 
L 225.150844 187.515732 
L 225.946606 193.293265 
L 226.344427 195.004469 
L 226.742368 195.331719 
L 227.140189 195.086659 
L 227.53801 194.413611 
L 227.935951 192.894661 
L 228.731593 186.393217 
L 229.129533 186.355058 
L 229.527355 182.513939 
L 230.720938 166.555488 
L 231.118759 166.374603 
L 231.91452 154.634305 
L 232.710282 145.522925 
L 233.108103 145.559272 
L 233.903865 138.176676 
L 234.301686 135.425639 
L 234.699507 133.604932 
L 235.097448 133.338871 
L 235.495269 132.608597 
L 235.89309 133.259919 
L 236.291031 134.597435 
L 236.688852 136.942169 
L 237.086673 137.162406 
L 237.484614 140.041439 
L 238.678197 153.586337 
L 239.076018 153.713365 
L 240.269601 171.925125 
L 240.667422 179.455909 
L 241.065362 179.450245 
L 242.258945 193.346607 
L 242.656766 197.046217 
L 243.054588 197.010063 
L 243.452528 199.479257 
L 243.850349 200.805663 
L 244.24817 200.901417 
L 244.646111 199.57907 
L 245.043932 199.463884 
L 245.441753 197.042741 
L 245.839694 193.494988 
L 246.635336 183.563404 
L 247.033277 183.718463 
L 248.22686 165.631006 
L 248.624681 159.157676 
L 249.022502 159.230404 
L 249.818264 148.184964 
L 250.614025 138.939782 
L 251.011847 139.056442 
L 251.807608 133.131468 
L 252.205429 131.405336 
L 253.001191 131.661851 
L 253.399012 131.943331 
L 253.796834 133.930899 
L 254.194774 136.576341 
L 254.592595 140.433457 
L 254.990416 140.49334 
L 256.183999 156.042396 
L 256.58194 162.041925 
L 256.979761 161.943182 
L 257.775523 174.282404 
L 258.173344 181.812265 
L 258.571165 186.533242 
L 258.969106 186.386312 
L 259.764748 194.439387 
L 260.56051 199.389194 
L 260.958331 199.476899 
L 261.356271 199.775634 
L 261.754093 199.320196 
L 262.151914 197.511244 
L 262.549854 195.021123 
L 262.947675 195.077716 
L 263.743437 186.649276 
L 264.53908 176.276607 
L 264.93702 176.275303 
L 266.528424 153.413011 
L 266.926245 153.542591 
L 267.324186 148.484334 
L 268.517769 139.01268 
L 268.91559 139.118479 
L 269.313411 137.682193 
L 269.711352 137.000034 
L 270.109173 137.404727 
L 270.506994 138.58681 
L 270.904935 138.568807 
L 271.302756 140.505221 
L 271.700577 143.38922 
L 272.496339 151.474699 
L 272.89416 151.260404 
L 274.485683 171.252036 
L 274.883504 171.258442 
L 275.679266 181.125315 
L 276.474908 188.611734 
L 276.872849 188.808344 
L 277.27067 191.097125 
L 277.668491 192.596169 
L 278.066432 193.190113 
L 278.464253 193.299521 
L 278.862074 193.157616 
L 279.260015 192.508727 
L 279.657836 190.694224 
L 280.055657 188.2883 
L 280.453598 184.971885 
L 280.851419 184.977921 
L 281.24924 181.805387 
L 282.442823 168.447139 
L 282.840763 168.587777 
L 284.432167 153.89072 
L 284.829989 153.667354 
L 285.62575 148.919093 
L 286.421512 147.215703 
L 287.217154 147.425305 
L 287.615095 148.352392 
L 288.410737 151.867193 
L 288.808678 151.779035 
L 289.60432 157.210319 
L 290.400082 163.937167 
L 290.797903 163.801232 
L 291.991486 173.036689 
L 292.389426 176.206672 
L 292.787248 176.293816 
L 293.583009 181.02089 
L 294.378652 182.759484 
L 294.776592 182.686389 
L 295.174413 182.809046 
L 295.970175 182.341698 
L 296.367996 182.459024 
L 296.765818 181.831454 
L 297.561579 178.138834 
L 297.9594 176.197577 
L 298.357341 176.254333 
L 299.948745 166.837297 
L 300.346566 166.848063 
L 301.142328 163.147439 
L 301.93809 160.679764 
L 302.335911 160.691679 
L 303.131672 159.657152 
L 303.927315 160.375179 
L 304.325255 160.594884 
L 304.723077 161.170936 
L 305.916659 164.922448 
L 306.314481 165.000663 
L 307.110242 167.588073 
L 307.906004 169.864888 
L 308.303825 170.002921 
L 309.099587 171.222802 
L 309.497408 171.49355 
L 309.895229 171.325801 
L 310.690991 171.411258 
L 311.088812 171.171477 
L 311.486753 171.081212 
L 311.884574 170.241412 
L 312.282395 170.143321 
L 312.680336 169.813928 
L 313.078157 168.570828 
L 313.475978 167.820245 
L 313.873918 167.397939 
L 314.27174 167.427762 
L 314.669561 166.639284 
L 315.465323 165.676063 
L 315.863144 165.444008 
L 316.261084 165.368784 
L 316.658905 165.793248 
L 317.056727 165.552789 
L 317.454667 166.246838 
L 317.852488 167.342139 
L 318.250309 167.429363 
L 318.64825 168.423812 
L 319.046071 169.912938 
L 319.443892 170.847061 
L 319.841833 172.072606 
L 320.239654 171.943938 
L 321.831058 175.48156 
L 322.228999 175.815241 
L 322.62682 175.883645 
L 325.013986 175.495775 
L 325.411807 172.98588 
L 325.809747 171.33819 
L 326.207569 171.315976 
L 327.798973 163.006862 
L 328.196913 163.0356 
L 328.992555 159.366461 
L 329.788317 156.782016 
L 330.186138 156.78227 
L 330.584079 155.662053 
L 330.9819 155.166836 
L 331.379721 155.123326 
L 331.777662 155.379143 
L 332.175483 155.496435 
L 332.573304 156.802205 
L 333.369066 160.619516 
L 333.766887 163.283966 
L 334.164828 163.240683 
L 334.96047 168.96521 
L 335.756232 174.57422 
L 336.154053 174.449008 
L 336.949815 181.314984 
L 337.745576 185.787756 
L 338.143397 185.888907 
L 338.939159 188.454376 
L 339.33698 188.315933 
L 339.734801 188.029089 
L 340.132742 188.071388 
L 340.928384 185.358394 
L 341.724146 179.976447 
L 342.121967 180.027614 
L 342.917729 172.036175 
L 343.713491 164.219642 
L 344.111312 164.27304 
L 345.702716 149.977601 
L 346.100656 149.89815 
L 346.498478 147.394921 
L 347.294239 145.007967 
L 347.69206 145.066149 
L 348.089882 145.009622 
L 348.487822 145.858596 
L 348.885643 147.469248 
L 349.681405 152.136451 
L 350.079226 152.295897 
L 350.874988 158.662452 
L 351.67063 168.956387 
L 352.068571 168.873045 
L 353.659975 187.481661 
L 354.057796 187.555072 
L 354.455737 191.340405 
L 354.853558 193.976929 
L 355.251379 195.777912 
L 355.64932 196.89119 
L 356.047141 196.977779 
L 356.444962 196.935965 
L 356.842902 196.325272 
L 357.240724 194.395691 
L 357.638545 191.897458 
L 358.036485 191.908976 
L 358.832128 184.386634 
L 359.627889 174.561062 
L 360.025711 174.391596 
L 361.219293 157.162605 
L 361.617234 152.571277 
L 362.015055 152.462168 
L 362.810817 144.684834 
L 363.208638 141.688869 
L 363.606459 139.685112 
L 364.0044 139.669988 
L 364.402221 138.582457 
L 364.800042 138.316894 
L 365.595804 140.892817 
L 365.993625 140.941204 
L 366.391566 143.572996 
L 367.187208 151.242967 
L 367.585148 155.46633 
L 367.98297 155.532991 
L 368.778731 166.620566 
L 369.574374 178.266035 
L 369.972314 178.190167 
L 370.767957 189.103358 
L 371.563718 196.806764 
L 371.961539 196.923827 
L 372.35948 199.382437 
L 372.757301 200.591163 
L 373.155122 200.686259 
L 373.553063 199.995643 
L 373.950884 200.020132 
L 374.348705 198.214029 
L 374.746646 194.982511 
L 375.542288 185.590834 
L 375.940229 185.593405 
L 377.133812 168.868286 
L 377.531633 162.416913 
L 377.929454 162.40586 
L 378.725216 150.952939 
L 379.520977 142.351074 
L 379.918798 142.337764 
L 380.31662 138.909285 
L 380.71456 136.533124 
L 381.112381 135.222341 
L 381.908143 134.862657 
L 382.305964 135.365938 
L 382.703785 137.099711 
L 383.101726 139.738872 
L 383.499547 143.26365 
L 383.897368 143.123477 
L 384.69313 152.463438 
L 385.488892 163.452105 
L 385.886713 163.685937 
L 387.478117 187.493958 
L 387.876058 187.513143 
L 388.6717 195.346033 
L 389.06964 198.093211 
L 389.467462 199.854767 
L 389.865283 199.99036 
L 390.263223 200.534727 
L 390.661044 200.04165 
L 391.058866 198.357844 
L 391.456806 195.395048 
L 391.854627 195.558299 
L 392.252449 191.80806 
L 393.04821 181.980377 
L 393.04821 181.980377 
" clip-path="url(#pd32d7790df)" style="fill: none; stroke: #ff00ff; stroke-opacity: 0.9; stroke-width: 1.5; stroke-linecap: square"/>
   </g>
   <g id="line2d_16">
    <path d="M 70.38297 69.917347 
L 70.780831 69.1968 
L 71.178691 70.33485 
L 71.576553 74.373066 
L 71.974413 74.301982 
L 72.770136 88.027235 
L 73.167996 98.082074 
L 73.565857 110.987649 
L 73.963719 111.119569 
L 75.157302 158.223816 
L 75.555162 175.113088 
L 75.953023 175.082101 
L 76.350884 195.584316 
L 77.544467 233.52311 
L 77.942328 233.599886 
L 78.340188 241.972672 
L 78.73805 247.993694 
L 79.135911 251.621843 
L 79.533771 252.789052 
L 79.931633 252.71112 
L 80.329494 252.062361 
L 80.727351 249.556752 
L 81.12522 245.220504 
L 81.523077 238.62455 
L 81.920934 238.844832 
L 82.318802 230.115061 
L 83.114516 204.825943 
L 83.512385 189.66556 
L 83.910242 189.72754 
L 85.501682 123.27401 
L 85.899551 123.165354 
L 86.297408 106.125515 
L 87.093134 84.476541 
L 87.490991 77.040593 
L 87.888848 76.84616 
L 88.286717 71.125483 
L 88.684574 68.730139 
L 89.082431 68.532963 
L 89.4803 70.370109 
L 89.878157 70.41192 
L 90.276014 74.149678 
L 90.673883 81.01693 
L 91.469597 103.036358 
L 91.867466 103.020599 
L 93.458905 160.688038 
L 93.856762 160.667508 
L 94.254631 177.298249 
L 94.652488 198.958631 
L 95.448214 223.534367 
L 95.846071 223.542167 
L 96.641797 242.150348 
L 97.039654 247.061391 
L 97.437511 249.708489 
L 97.83538 249.56759 
L 98.233237 250.433661 
L 98.631094 249.169201 
L 99.028963 245.665534 
L 99.42682 240.409273 
L 99.824677 240.316354 
L 100.620403 219.252198 
L 101.416129 191.799772 
L 101.813986 191.700681 
L 103.405426 126.246054 
L 103.803294 126.280088 
L 104.201151 116.190489 
L 104.599008 101.913386 
L 105.394734 82.970827 
L 105.792591 82.886206 
L 106.19046 75.867647 
L 106.588317 71.166047 
L 106.986174 69.500818 
L 107.384043 69.819144 
L 107.7819 69.854289 
L 108.179757 71.96321 
L 108.975483 83.117983 
L 109.37334 91.818414 
L 109.771209 91.657244 
L 110.566923 114.378875 
L 111.362649 146.100214 
L 111.760506 146.207169 
L 112.158375 163.020986 
L 112.556232 189.465057 
L 113.351958 217.729296 
L 113.749815 217.80004 
L 114.54554 238.155304 
L 114.943397 244.380418 
L 115.341254 248.191709 
L 115.739123 248.123232 
L 116.13698 250.282128 
L 116.534837 250.641721 
L 116.932706 249.059571 
L 117.330563 245.369928 
L 117.72842 245.194111 
L 118.126289 239.856313 
L 118.524146 232.911288 
L 119.319872 211.090511 
L 119.717729 211.073777 
L 120.513455 180.704812 
L 121.309169 146.857221 
L 121.707038 146.819377 
L 122.900621 104.267009 
L 123.298478 93.18196 
L 123.696335 93.286421 
L 124.094204 84.612066 
L 124.49206 78.605601 
L 124.889917 74.61058 
L 125.287786 73.659027 
L 125.685643 73.836046 
L 126.0835 74.690484 
L 126.481369 77.588496 
L 126.879226 83.700669 
L 127.277083 91.744359 
L 127.674952 91.635658 
L 128.072809 100.512042 
L 128.868535 127.723493 
L 129.266392 144.073556 
L 129.664249 144.100606 
L 130.857832 191.700413 
L 131.255701 206.811969 
L 131.653558 206.738164 
L 132.449284 229.727578 
L 133.244998 243.022268 
L 133.642867 243.104372 
L 134.040724 246.333113 
L 134.438581 248.169125 
L 134.83645 248.113414 
L 135.234306 245.77038 
L 135.632163 245.725349 
L 136.030032 241.768579 
L 136.427889 236.650769 
L 136.825746 228.6098 
L 137.223615 217.83192 
L 137.621472 217.842192 
L 138.417198 190.264354 
L 139.212912 159.284958 
L 139.610781 159.273302 
L 140.804364 115.312605 
L 141.202221 102.600987 
L 141.600078 102.644771 
L 141.997947 92.020306 
L 142.793661 79.436685 
L 143.19153 76.68778 
L 143.589387 76.50541 
L 143.987244 75.719969 
L 144.385113 77.406217 
L 144.78297 81.074773 
L 145.180827 87.365121 
L 145.578695 87.322516 
L 146.374409 106.15617 
L 147.170135 134.022481 
L 147.567992 134.365612 
L 149.159444 197.137831 
L 149.557301 197.105227 
L 150.353027 222.130914 
L 151.148741 237.619622 
L 151.54661 237.567494 
L 151.944467 242.714985 
L 152.342324 245.49203 
L 152.740193 246.544461 
L 153.13805 245.412828 
L 153.535907 245.521166 
L 153.933776 242.983223 
L 154.331633 238.759282 
L 154.72949 232.323908 
L 155.127359 223.173368 
L 155.525216 223.448363 
L 156.320941 198.770411 
L 157.116655 170.044748 
L 157.514524 169.949654 
L 159.105964 110.905319 
L 159.503821 110.88922 
L 160.299547 90.911824 
L 160.697404 84.23549 
L 161.095273 79.797616 
L 161.49313 79.682294 
L 161.890987 77.62956 
L 162.288856 77.606931 
L 162.686713 80.038259 
L 163.08457 84.593654 
L 163.482439 84.652971 
L 163.880296 91.674386 
L 164.676022 111.962013 
L 165.073879 126.051666 
L 165.471736 126.141026 
L 166.665319 170.758363 
L 167.063187 187.041284 
L 167.461044 187.178505 
L 168.25677 213.593603 
L 169.052484 232.347965 
L 169.450353 232.379369 
L 169.84821 238.498141 
L 170.246067 242.744643 
L 170.643936 245.087451 
L 171.43965 245.379723 
L 171.837519 243.882489 
L 172.235376 240.304336 
L 172.633233 235.087574 
L 173.031102 228.106837 
L 173.428959 227.946007 
L 174.622542 194.198839 
L 175.020399 179.972017 
L 175.418268 179.96292 
L 175.816125 164.706976 
L 176.213982 143.366886 
L 177.009708 116.228764 
L 177.407565 116.247039 
L 178.20329 95.354438 
L 178.999016 80.818688 
L 179.396873 80.735881 
L 179.79473 77.088731 
L 180.192599 75.853589 
L 180.590456 76.597944 
L 180.988313 78.972064 
L 181.386182 78.942882 
L 182.181896 90.820378 
L 182.579765 100.459324 
L 182.977622 113.150263 
L 183.375479 113.385918 
L 184.171205 138.734896 
L 184.966931 170.33832 
L 185.364788 170.510371 
L 186.558371 215.945866 
L 186.956228 226.100744 
L 187.354097 226.127658 
L 187.751954 233.805792 
L 188.149775 239.314713 
L 188.547715 242.728341 
L 188.945536 244.203717 
L 189.343358 244.250018 
L 189.741298 244.122701 
L 190.139119 241.917913 
L 190.53694 237.8592 
L 190.934881 232.059275 
L 191.332702 231.864752 
L 192.128464 214.304467 
L 192.924106 189.2059 
L 193.322047 189.052935 
L 194.913451 127.827025 
L 195.311272 127.984113 
L 196.107034 103.006133 
L 196.902795 85.818796 
L 197.300617 85.653024 
L 197.698438 80.162809 
L 198.096378 77.559405 
L 198.4942 76.811151 
L 198.892021 78.205625 
L 199.289961 78.137874 
L 199.687782 81.8016 
L 200.085604 87.985787 
L 200.881365 107.510534 
L 201.279186 107.531916 
L 202.074948 134.225552 
L 202.87071 165.569339 
L 203.268531 165.730413 
L 204.462114 207.945733 
L 204.859935 219.41407 
L 205.257876 219.261993 
L 206.053518 235.997724 
L 206.451459 240.690005 
L 206.84928 243.611077 
L 207.247101 243.708055 
L 207.645041 244.937414 
L 208.042863 243.969423 
L 208.440684 241.144853 
L 208.838624 236.857037 
L 209.236446 236.887965 
L 209.634267 230.775361 
L 210.430028 211.731651 
L 210.82785 198.916842 
L 211.22579 199.020396 
L 212.817194 138.616309 
L 213.215015 138.769452 
L 214.408598 98.757431 
L 214.806539 89.941248 
L 215.20436 89.933788 
L 216.000122 78.934969 
L 216.397943 76.223476 
L 216.795764 76.193138 
L 217.193705 76.295037 
L 217.591526 78.146195 
L 217.989347 82.329323 
L 218.785109 97.011436 
L 219.18293 96.913052 
L 219.978692 122.210468 
L 220.774453 152.799019 
L 221.172274 152.546177 
L 222.763678 212.579083 
L 223.161619 212.788957 
L 223.957261 231.860489 
L 224.355202 238.46202 
L 224.753023 243.087117 
L 225.150844 243.073331 
L 225.548785 245.567059 
L 225.946606 246.452494 
L 226.344427 245.082077 
L 226.742368 242.028269 
L 227.140189 242.001264 
L 227.53801 237.192641 
L 227.935951 230.082795 
L 228.731593 209.340049 
L 229.129533 209.261369 
L 230.720938 150.888929 
L 231.118759 150.827754 
L 232.312342 106.90277 
L 232.710282 95.703419 
L 233.108103 95.62687 
L 233.505924 86.71677 
L 233.903865 80.552695 
L 234.301686 76.50872 
L 234.699507 74.823878 
L 235.097448 74.801929 
L 235.495269 75.137646 
L 235.89309 77.755425 
L 236.291031 82.26579 
L 236.688852 89.536986 
L 237.086673 89.679222 
L 237.882435 112.123658 
L 238.678197 140.325459 
L 239.076018 140.418741 
L 239.871779 169.706798 
L 240.269601 182.123845 
L 240.667422 200.052125 
L 241.065362 199.978456 
L 242.258945 233.434159 
L 242.656766 239.879804 
L 243.054588 239.775252 
L 243.452528 243.901921 
L 243.850349 246.0639 
L 244.24817 246.363451 
L 244.646111 244.660356 
L 245.043932 244.78799 
L 245.441753 240.980713 
L 245.839694 235.354837 
L 246.237515 227.761823 
L 246.635336 217.667962 
L 247.033277 217.677168 
L 247.828919 192.423127 
L 248.22686 177.600632 
L 248.624681 157.947499 
L 249.022502 157.983014 
L 249.818264 124.775893 
L 250.614025 101.282472 
L 251.011847 101.33841 
L 251.807608 83.66888 
L 252.205429 77.49179 
L 252.603251 74.273435 
L 253.001191 74.309283 
L 253.399012 73.084254 
L 253.796834 73.635015 
L 254.194774 76.321611 
L 254.592595 80.625502 
L 254.990416 80.748239 
L 255.388357 87.722741 
L 256.183999 107.866884 
L 256.58194 120.974012 
L 256.979761 120.995938 
L 257.377582 135.445819 
L 258.571165 190.486148 
L 258.969106 190.639526 
L 259.764748 215.703408 
L 260.56051 236.430351 
L 260.958331 236.56735 
L 261.356271 242.556197 
L 261.754093 245.995877 
L 262.151914 247.771485 
L 262.947675 247.912225 
L 263.345497 245.864615 
L 263.743437 241.690534 
L 264.141258 235.880679 
L 264.53908 227.903243 
L 264.93702 227.786153 
L 265.334841 217.966901 
L 266.528424 167.559455 
L 266.926245 167.566836 
L 267.324186 155.86776 
L 268.517769 109.163632 
L 268.91559 109.079827 
L 270.109173 79.502531 
L 270.506994 74.091042 
L 270.904935 73.853959 
L 271.302756 71.194436 
L 271.700577 70.516585 
L 272.098517 71.759413 
L 272.496339 75.17363 
L 272.89416 75.172315 
L 273.2921 80.643483 
L 274.087743 97.618837 
L 274.485683 108.547252 
L 274.883504 108.49501 
L 275.679266 137.727542 
L 276.474908 171.192575 
L 276.872849 171.268233 
L 278.066432 217.223567 
L 278.464253 228.345734 
L 278.862074 228.508241 
L 279.260015 237.437025 
L 279.657836 243.090858 
L 280.055657 246.421475 
L 280.453598 247.680923 
L 280.851419 247.632332 
L 281.24924 247.190408 
L 281.64718 244.004318 
L 282.045002 238.93825 
L 282.442823 231.512641 
L 282.840763 231.785528 
L 283.636406 208.989367 
L 284.432167 177.430084 
L 284.829989 177.516395 
L 286.421512 114.727312 
L 286.819333 114.764316 
L 287.615095 91.921355 
L 288.410737 77.615887 
L 288.808678 77.643142 
L 289.206499 73.101736 
L 289.60432 70.795797 
L 290.002261 70.586649 
L 290.400082 72.432819 
L 290.797903 72.553583 
L 291.195844 76.161847 
L 291.593665 81.682491 
L 291.991486 89.10445 
L 292.389426 99.147657 
L 292.787248 99.226654 
L 293.583009 126.309043 
L 294.378652 158.653039 
L 294.776592 158.761602 
L 295.970175 206.836911 
L 296.367996 206.70057 
L 297.163758 231.536495 
L 297.561579 238.809913 
L 297.9594 243.83222 
L 298.357341 243.779933 
L 298.755162 246.710868 
L 299.152983 247.599273 
L 299.550924 246.284817 
L 299.948745 243.039909 
L 300.346566 243.04653 
L 300.744507 238.006152 
L 301.540149 217.785574 
L 301.93809 204.209812 
L 302.335911 203.969917 
L 303.927315 141.177856 
L 304.325255 141.041765 
L 305.120898 110.611119 
L 305.916659 90.151552 
L 306.314481 90.10219 
L 307.110242 76.92806 
L 307.508063 72.814905 
L 307.906004 70.933635 
L 308.303825 70.835886 
L 308.701646 71.123873 
L 309.099587 73.771651 
L 309.497408 77.831452 
L 309.895229 84.229391 
L 310.29317 84.350744 
L 311.088812 103.629701 
L 311.884574 131.415744 
L 312.282395 131.410642 
L 313.475978 180.819553 
L 313.873918 196.891476 
L 314.27174 197.059792 
L 315.067501 222.925447 
L 315.465323 233.001509 
L 315.863144 239.945741 
L 316.261084 239.923475 
L 316.658905 244.111863 
L 317.056727 246.323839 
L 317.454667 246.203484 
L 317.852488 244.200293 
L 318.250309 244.230269 
L 318.64825 240.517362 
L 319.046071 233.777812 
L 319.841833 212.43891 
L 320.239654 212.518656 
L 321.035416 184.558422 
L 321.831058 151.140025 
L 322.228999 151.089711 
L 323.422582 107.593454 
L 323.820403 97.169408 
L 324.218224 97.133038 
L 325.013986 82.084553 
L 325.411807 76.940304 
L 325.809747 73.561527 
L 326.207569 73.396367 
L 326.60539 72.695978 
L 327.00333 73.641341 
L 327.401151 76.620573 
L 327.798973 81.306165 
L 328.196913 81.260249 
L 328.594734 88.517546 
L 329.390496 109.91955 
L 329.788317 122.584051 
L 330.186138 122.57251 
L 331.379721 169.988103 
L 331.777662 187.193463 
L 332.175483 187.077203 
L 332.971245 214.228395 
L 333.766887 234.352154 
L 334.164828 234.181665 
L 334.562649 240.099065 
L 334.96047 243.087412 
L 335.35841 244.289494 
L 335.756232 243.632232 
L 336.154053 243.612074 
L 336.551993 240.752314 
L 336.949815 236.437267 
L 337.347636 228.693695 
L 337.745576 218.232599 
L 338.143397 218.39107 
L 338.939159 193.378344 
L 339.734801 161.451314 
L 340.132742 161.67204 
L 341.326325 116.853102 
L 341.724146 105.216748 
L 342.121967 105.310711 
L 342.917729 88.16929 
L 343.713491 77.232395 
L 344.111312 77.220763 
L 344.509133 74.980739 
L 344.907074 74.9292 
L 345.304895 76.583545 
L 345.702716 80.359101 
L 346.100656 80.400074 
L 346.498478 86.924875 
L 347.294239 104.501168 
L 347.69206 116.165615 
L 348.089882 115.972838 
L 348.885643 144.938493 
L 349.681405 177.236656 
L 350.079226 177.291245 
L 351.272809 217.880602 
L 351.67063 228.287597 
L 352.068571 228.320679 
L 352.466392 234.954249 
L 352.864213 238.973849 
L 353.262154 241.517574 
L 353.659975 242.252179 
L 354.057796 242.250093 
L 354.455737 240.871513 
L 354.853558 237.138744 
L 355.251379 231.569509 
L 355.64932 223.694856 
L 356.047141 223.625904 
L 356.444962 213.412843 
L 357.638545 170.251189 
L 358.036485 170.139028 
L 359.230068 126.267844 
L 359.627889 113.385215 
L 360.025711 113.51616 
L 360.821472 93.894162 
L 361.617234 81.312513 
L 362.015055 81.065567 
L 362.412876 77.664524 
L 362.810817 76.587037 
L 363.208638 77.085942 
L 363.606459 80.268336 
L 364.0044 80.187275 
L 364.402221 84.856632 
L 365.197983 99.279939 
L 365.595804 109.106606 
L 365.993625 109.152408 
L 366.789387 136.699191 
L 367.585148 167.271876 
L 367.98297 167.199241 
L 369.574374 221.500476 
L 369.972314 221.57351 
L 370.370135 229.730798 
L 370.767957 235.152196 
L 371.165897 238.979404 
L 371.563718 240.899085 
L 371.961539 240.938471 
L 372.35948 240.757008 
L 372.757301 238.313027 
L 373.155122 234.395643 
L 373.553063 227.26496 
L 373.950884 227.387084 
L 374.746646 206.740613 
L 375.542288 179.344179 
L 375.940229 179.449554 
L 377.531633 121.412988 
L 377.929454 121.272112 
L 378.725216 99.580647 
L 379.520977 85.799478 
L 379.918798 85.907 
L 380.31662 80.985889 
L 380.71456 78.439398 
L 381.112381 77.965889 
L 381.510203 79.100424 
L 381.908143 79.038228 
L 382.703785 87.268029 
L 383.499547 103.575373 
L 383.897368 103.590928 
L 384.69313 128.217364 
L 385.488892 156.768737 
L 385.886713 156.771238 
L 387.478117 213.155829 
L 387.876058 213.328517 
L 388.6717 230.999634 
L 389.06964 236.069284 
L 389.467462 238.937661 
L 389.865283 239.145041 
L 390.263223 240.125753 
L 390.661044 239.029243 
L 391.058866 236.175015 
L 391.456806 231.142051 
L 391.854627 231.205971 
L 392.650389 213.269904 
L 393.04821 201.248833 
L 393.04821 201.248833 
" clip-path="url(#pd32d7790df)" style="fill: none; stroke: #ffff00; stroke-opacity: 0.9; stroke-width: 1.5; stroke-linecap: square"/>
   </g>
   <g id="line2d_17">
    <path d="M 52.160938 175.8631 
L 409.280938 175.8631 
" clip-path="url(#pd32d7790df)" style="fill: none; stroke-dasharray: 3.7,1.6; stroke-dashoffset: 0; stroke: #000000"/>
   </g>
   <g id="patch_3">
    <path d="M 52.160938 288.430125 
L 52.160938 22.318125 
" style="fill: none; stroke: #000000; stroke-width: 0.8; stroke-linejoin: miter; stroke-linecap: square"/>
   </g>
   <g id="patch_4">
    <path d="M 409.280938 288.430125 
L 409.280938 22.318125 
" style="fill: none; stroke: #000000; stroke-width: 0.8; stroke-linejoin: miter; stroke-linecap: square"/>
   </g>
   <g id="patch_5">
    <path d="M 52.160938 288.430125 
L 409.280938 288.430125 
" style="fill: none; stroke: #000000; stroke-width: 0.8; stroke-linejoin: miter; stroke-linecap: square"/>
   </g>
   <g id="patch_6">
    <path d="M 52.160938 22.318125 
L 409.280938 22.318125 
" style="fill: none; stroke: #000000; stroke-width: 0.8; stroke-linejoin: miter; stroke-linecap: square"/>
   </g>
   <g id="text_15">
    <!-- Amplitude vs Time - first setup -->
    <g transform="translate(138.412813 16.318125) scale(0.12 -0.12)">
     <defs>
      <path id="DejaVuSans-76" d="M 191 3500 
L 800 3500 
L 1894 563 
L 2988 3500 
L 3597 3500 
L 2284 0 
L 1503 0 
L 191 3500 
z
" transform="scale(0.015625)"/>
      <path id="DejaVuSans-2d" d="M 313 2009 
L 1997 2009 
L 1997 1497 
L 313 1497 
L 313 2009 
z
" transform="scale(0.015625)"/>
      <path id="DejaVuSans-66" d="M 2375 4863 
L 2375 4384 
L 1825 4384 
Q 1516 4384 1395 4259 
Q 1275 4134 1275 3809 
L 1275 3500 
L 2222 3500 
L 2222 3053 
L 1275 3053 
L 1275 0 
L 697 0 
L 697 3053 
L 147 3053 
L 147 3500 
L 697 3500 
L 697 3744 
Q 697 4328 969 4595 
Q 1241 4863 1831 4863 
L 2375 4863 
z
" transform="scale(0.015625)"/>
      <path id="DejaVuSans-72" d="M 2631 2963 
Q 2534 3019 2420 3045 
Q 2306 3072 2169 3072 
Q 1681 3072 1420 2755 
Q 1159 2438 1159 1844 
L 1159 0 
L 581 0 
L 581 3500 
L 1159 3500 
L 1159 2956 
Q 1341 3275 1631 3429 
Q 1922 3584 2338 3584 
Q 2397 3584 2469 3576 
Q 2541 3569 2628 3553 
L 2631 2963 
z
" transform="scale(0.015625)"/>
     </defs>
     <use xlink:href="#DejaVuSans-41"/>
     <use xlink:href="#DejaVuSans-6d" transform="translate(68.408203 0)"/>
     <use xlink:href="#DejaVuSans-70" transform="translate(165.820312 0)"/>
     <use xlink:href="#DejaVuSans-6c" transform="translate(229.296875 0)"/>
     <use xlink:href="#DejaVuSans-69" transform="translate(257.080078 0)"/>
     <use xlink:href="#DejaVuSans-74" transform="translate(284.863281 0)"/>
     <use xlink:href="#DejaVuSans-75" transform="translate(324.072266 0)"/>
     <use xlink:href="#DejaVuSans-64" transform="translate(387.451172 0)"/>
     <use xlink:href="#DejaVuSans-65" transform="translate(450.927734 0)"/>
     <use xlink:href="#DejaVuSans-20" transform="translate(512.451172 0)"/>
     <use xlink:href="#DejaVuSans-76" transform="translate(544.238281 0)"/>
     <use xlink:href="#DejaVuSans-73" transform="translate(603.417969 0)"/>
     <use xlink:href="#DejaVuSans-20" transform="translate(655.517578 0)"/>
     <use xlink:href="#DejaVuSans-54" transform="translate(687.304688 0)"/>
     <use xlink:href="#DejaVuSans-69" transform="translate(745.263672 0)"/>
     <use xlink:href="#DejaVuSans-6d" transform="translate(773.046875 0)"/>
     <use xlink:href="#DejaVuSans-65" transform="translate(870.458984 0)"/>
     <use xlink:href="#DejaVuSans-20" transform="translate(931.982422 0)"/>
     <use xlink:href="#DejaVuSans-2d" transform="translate(963.769531 0)"/>
     <use xlink:href="#DejaVuSans-20" transform="translate(999.853516 0)"/>
     <use xlink:href="#DejaVuSans-66" transform="translate(1031.640625 0)"/>
     <use xlink:href="#DejaVuSans-69" transform="translate(1066.845703 0)"/>
     <use xlink:href="#DejaVuSans-72" transform="translate(1094.628906 0)"/>
     <use xlink:href="#DejaVuSans-73" transform="translate(1135.742188 0)"/>
     <use xlink:href="#DejaVuSans-74" transform="translate(1187.841797 0)"/>
     <use xlink:href="#DejaVuSans-20" transform="translate(1227.050781 0)"/>
     <use xlink:href="#DejaVuSans-73" transform="translate(1258.837891 0)"/>
     <use xlink:href="#DejaVuSans-65" transform="translate(1310.9375 0)"/>
     <use xlink:href="#DejaVuSans-74" transform="translate(1372.460938 0)"/>
     <use xlink:href="#DejaVuSans-75" transform="translate(1411.669922 0)"/>
     <use xlink:href="#DejaVuSans-70" transform="translate(1475.048828 0)"/>
    </g>
   </g>
   <g id="legend_1">
    <g id="patch_7">
     <path d="M 340.860625 89.030625 
L 402.280938 89.030625 
Q 404.280938 89.030625 404.280938 87.030625 
L 404.280938 29.318125 
Q 404.280938 27.318125 402.280938 27.318125 
L 340.860625 27.318125 
Q 338.860625 27.318125 338.860625 29.318125 
L 338.860625 87.030625 
Q 338.860625 89.030625 340.860625 89.030625 
z
" style="fill: #ffffff; opacity: 0.8; stroke: #cccccc; stroke-linejoin: miter"/>
    </g>
    <g id="line2d_18">
     <path d="M 342.860625 35.416562 
L 352.860625 35.416562 
L 362.860625 35.416562 
" style="fill: none; stroke: #ff0000; stroke-opacity: 0.9; stroke-width: 1.5; stroke-linecap: square"/>
    </g>
    <g id="text_16">
     <!-- 50cm -->
     <g transform="translate(370.860625 38.916562) scale(0.1 -0.1)">
      <defs>
       <path id="DejaVuSans-63" d="M 3122 3366 
L 3122 2828 
Q 2878 2963 2633 3030 
Q 2388 3097 2138 3097 
Q 1578 3097 1268 2742 
Q 959 2388 959 1747 
Q 959 1106 1268 751 
Q 1578 397 2138 397 
Q 2388 397 2633 464 
Q 2878 531 3122 666 
L 3122 134 
Q 2881 22 2623 -34 
Q 2366 -91 2075 -91 
Q 1284 -91 818 406 
Q 353 903 353 1747 
Q 353 2603 823 3093 
Q 1294 3584 2113 3584 
Q 2378 3584 2631 3529 
Q 2884 3475 3122 3366 
z
" transform="scale(0.015625)"/>
      </defs>
      <use xlink:href="#DejaVuSans-35"/>
      <use xlink:href="#DejaVuSans-30" transform="translate(63.623047 0)"/>
      <use xlink:href="#DejaVuSans-63" transform="translate(127.246094 0)"/>
      <use xlink:href="#DejaVuSans-6d" transform="translate(182.226562 0)"/>
     </g>
    </g>
    <g id="line2d_19">
     <path d="M 342.860625 50.094688 
L 352.860625 50.094688 
L 362.860625 50.094688 
" style="fill: none; stroke: #000000; stroke-opacity: 0.9; stroke-width: 1.5; stroke-linecap: square"/>
    </g>
    <g id="text_17">
     <!-- 65cm -->
     <g transform="translate(370.860625 53.594688) scale(0.1 -0.1)">
      <use xlink:href="#DejaVuSans-36"/>
      <use xlink:href="#DejaVuSans-35" transform="translate(63.623047 0)"/>
      <use xlink:href="#DejaVuSans-63" transform="translate(127.246094 0)"/>
      <use xlink:href="#DejaVuSans-6d" transform="translate(182.226562 0)"/>
     </g>
    </g>
    <g id="line2d_20">
     <path d="M 342.860625 64.772812 
L 352.860625 64.772812 
L 362.860625 64.772812 
" style="fill: none; stroke: #ff00ff; stroke-opacity: 0.9; stroke-width: 1.5; stroke-linecap: square"/>
    </g>
    <g id="text_18">
     <!-- 40cm -->
     <g transform="translate(370.860625 68.272812) scale(0.1 -0.1)">
      <use xlink:href="#DejaVuSans-34"/>
      <use xlink:href="#DejaVuSans-30" transform="translate(63.623047 0)"/>
      <use xlink:href="#DejaVuSans-63" transform="translate(127.246094 0)"/>
      <use xlink:href="#DejaVuSans-6d" transform="translate(182.226562 0)"/>
     </g>
    </g>
    <g id="line2d_21">
     <path d="M 342.860625 79.450938 
L 352.860625 79.450938 
L 362.860625 79.450938 
" style="fill: none; stroke: #ffff00; stroke-opacity: 0.9; stroke-width: 1.5; stroke-linecap: square"/>
    </g>
    <g id="text_19">
     <!-- driver -->
     <g transform="translate(370.860625 82.950938) scale(0.1 -0.1)">
      <use xlink:href="#DejaVuSans-64"/>
      <use xlink:href="#DejaVuSans-72" transform="translate(63.476562 0)"/>
      <use xlink:href="#DejaVuSans-69" transform="translate(104.589844 0)"/>
      <use xlink:href="#DejaVuSans-76" transform="translate(132.373047 0)"/>
      <use xlink:href="#DejaVuSans-65" transform="translate(191.552734 0)"/>
      <use xlink:href="#DejaVuSans-72" transform="translate(253.076172 0)"/>
     </g>
    </g>
   </g>
  </g>
 </g>
 <defs>
  <clipPath id="pd32d7790df">
   <rect x="52.160938" y="22.318125" width="357.12" height="266.112"/>
  </clipPath>
 </defs>
</svg>
