<?xml version="1.0" encoding="utf-8" standalone="no"?>
<!DOCTYPE svg PUBLIC "-//W3C//DTD SVG 1.1//EN"
  "http://www.w3.org/Graphics/SVG/1.1/DTD/svg11.dtd">
<svg xmlns:xlink="http://www.w3.org/1999/xlink" width="459.723437pt" height="341.48425pt" viewBox="0 0 459.723437 341.48425" xmlns="http://www.w3.org/2000/svg" version="1.1">
 <metadata>
  <rdf:RDF xmlns:dc="http://purl.org/dc/elements/1.1/" xmlns:cc="http://creativecommons.org/ns#" xmlns:rdf="http://www.w3.org/1999/02/22-rdf-syntax-ns#">
   <cc:Work>
    <dc:type rdf:resource="http://purl.org/dc/dcmitype/StillImage"/>
    <dc:date>2026-05-22T20:06:49.574344</dc:date>
    <dc:format>image/svg+xml</dc:format>
    <dc:creator>
     <cc:Agent>
      <dc:title>Matplotlib v3.10.9, https://matplotlib.org/</dc:title>
     </cc:Agent>
    </dc:creator>
   </cc:Work>
  </rdf:RDF>
 </metadata>
 <defs>
  <style type="text/css">*{stroke-linejoin: round; stroke-linecap: butt}</style>
 </defs>
 <g id="figure_1">
  <g id="patch_1">
   <path d="M 0 341.48425 
L 459.723437 341.48425 
L 459.723437 0 
L 0 0 
z
" style="fill: #ffffff"/>
  </g>
  <g id="axes_1">
   <g id="patch_2">
    <path d="M 58.523438 162.238 
L 248.373437 162.238 
L 248.373437 50.928 
L 58.523438 50.928 
z
" style="fill: #ffffff"/>
   </g>
   <g id="matplotlib.axis_1">
    <g id="xtick_1">
     <g id="line2d_1">
      <defs>
       <path id="mddb7ade06f" d="M 0 0 
L 0 3.5 
" style="stroke: #000000; stroke-width: 0.8"/>
      </defs>
      <g>
       <use xlink:href="#mddb7ade06f" x="67.152983" y="162.238" style="stroke: #000000; stroke-width: 0.8"/>
      </g>
     </g>
    </g>
    <g id="xtick_2">
     <g id="line2d_2">
      <g>
       <use xlink:href="#mddb7ade06f" x="98.879253" y="162.238" style="stroke: #000000; stroke-width: 0.8"/>
      </g>
     </g>
    </g>
    <g id="xtick_3">
     <g id="line2d_3">
      <g>
       <use xlink:href="#mddb7ade06f" x="130.605523" y="162.238" style="stroke: #000000; stroke-width: 0.8"/>
      </g>
     </g>
    </g>
    <g id="xtick_4">
     <g id="line2d_4">
      <g>
       <use xlink:href="#mddb7ade06f" x="162.331793" y="162.238" style="stroke: #000000; stroke-width: 0.8"/>
      </g>
     </g>
    </g>
    <g id="xtick_5">
     <g id="line2d_5">
      <g>
       <use xlink:href="#mddb7ade06f" x="194.058063" y="162.238" style="stroke: #000000; stroke-width: 0.8"/>
      </g>
     </g>
    </g>
    <g id="xtick_6">
     <g id="line2d_6">
      <g>
       <use xlink:href="#mddb7ade06f" x="225.784333" y="162.238" style="stroke: #000000; stroke-width: 0.8"/>
      </g>
     </g>
    </g>
   </g>
   <g id="matplotlib.axis_2">
    <g id="ytick_1">
     <g id="line2d_7">
      <defs>
       <path id="m48ee8194c8" d="M 0 0 
L -3.5 0 
" style="stroke: #000000; stroke-width: 0.8"/>
      </defs>
      <g>
       <use xlink:href="#m48ee8194c8" x="58.523438" y="138.863919" style="stroke: #000000; stroke-width: 0.8"/>
      </g>
     </g>
     <g id="text_1">
      <!-- −0.25 -->
      <g transform="translate(20.878125 142.663138) scale(0.1 -0.1)">
       <defs>
        <path id="DejaVuSans-2212" d="M 678 2272 
L 4684 2272 
L 4684 1741 
L 678 1741 
L 678 2272 
z
" transform="scale(0.015625)"/>
        <path id="DejaVuSans-30" d="M 2034 4250 
Q 1547 4250 1301 3770 
Q 1056 3291 1056 2328 
Q 1056 1369 1301 889 
Q 1547 409 2034 409 
Q 2525 409 2770 889 
Q 3016 1369 3016 2328 
Q 3016 3291 2770 3770 
Q 2525 4250 2034 4250 
z
M 2034 4750 
Q 2819 4750 3233 4129 
Q 3647 3509 3647 2328 
Q 3647 1150 3233 529 
Q 2819 -91 2034 -91 
Q 1250 -91 836 529 
Q 422 1150 422 2328 
Q 422 3509 836 4129 
Q 1250 4750 2034 4750 
z
" transform="scale(0.015625)"/>
        <path id="DejaVuSans-2e" d="M 684 794 
L 1344 794 
L 1344 0 
L 684 0 
L 684 794 
z
" transform="scale(0.015625)"/>
        <path id="DejaVuSans-32" d="M 1228 531 
L 3431 531 
L 3431 0 
L 469 0 
L 469 531 
Q 828 903 1448 1529 
Q 2069 2156 2228 2338 
Q 2531 2678 2651 2914 
Q 2772 3150 2772 3378 
Q 2772 3750 2511 3984 
Q 2250 4219 1831 4219 
Q 1534 4219 1204 4116 
Q 875 4013 500 3803 
L 500 4441 
Q 881 4594 1212 4672 
Q 1544 4750 1819 4750 
Q 2544 4750 2975 4387 
Q 3406 4025 3406 3419 
Q 3406 3131 3298 2873 
Q 3191 2616 2906 2266 
Q 2828 2175 2409 1742 
Q 1991 1309 1228 531 
z
" transform="scale(0.015625)"/>
        <path id="DejaVuSans-35" d="M 691 4666 
L 3169 4666 
L 3169 4134 
L 1269 4134 
L 1269 2991 
Q 1406 3038 1543 3061 
Q 1681 3084 1819 3084 
Q 2600 3084 3056 2656 
Q 3513 2228 3513 1497 
Q 3513 744 3044 326 
Q 2575 -91 1722 -91 
Q 1428 -91 1123 -41 
Q 819 9 494 109 
L 494 744 
Q 775 591 1075 516 
Q 1375 441 1709 441 
Q 2250 441 2565 725 
Q 2881 1009 2881 1497 
Q 2881 1984 2565 2268 
Q 2250 2553 1709 2553 
Q 1456 2553 1204 2497 
Q 953 2441 691 2322 
L 691 4666 
z
" transform="scale(0.015625)"/>
       </defs>
       <use xlink:href="#DejaVuSans-2212"/>
       <use xlink:href="#DejaVuSans-30" transform="translate(83.789062 0)"/>
       <use xlink:href="#DejaVuSans-2e" transform="translate(147.412109 0)"/>
       <use xlink:href="#DejaVuSans-32" transform="translate(179.199219 0)"/>
       <use xlink:href="#DejaVuSans-35" transform="translate(242.822266 0)"/>
      </g>
     </g>
    </g>
    <g id="ytick_2">
     <g id="line2d_8">
      <g>
       <use xlink:href="#m48ee8194c8" x="58.523438" y="115.15318" style="stroke: #000000; stroke-width: 0.8"/>
      </g>
     </g>
     <g id="text_2">
      <!-- 0.00 -->
      <g transform="translate(29.257813 118.952399) scale(0.1 -0.1)">
       <use xlink:href="#DejaVuSans-30"/>
       <use xlink:href="#DejaVuSans-2e" transform="translate(63.623047 0)"/>
       <use xlink:href="#DejaVuSans-30" transform="translate(95.410156 0)"/>
       <use xlink:href="#DejaVuSans-30" transform="translate(159.033203 0)"/>
      </g>
     </g>
    </g>
    <g id="ytick_3">
     <g id="line2d_9">
      <g>
       <use xlink:href="#m48ee8194c8" x="58.523438" y="91.442441" style="stroke: #000000; stroke-width: 0.8"/>
      </g>
     </g>
     <g id="text_3">
      <!-- 0.25 -->
      <g transform="translate(29.257813 95.24166) scale(0.1 -0.1)">
       <use xlink:href="#DejaVuSans-30"/>
       <use xlink:href="#DejaVuSans-2e" transform="translate(63.623047 0)"/>
       <use xlink:href="#DejaVuSans-32" transform="translate(95.410156 0)"/>
       <use xlink:href="#DejaVuSans-35" transform="translate(159.033203 0)"/>
      </g>
     </g>
    </g>
    <g id="ytick_4">
     <g id="line2d_10">
      <g>
       <use xlink:href="#m48ee8194c8" x="58.523438" y="67.731702" style="stroke: #000000; stroke-width: 0.8"/>
      </g>
     </g>
     <g id="text_4">
      <!-- 0.50 -->
      <g transform="translate(29.257813 71.530921) scale(0.1 -0.1)">
       <use xlink:href="#DejaVuSans-30"/>
       <use xlink:href="#DejaVuSans-2e" transform="translate(63.623047 0)"/>
       <use xlink:href="#DejaVuSans-35" transform="translate(95.410156 0)"/>
       <use xlink:href="#DejaVuSans-30" transform="translate(159.033203 0)"/>
      </g>
     </g>
    </g>
    <g id="text_5">
     <!-- Amplitude -->
     <g transform="translate(14.798438 132.205656) rotate(-90) scale(0.1 -0.1)">
      <defs>
       <path id="DejaVuSans-41" d="M 2188 4044 
L 1331 1722 
L 3047 1722 
L 2188 4044 
z
M 1831 4666 
L 2547 4666 
L 4325 0 
L 3669 0 
L 3244 1197 
L 1141 1197 
L 716 0 
L 50 0 
L 1831 4666 
z
" transform="scale(0.015625)"/>
       <path id="DejaVuSans-6d" d="M 3328 2828 
Q 3544 3216 3844 3400 
Q 4144 3584 4550 3584 
Q 5097 3584 5394 3201 
Q 5691 2819 5691 2113 
L 5691 0 
L 5113 0 
L 5113 2094 
Q 5113 2597 4934 2840 
Q 4756 3084 4391 3084 
Q 3944 3084 3684 2787 
Q 3425 2491 3425 1978 
L 3425 0 
L 2847 0 
L 2847 2094 
Q 2847 2600 2669 2842 
Q 2491 3084 2119 3084 
Q 1678 3084 1418 2786 
Q 1159 2488 1159 1978 
L 1159 0 
L 581 0 
L 581 3500 
L 1159 3500 
L 1159 2956 
Q 1356 3278 1631 3431 
Q 1906 3584 2284 3584 
Q 2666 3584 2933 3390 
Q 3200 3197 3328 2828 
z
" transform="scale(0.015625)"/>
       <path id="DejaVuSans-70" d="M 1159 525 
L 1159 -1331 
L 581 -1331 
L 581 3500 
L 1159 3500 
L 1159 2969 
Q 1341 3281 1617 3432 
Q 1894 3584 2278 3584 
Q 2916 3584 3314 3078 
Q 3713 2572 3713 1747 
Q 3713 922 3314 415 
Q 2916 -91 2278 -91 
Q 1894 -91 1617 61 
Q 1341 213 1159 525 
z
M 3116 1747 
Q 3116 2381 2855 2742 
Q 2594 3103 2138 3103 
Q 1681 3103 1420 2742 
Q 1159 2381 1159 1747 
Q 1159 1113 1420 752 
Q 1681 391 2138 391 
Q 2594 391 2855 752 
Q 3116 1113 3116 1747 
z
" transform="scale(0.015625)"/>
       <path id="DejaVuSans-6c" d="M 603 4863 
L 1178 4863 
L 1178 0 
L 603 0 
L 603 4863 
z
" transform="scale(0.015625)"/>
       <path id="DejaVuSans-69" d="M 603 3500 
L 1178 3500 
L 1178 0 
L 603 0 
L 603 3500 
z
M 603 4863 
L 1178 4863 
L 1178 4134 
L 603 4134 
L 603 4863 
z
" transform="scale(0.015625)"/>
       <path id="DejaVuSans-74" d="M 1172 4494 
L 1172 3500 
L 2356 3500 
L 2356 3053 
L 1172 3053 
L 1172 1153 
Q 1172 725 1289 603 
Q 1406 481 1766 481 
L 2356 481 
L 2356 0 
L 1766 0 
Q 1100 0 847 248 
Q 594 497 594 1153 
L 594 3053 
L 172 3053 
L 172 3500 
L 594 3500 
L 594 4494 
L 1172 4494 
z
" transform="scale(0.015625)"/>
       <path id="DejaVuSans-75" d="M 544 1381 
L 544 3500 
L 1119 3500 
L 1119 1403 
Q 1119 906 1312 657 
Q 1506 409 1894 409 
Q 2359 409 2629 706 
Q 2900 1003 2900 1516 
L 2900 3500 
L 3475 3500 
L 3475 0 
L 2900 0 
L 2900 538 
Q 2691 219 2414 64 
Q 2138 -91 1772 -91 
Q 1169 -91 856 284 
Q 544 659 544 1381 
z
M 1991 3584 
L 1991 3584 
z
" transform="scale(0.015625)"/>
       <path id="DejaVuSans-64" d="M 2906 2969 
L 2906 4863 
L 3481 4863 
L 3481 0 
L 2906 0 
L 2906 525 
Q 2725 213 2448 61 
Q 2172 -91 1784 -91 
Q 1150 -91 751 415 
Q 353 922 353 1747 
Q 353 2572 751 3078 
Q 1150 3584 1784 3584 
Q 2172 3584 2448 3432 
Q 2725 3281 2906 2969 
z
M 947 1747 
Q 947 1113 1208 752 
Q 1469 391 1925 391 
Q 2381 391 2643 752 
Q 2906 1113 2906 1747 
Q 2906 2381 2643 2742 
Q 2381 3103 1925 3103 
Q 1469 3103 1208 2742 
Q 947 2381 947 1747 
z
" transform="scale(0.015625)"/>
       <path id="DejaVuSans-65" d="M 3597 1894 
L 3597 1613 
L 953 1613 
Q 991 1019 1311 708 
Q 1631 397 2203 397 
Q 2534 397 2845 478 
Q 3156 559 3463 722 
L 3463 178 
Q 3153 47 2828 -22 
Q 2503 -91 2169 -91 
Q 1331 -91 842 396 
Q 353 884 353 1716 
Q 353 2575 817 3079 
Q 1281 3584 2069 3584 
Q 2775 3584 3186 3129 
Q 3597 2675 3597 1894 
z
M 3022 2063 
Q 3016 2534 2758 2815 
Q 2500 3097 2075 3097 
Q 1594 3097 1305 2825 
Q 1016 2553 972 2059 
L 3022 2063 
z
" transform="scale(0.015625)"/>
      </defs>
      <use xlink:href="#DejaVuSans-41"/>
      <use xlink:href="#DejaVuSans-6d" transform="translate(68.408203 0)"/>
      <use xlink:href="#DejaVuSans-70" transform="translate(165.820312 0)"/>
      <use xlink:href="#DejaVuSans-6c" transform="translate(229.296875 0)"/>
      <use xlink:href="#DejaVuSans-69" transform="translate(257.080078 0)"/>
      <use xlink:href="#DejaVuSans-74" transform="translate(284.863281 0)"/>
      <use xlink:href="#DejaVuSans-75" transform="translate(324.072266 0)"/>
      <use xlink:href="#DejaVuSans-64" transform="translate(387.451172 0)"/>
      <use xlink:href="#DejaVuSans-65" transform="translate(450.927734 0)"/>
     </g>
    </g>
   </g>
   <g id="line2d_11">
    <path d="M 67.152983 108.926565 
L 67.364491 108.832873 
L 67.787508 108.408223 
L 69.268067 108.280069 
L 70.114102 108.409856 
L 70.748627 109.276462 
L 71.171644 109.482832 
L 71.594661 110.540675 
L 72.017678 111.930346 
L 72.229186 111.952634 
L 72.652203 113.529523 
L 73.07522 115.432484 
L 73.286729 115.457209 
L 73.709743 116.896269 
L 74.132762 117.959513 
L 74.344269 117.934304 
L 74.555781 118.356922 
L 74.978794 118.447294 
L 75.401813 118.432346 
L 75.824832 117.726364 
L 76.247845 115.92071 
L 76.459358 116.003021 
L 77.305389 110.190817 
L 77.516896 110.215046 
L 78.362934 103.98951 
L 78.57444 103.971755 
L 79.208966 100.553321 
L 79.420472 99.983495 
L 79.631985 99.939678 
L 79.843491 99.609672 
L 80.054997 99.553876 
L 80.478016 100.37808 
L 80.689523 100.42055 
L 81.112542 103.023696 
L 81.535561 106.698292 
L 81.747067 106.713096 
L 82.381593 113.496932 
L 82.593099 116.726091 
L 82.804612 116.815148 
L 83.650643 124.115206 
L 83.86215 124.131589 
L 84.285169 126.170119 
L 84.496675 126.294506 
L 85.131201 126.156253 
L 85.342713 125.251318 
L 85.765726 121.942302 
L 85.977239 121.977608 
L 86.611764 115.304682 
L 86.82327 111.566023 
L 87.034777 111.555857 
L 87.246289 109.405068 
L 87.669302 103.569887 
L 87.880815 101.008719 
L 88.092321 101.006832 
L 88.51534 95.829402 
L 88.938353 93.155172 
L 89.149866 93.099253 
L 89.361372 92.716827 
L 89.572878 92.738679 
L 89.784391 93.107779 
L 89.995897 94.090646 
L 90.207404 94.122713 
L 90.418916 95.553523 
L 90.841929 100.584781 
L 91.053442 103.632948 
L 91.264948 103.66564 
L 91.687967 110.464175 
L 91.899474 116.709267 
L 92.11098 119.355277 
L 92.322493 119.354521 
L 93.168524 130.051567 
L 93.380031 130.029706 
L 93.80305 132.583011 
L 94.014556 132.742622 
L 94.226069 132.536984 
L 94.437575 132.570862 
L 94.860594 130.074604 
L 95.283607 125.240668 
L 95.49512 125.239103 
L 95.918132 118.349818 
L 96.341151 109.011476 
L 96.552658 108.989839 
L 97.187183 96.827529 
L 97.398696 94.69913 
L 97.610202 94.721134 
L 98.244728 87.983775 
L 98.456234 87.060042 
L 98.879253 87.062461 
L 99.090759 87.232552 
L 99.302272 88.374964 
L 99.513778 90.235033 
L 99.725285 90.255889 
L 100.148304 95.764245 
L 100.571323 103.732836 
L 100.782829 103.713659 
L 101.628861 121.440307 
L 101.840374 121.497727 
L 102.263386 129.894242 
L 102.686405 135.63336 
L 102.897912 135.677756 
L 103.109424 137.110093 
L 103.320931 137.517548 
L 103.532437 137.526027 
L 103.74395 136.945588 
L 103.955456 137.00311 
L 104.166963 135.727283 
L 104.589982 130.384703 
L 104.801488 126.779343 
L 105.013001 126.840517 
L 105.647526 112.219459 
L 105.859032 106.859421 
L 106.070539 106.832728 
L 106.916577 89.487026 
L 107.128083 89.460897 
L 107.762609 83.502018 
L 107.974115 83.19871 
L 108.185628 83.167839 
L 108.397134 83.564197 
L 108.60864 84.295645 
L 109.031659 88.912742 
L 109.243166 88.924949 
L 109.666185 96.352366 
L 110.089204 106.800221 
L 110.30071 106.788238 
L 111.146742 127.780894 
L 111.358255 127.819182 
L 111.781267 135.762507 
L 112.204286 139.826281 
L 112.415793 139.885274 
L 112.627305 140.91009 
L 112.838812 141.133758 
L 113.050318 140.783636 
L 113.261831 139.590189 
L 113.473337 139.605316 
L 113.896356 134.511747 
L 114.319369 125.630605 
L 114.530882 125.66251 
L 114.953894 114.739627 
L 115.376913 102.198268 
L 115.58842 102.142178 
L 116.222945 88.57329 
L 116.434458 85.491586 
L 116.645964 85.493085 
L 117.068983 81.64947 
L 117.28049 80.889578 
L 117.703509 80.850342 
L 117.915015 81.486539 
L 118.338034 86.0313 
L 118.54954 89.211877 
L 118.761047 89.231946 
L 119.184066 99.52768 
L 119.607085 111.882218 
L 119.818591 111.722792 
L 120.664623 133.233852 
L 120.876136 133.174101 
L 121.299148 139.619723 
L 121.510661 142.078327 
L 121.722167 143.129424 
L 121.933674 143.170586 
L 122.145186 143.535855 
L 122.356693 143.20491 
L 122.568199 142.104257 
L 122.779712 139.876102 
L 122.991218 139.889352 
L 123.414237 133.511666 
L 123.83725 124.067334 
L 124.048763 124.085925 
L 124.894794 98.893323 
L 125.106301 98.904277 
L 125.740826 84.66429 
L 125.952339 81.904 
L 126.163845 81.864308 
L 126.586864 79.311515 
L 126.798371 79.166566 
L 127.009877 79.741552 
L 127.22139 79.75813 
L 127.644402 83.227144 
L 128.067421 91.109467 
L 128.278928 91.08678 
L 128.701947 101.483778 
L 129.124966 115.290989 
L 129.336472 115.272379 
L 130.182504 135.992264 
L 130.394017 135.987162 
L 130.81701 141.664793 
L 131.028561 143.193605 
L 131.240048 143.745259 
L 131.663087 143.750295 
L 131.874574 142.882852 
L 132.720587 135.389613 
L 133.143625 125.919667 
L 133.355112 120.179949 
L 133.566663 120.168065 
L 134.412675 95.522974 
L 134.624163 95.501568 
L 135.258688 83.361774 
L 135.470239 80.884409 
L 135.681726 80.869889 
L 135.893214 79.368079 
L 136.104764 79.077025 
L 136.316252 79.290251 
L 136.527739 80.337137 
L 136.73929 80.34077 
L 136.950777 81.831445 
L 137.585302 92.781586 
L 137.79679 92.716533 
L 138.219828 103.151933 
L 138.642866 117.722077 
L 138.854353 117.680265 
L 139.277391 129.341819 
L 139.700366 137.9554 
L 139.911917 138.031473 
L 140.334891 142.276388 
L 140.546442 143.242496 
L 140.757929 143.492559 
L 140.969417 143.556569 
L 141.180968 142.99377 
L 141.392455 141.732691 
L 141.815493 136.667527 
L 142.02698 136.677732 
L 142.450018 128.802239 
L 142.872993 117.894382 
L 143.084544 117.847597 
L 143.930556 93.691168 
L 144.142044 93.664526 
L 144.776569 83.389961 
L 144.98812 81.660908 
L 145.199607 81.601384 
L 145.411095 80.719165 
L 145.622645 80.501358 
L 145.834133 80.922451 
L 146.04562 82.301259 
L 146.257171 82.357083 
L 146.891696 91.830463 
L 147.103183 96.899487 
L 147.314671 96.835297 
L 147.737709 107.992682 
L 148.160747 119.994447 
L 148.372234 119.945359 
L 149.00676 133.870409 
L 149.218247 136.686515 
L 149.429798 136.766012 
L 149.852772 140.192214 
L 150.064323 140.790056 
L 150.487298 140.70797 
L 150.698849 139.898267 
L 150.910336 138.477026 
L 151.333374 132.881377 
L 151.544861 132.835625 
L 151.967899 124.483857 
L 152.390874 112.687299 
L 152.602425 112.620612 
L 153.448438 93.504156 
L 153.659925 93.500239 
L 154.082963 87.687941 
L 154.29445 85.542669 
L 154.506001 84.535712 
L 154.717488 84.537134 
L 154.928976 84.116221 
L 155.140526 84.36764 
L 155.352014 85.477075 
L 155.563501 87.249832 
L 155.775052 87.230892 
L 155.986539 89.578189 
L 156.621065 100.900996 
L 156.832552 100.828745 
L 157.678628 120.564788 
L 157.890115 120.525392 
L 158.524641 131.635037 
L 158.736128 133.659697 
L 158.947679 133.674919 
L 159.370653 136.174609 
L 159.582204 136.409222 
L 159.793692 135.759463 
L 160.005179 135.720776 
L 160.428217 132.116716 
L 160.851255 126.735668 
L 161.062742 126.749382 
L 161.697268 116.115232 
L 161.908755 111.083584 
L 162.120306 111.067467 
L 162.966319 95.806554 
L 163.177806 95.826177 
L 163.600844 91.053813 
L 164.023882 89.147716 
L 164.235369 89.25394 
L 164.446857 88.983182 
L 164.658407 89.378165 
L 165.081382 92.735075 
L 165.292933 92.647421 
L 165.927458 101.495861 
L 166.138946 105.716216 
L 166.350433 105.732197 
L 166.773471 112.138266 
L 167.196509 119.880093 
L 167.407996 119.892519 
L 168.042522 127.967678 
L 168.254009 129.791897 
L 168.46556 129.726256 
L 168.888534 131.420578 
L 169.100085 131.505747 
L 169.311573 131.10385 
L 169.52306 131.009291 
L 169.946098 128.480901 
L 170.369136 124.537845 
L 170.580623 124.464233 
L 171.215149 115.481892 
L 171.426636 112.135945 
L 171.638187 112.068615 
L 172.4842 100.99528 
L 172.695687 101.017416 
L 173.118725 97.106093 
L 173.541763 95.545926 
L 173.964738 95.48829 
L 174.176288 95.940454 
L 174.387776 96.684696 
L 174.599263 98.119167 
L 174.810814 98.119622 
L 175.233788 101.766353 
L 175.656827 106.096115 
L 175.868314 106.059299 
L 176.71439 116.507661 
L 176.925877 116.515261 
L 177.560403 121.287834 
L 177.77189 122.274153 
L 177.983441 122.311428 
L 178.406415 123.426935 
L 178.617966 123.407969 
L 178.829454 123.001908 
L 179.040941 122.957922 
L 179.463979 121.370937 
L 179.887017 118.785143 
L 180.098504 118.749556 
L 180.521542 115.068452 
L 180.944517 111.351721 
L 181.156068 111.351822 
L 182.002081 105.1737 
L 182.213568 105.247583 
L 182.636606 103.283262 
L 183.059644 102.404125 
L 183.482619 102.336321 
L 183.694169 102.464653 
L 184.117144 103.484841 
L 184.328695 103.456417 
L 184.540182 104.059627 
L 185.174708 107.266622 
L 185.386195 107.347178 
L 186.232271 111.944416 
L 186.443758 111.886801 
L 187.289771 115.453177 
L 187.501322 115.506476 
L 187.924296 116.343796 
L 188.135847 116.4324 
L 189.404898 116.247227 
L 190.250911 114.213083 
L 190.462398 114.19042 
L 191.519962 111.790889 
L 192.365974 109.791921 
L 192.577525 109.75566 
L 193.21205 108.557637 
L 193.423538 108.224005 
L 193.846576 108.017563 
L 194.481101 107.173538 
L 195.750152 107.055657 
L 196.173127 107.166619 
L 196.596165 107.70043 
L 196.807652 107.681788 
L 197.442177 109.263814 
L 197.653728 109.798078 
L 197.865216 109.77113 
L 198.288254 110.932562 
L 198.711228 112.858026 
L 198.922779 112.869411 
L 199.768792 116.432677 
L 199.980279 116.526518 
L 200.614804 118.007993 
L 201.037843 118.134304 
L 201.460881 118.135663 
L 202.095406 117.559653 
L 202.518381 115.96068 
L 202.941419 113.800843 
L 203.152906 113.874065 
L 203.998982 108.217245 
L 204.21047 108.134568 
L 204.633508 105.568417 
L 205.056482 103.461557 
L 205.268033 103.479757 
L 205.691008 102.397817 
L 205.902558 102.093846 
L 206.325533 102.18444 
L 206.537084 102.532343 
L 206.960059 104.238748 
L 207.171609 105.407943 
L 207.383097 105.32727 
L 208.017622 110.67141 
L 208.229109 112.278115 
L 208.44066 112.299992 
L 209.286673 119.707595 
L 209.49816 119.703947 
L 209.921198 122.35245 
L 210.344236 123.784773 
L 210.978762 123.924245 
L 211.190249 123.413488 
L 211.401736 122.404122 
L 211.613287 122.379738 
L 212.036262 119.646378 
L 212.4593 115.60707 
L 212.670787 115.551095 
L 213.516863 105.470208 
L 213.728351 105.517695 
L 214.574363 97.84748 
L 214.785914 97.90946 
L 215.208889 96.174232 
L 215.420439 95.885265 
L 215.843414 95.864788 
L 216.054965 96.462431 
L 216.266452 97.558513 
L 216.68949 101.238334 
L 216.900978 101.229532 
L 217.535503 109.283421 
L 217.74699 112.248754 
L 217.958541 112.329356 
L 218.593066 120.878842 
L 218.804554 123.404819 
L 219.016041 123.399219 
L 219.439079 127.152009 
L 219.862117 129.217243 
L 220.073605 129.207474 
L 220.285092 129.415361 
L 220.496643 129.281945 
L 220.70813 128.502516 
L 220.919617 126.971314 
L 221.131168 127.026247 
L 221.554143 122.942754 
L 221.977181 117.089927 
L 222.188668 117.117587 
L 222.823194 105.669688 
L 223.034744 102.461903 
L 223.246232 102.455264 
L 223.880757 94.560603 
L 224.092244 92.87714 
L 224.303795 92.919023 
L 224.72677 91.230619 
L 224.938321 91.098986 
L 225.149808 91.514588 
L 225.361295 91.597244 
L 225.572846 92.477424 
L 225.784333 93.906907 
L 226.207371 98.748811 
L 226.418859 98.756275 
L 227.264871 112.948823 
L 227.476422 112.913589 
L 228.110948 124.097697 
L 228.322435 127.108467 
L 228.533922 127.092315 
L 228.95696 131.389033 
L 229.379998 132.912325 
L 229.802973 132.857847 
L 230.014524 132.209823 
L 230.860536 126.012395 
L 231.495062 115.569602 
L 231.706549 115.555219 
L 232.552625 98.599727 
L 232.764113 98.633681 
L 233.398638 89.57155 
L 233.610125 87.728818 
L 233.821676 87.694428 
L 234.033163 86.79304 
L 234.244651 86.528002 
L 234.456202 86.53575 
L 234.667689 87.444924 
L 234.879176 87.409501 
L 235.090727 88.93688 
L 235.513702 94.358483 
L 235.725252 97.481652 
L 235.93674 97.422309 
L 236.571265 111.235215 
L 236.782752 116.886613 
L 236.994303 116.858916 
L 237.840316 132.050705 
L 238.051803 132.058757 
L 238.474841 136.25442 
L 238.686329 137.129346 
L 239.109367 137.295672 
L 239.320854 136.912886 
L 239.743892 134.587877 
L 239.743892 134.587877 
" clip-path="url(#pf4dee27855)" style="fill: none; stroke: #0000ff; stroke-width: 1.5; stroke-linecap: square"/>
   </g>
   <g id="line2d_12">
    <path d="M 58.523438 115.15318 
L 248.373437 115.15318 
" clip-path="url(#pf4dee27855)" style="fill: none; stroke-dasharray: 3.7,1.6; stroke-dashoffset: 0; stroke: #000000"/>
   </g>
   <g id="patch_3">
    <path d="M 58.523438 162.238 
L 58.523438 50.928 
" style="fill: none; stroke: #000000; stroke-width: 0.8; stroke-linejoin: miter; stroke-linecap: square"/>
   </g>
   <g id="patch_4">
    <path d="M 248.373437 162.238 
L 248.373437 50.928 
" style="fill: none; stroke: #000000; stroke-width: 0.8; stroke-linejoin: miter; stroke-linecap: square"/>
   </g>
   <g id="patch_5">
    <path d="M 58.523438 162.238 
L 248.373437 162.238 
" style="fill: none; stroke: #000000; stroke-width: 0.8; stroke-linejoin: miter; stroke-linecap: square"/>
   </g>
   <g id="patch_6">
    <path d="M 58.523438 50.928 
L 248.373437 50.928 
" style="fill: none; stroke: #000000; stroke-width: 0.8; stroke-linejoin: miter; stroke-linecap: square"/>
   </g>
   <g id="text_6">
    <!-- 50cm -->
    <g transform="translate(136.67 44.928) scale(0.12 -0.12)">
     <defs>
      <path id="DejaVuSans-63" d="M 3122 3366 
L 3122 2828 
Q 2878 2963 2633 3030 
Q 2388 3097 2138 3097 
Q 1578 3097 1268 2742 
Q 959 2388 959 1747 
Q 959 1106 1268 751 
Q 1578 397 2138 397 
Q 2388 397 2633 464 
Q 2878 531 3122 666 
L 3122 134 
Q 2881 22 2623 -34 
Q 2366 -91 2075 -91 
Q 1284 -91 818 406 
Q 353 903 353 1747 
Q 353 2603 823 3093 
Q 1294 3584 2113 3584 
Q 2378 3584 2631 3529 
Q 2884 3475 3122 3366 
z
" transform="scale(0.015625)"/>
     </defs>
     <use xlink:href="#DejaVuSans-35"/>
     <use xlink:href="#DejaVuSans-30" transform="translate(63.623047 0)"/>
     <use xlink:href="#DejaVuSans-63" transform="translate(127.246094 0)"/>
     <use xlink:href="#DejaVuSans-6d" transform="translate(182.226562 0)"/>
    </g>
   </g>
  </g>
  <g id="axes_2">
   <g id="patch_7">
    <path d="M 262.673437 162.238 
L 452.523437 162.238 
L 452.523437 50.928 
L 262.673437 50.928 
z
" style="fill: #ffffff"/>
   </g>
   <g id="matplotlib.axis_3">
    <g id="xtick_7">
     <g id="line2d_13">
      <g>
       <use xlink:href="#mddb7ade06f" x="271.302983" y="162.238" style="stroke: #000000; stroke-width: 0.8"/>
      </g>
     </g>
    </g>
    <g id="xtick_8">
     <g id="line2d_14">
      <g>
       <use xlink:href="#mddb7ade06f" x="303.029253" y="162.238" style="stroke: #000000; stroke-width: 0.8"/>
      </g>
     </g>
    </g>
    <g id="xtick_9">
     <g id="line2d_15">
      <g>
       <use xlink:href="#mddb7ade06f" x="334.755523" y="162.238" style="stroke: #000000; stroke-width: 0.8"/>
      </g>
     </g>
    </g>
    <g id="xtick_10">
     <g id="line2d_16">
      <g>
       <use xlink:href="#mddb7ade06f" x="366.481793" y="162.238" style="stroke: #000000; stroke-width: 0.8"/>
      </g>
     </g>
    </g>
    <g id="xtick_11">
     <g id="line2d_17">
      <g>
       <use xlink:href="#mddb7ade06f" x="398.208063" y="162.238" style="stroke: #000000; stroke-width: 0.8"/>
      </g>
     </g>
    </g>
    <g id="xtick_12">
     <g id="line2d_18">
      <g>
       <use xlink:href="#mddb7ade06f" x="429.934333" y="162.238" style="stroke: #000000; stroke-width: 0.8"/>
      </g>
     </g>
    </g>
   </g>
   <g id="matplotlib.axis_4">
    <g id="ytick_5">
     <g id="line2d_19">
      <g>
       <use xlink:href="#m48ee8194c8" x="262.673437" y="138.863919" style="stroke: #000000; stroke-width: 0.8"/>
      </g>
     </g>
    </g>
    <g id="ytick_6">
     <g id="line2d_20">
      <g>
       <use xlink:href="#m48ee8194c8" x="262.673437" y="115.15318" style="stroke: #000000; stroke-width: 0.8"/>
      </g>
     </g>
    </g>
    <g id="ytick_7">
     <g id="line2d_21">
      <g>
       <use xlink:href="#m48ee8194c8" x="262.673437" y="91.442441" style="stroke: #000000; stroke-width: 0.8"/>
      </g>
     </g>
    </g>
    <g id="ytick_8">
     <g id="line2d_22">
      <g>
       <use xlink:href="#m48ee8194c8" x="262.673437" y="67.731702" style="stroke: #000000; stroke-width: 0.8"/>
      </g>
     </g>
    </g>
   </g>
   <g id="line2d_23">
    <path d="M 271.302983 110.101398 
L 271.514491 109.023031 
L 271.726 108.535782 
L 271.937508 107.553221 
L 272.149017 107.52641 
L 272.995051 101.673502 
L 273.206559 101.667678 
L 274.052593 95.789672 
L 274.264102 95.812349 
L 274.687118 94.181828 
L 274.898627 93.767763 
L 275.533153 93.663986 
L 275.744661 94.607882 
L 276.167678 97.792651 
L 276.379186 97.818411 
L 276.802203 101.45118 
L 277.22522 107.23159 
L 277.436729 107.266377 
L 278.705781 121.831116 
L 279.340307 128.489978 
L 279.551813 128.492159 
L 279.76332 129.539643 
L 279.974832 129.973037 
L 280.186339 130.00811 
L 280.397845 129.538865 
L 280.609358 129.505698 
L 281.03237 126.431146 
L 281.455389 121.049431 
L 281.666896 121.054424 
L 282.512934 108.468722 
L 282.72444 108.415229 
L 283.147459 103.904493 
L 283.358966 95.713551 
L 283.570472 91.900039 
L 283.781985 91.975601 
L 284.41651 81.171812 
L 284.628016 79.67759 
L 284.839523 79.691418 
L 285.051035 78.162995 
L 285.262542 77.861015 
L 285.474048 77.968406 
L 285.685561 78.910424 
L 285.897067 78.914616 
L 286.108574 80.417763 
L 286.531593 86.735613 
L 286.743099 90.447633 
L 286.954612 90.448743 
L 287.377624 100.797086 
L 287.800643 110.926524 
L 288.01215 110.871163 
L 288.858188 132.858691 
L 289.069694 132.896315 
L 289.492713 140.509596 
L 289.70422 142.655873 
L 289.915726 143.52693 
L 290.127239 143.482449 
L 290.338745 143.595293 
L 290.550251 143.352438 
L 290.761764 142.039963 
L 290.97327 139.980581 
L 291.184777 140.005876 
L 291.607796 133.723934 
L 291.819302 134.299061 
L 292.030815 130.03624 
L 292.242321 130.019178 
L 292.453828 125.351738 
L 292.66534 112.848843 
L 293.088353 100.903149 
L 293.299866 100.957713 
L 294.145897 77.288097 
L 294.357404 77.288097 
L 294.780423 69.896711 
L 294.991929 67.845039 
L 295.203442 67.225516 
L 295.837967 67.370246 
L 296.049474 68.863036 
L 296.26098 71.170328 
L 296.472493 71.170328 
L 296.895505 79.724101 
L 297.318524 93.264042 
L 297.530031 93.322096 
L 297.95305 108.177262 
L 298.376069 121.225252 
L 298.587575 121.27792 
L 299.433607 148.433128 
L 299.64512 148.446643 
L 300.068132 154.36692 
L 300.491151 153.335465 
L 300.702658 153.335797 
L 300.91417 154.504044 
L 301.125677 153.248314 
L 301.337183 151.320802 
L 301.548696 147.971423 
L 301.760202 147.952596 
L 302.183221 137.813733 
L 302.606234 122.976459 
L 302.817747 122.976459 
L 303.452272 95.787842 
L 303.663778 86.685413 
L 303.875285 86.678603 
L 304.086797 78.464501 
L 304.298304 77.965561 
L 304.50981 69.40715 
L 304.721323 65.43544 
L 304.932829 65.449392 
L 305.355848 60.525288 
L 305.567355 59.945029 
L 305.990374 59.960109 
L 306.624899 66.394805 
L 306.836405 70.441621 
L 307.047912 70.418859 
L 307.682437 88.045849 
L 307.89395 95.917729 
L 308.105456 95.858813 
L 308.316963 103.940087 
L 308.528475 105.002357 
L 308.739982 128.671782 
L 308.951488 137.262818 
L 309.163001 137.331162 
L 310.009032 154.268891 
L 310.220539 154.228194 
L 310.643558 157.178455 
L 310.855064 157.06286 
L 311.066577 155.936733 
L 311.278083 155.997242 
L 311.48959 153.982256 
L 311.701102 154.51626 
L 312.124115 144.622139 
L 312.335628 144.579621 
L 313.181659 109.265687 
L 313.393166 109.323877 
L 314.239204 73.64682 
L 314.45071 73.710915 
L 314.873729 62.506955 
L 315.085236 58.234252 
L 315.296742 57.160516 
L 315.508255 57.159947 
L 315.719761 56.17174 
L 316.14278 55.987545 
L 316.354286 60.15835 
L 316.565793 60.15835 
L 316.988812 67.080586 
L 317.411831 79.813111 
L 317.623337 79.824966 
L 318.469369 111.168238 
L 318.680882 111.092984 
M 319.103894 133.254556 
L 319.315407 136.689246 
L 319.526913 142.415039 
L 319.73842 142.290093 
L 319.949932 135.889834 
L 320.161439 135.904791 
L 320.372945 138.634475 
L 320.584458 135.613224 
L 322.065015 135.597708 
L 322.276521 137.043399 
L 322.488034 132.363506 
L 322.69954 132.940341 
L 323.122559 132.956019 
L 323.334066 136.262813 
L 323.545572 136.220181 
L 323.757085 135.744174 
L 324.180098 135.709367 
L 324.39161 136.90692 
L 324.814623 136.811025 
L 325.026136 135.642939 
L 325.237642 135.684025 
L 325.449148 136.032516 
L 325.872167 136.000316 
L 326.083674 136.001227 
L 326.295186 134.209492 
L 326.506693 134.169411 
L 327.141218 132.531208 
L 327.141218 132.531208 
" clip-path="url(#pa3c1e897d2)" style="fill: none; stroke: #008000; stroke-width: 1.5; stroke-linecap: square"/>
   </g>
   <g id="line2d_24">
    <path d="M 262.673437 115.15318 
L 452.523437 115.15318 
" clip-path="url(#pa3c1e897d2)" style="fill: none; stroke-dasharray: 3.7,1.6; stroke-dashoffset: 0; stroke: #000000"/>
   </g>
   <g id="patch_8">
    <path d="M 262.673437 162.238 
L 262.673437 50.928 
" style="fill: none; stroke: #000000; stroke-width: 0.8; stroke-linejoin: miter; stroke-linecap: square"/>
   </g>
   <g id="patch_9">
    <path d="M 452.523437 162.238 
L 452.523437 50.928 
" style="fill: none; stroke: #000000; stroke-width: 0.8; stroke-linejoin: miter; stroke-linecap: square"/>
   </g>
   <g id="patch_10">
    <path d="M 262.673437 162.238 
L 452.523437 162.238 
" style="fill: none; stroke: #000000; stroke-width: 0.8; stroke-linejoin: miter; stroke-linecap: square"/>
   </g>
   <g id="patch_11">
    <path d="M 262.673437 50.928 
L 452.523437 50.928 
" style="fill: none; stroke: #000000; stroke-width: 0.8; stroke-linejoin: miter; stroke-linecap: square"/>
   </g>
   <g id="text_7">
    <!-- 65cm -->
    <g transform="translate(340.82 44.928) scale(0.12 -0.12)">
     <defs>
      <path id="DejaVuSans-36" d="M 2113 2584 
Q 1688 2584 1439 2293 
Q 1191 2003 1191 1497 
Q 1191 994 1439 701 
Q 1688 409 2113 409 
Q 2538 409 2786 701 
Q 3034 994 3034 1497 
Q 3034 2003 2786 2293 
Q 2538 2584 2113 2584 
z
M 3366 4563 
L 3366 3988 
Q 3128 4100 2886 4159 
Q 2644 4219 2406 4219 
Q 1781 4219 1451 3797 
Q 1122 3375 1075 2522 
Q 1259 2794 1537 2939 
Q 1816 3084 2150 3084 
Q 2853 3084 3261 2657 
Q 3669 2231 3669 1497 
Q 3669 778 3244 343 
Q 2819 -91 2113 -91 
Q 1303 -91 875 529 
Q 447 1150 447 2328 
Q 447 3434 972 4092 
Q 1497 4750 2381 4750 
Q 2619 4750 2861 4703 
Q 3103 4656 3366 4563 
z
" transform="scale(0.015625)"/>
     </defs>
     <use xlink:href="#DejaVuSans-36"/>
     <use xlink:href="#DejaVuSans-35" transform="translate(63.623047 0)"/>
     <use xlink:href="#DejaVuSans-63" transform="translate(127.246094 0)"/>
     <use xlink:href="#DejaVuSans-6d" transform="translate(182.226562 0)"/>
    </g>
   </g>
  </g>
  <g id="axes_3">
   <g id="patch_12">
    <path d="M 58.523438 303.928 
L 248.373437 303.928 
L 248.373437 192.618 
L 58.523438 192.618 
z
" style="fill: #ffffff"/>
   </g>
   <g id="matplotlib.axis_5">
    <g id="xtick_13">
     <g id="line2d_25">
      <g>
       <use xlink:href="#mddb7ade06f" x="67.152983" y="303.928" style="stroke: #000000; stroke-width: 0.8"/>
      </g>
     </g>
     <g id="text_8">
      <!-- 0 -->
      <g transform="translate(63.971733 318.526437) scale(0.1 -0.1)">
       <use xlink:href="#DejaVuSans-30"/>
      </g>
     </g>
    </g>
    <g id="xtick_14">
     <g id="line2d_26">
      <g>
       <use xlink:href="#mddb7ade06f" x="98.879253" y="303.928" style="stroke: #000000; stroke-width: 0.8"/>
      </g>
     </g>
     <g id="text_9">
      <!-- 5 -->
      <g transform="translate(95.698003 318.526437) scale(0.1 -0.1)">
       <use xlink:href="#DejaVuSans-35"/>
      </g>
     </g>
    </g>
    <g id="xtick_15">
     <g id="line2d_27">
      <g>
       <use xlink:href="#mddb7ade06f" x="130.605523" y="303.928" style="stroke: #000000; stroke-width: 0.8"/>
      </g>
     </g>
     <g id="text_10">
      <!-- 10 -->
      <g transform="translate(124.243023 318.526437) scale(0.1 -0.1)">
       <defs>
        <path id="DejaVuSans-31" d="M 794 531 
L 1825 531 
L 1825 4091 
L 703 3866 
L 703 4441 
L 1819 4666 
L 2450 4666 
L 2450 531 
L 3481 531 
L 3481 0 
L 794 0 
L 794 531 
z
" transform="scale(0.015625)"/>
       </defs>
       <use xlink:href="#DejaVuSans-31"/>
       <use xlink:href="#DejaVuSans-30" transform="translate(63.623047 0)"/>
      </g>
     </g>
    </g>
    <g id="xtick_16">
     <g id="line2d_28">
      <g>
       <use xlink:href="#mddb7ade06f" x="162.331793" y="303.928" style="stroke: #000000; stroke-width: 0.8"/>
      </g>
     </g>
     <g id="text_11">
      <!-- 15 -->
      <g transform="translate(155.969293 318.526437) scale(0.1 -0.1)">
       <use xlink:href="#DejaVuSans-31"/>
       <use xlink:href="#DejaVuSans-35" transform="translate(63.623047 0)"/>
      </g>
     </g>
    </g>
    <g id="xtick_17">
     <g id="line2d_29">
      <g>
       <use xlink:href="#mddb7ade06f" x="194.058063" y="303.928" style="stroke: #000000; stroke-width: 0.8"/>
      </g>
     </g>
     <g id="text_12">
      <!-- 20 -->
      <g transform="translate(187.695563 318.526437) scale(0.1 -0.1)">
       <use xlink:href="#DejaVuSans-32"/>
       <use xlink:href="#DejaVuSans-30" transform="translate(63.623047 0)"/>
      </g>
     </g>
    </g>
    <g id="xtick_18">
     <g id="line2d_30">
      <g>
       <use xlink:href="#mddb7ade06f" x="225.784333" y="303.928" style="stroke: #000000; stroke-width: 0.8"/>
      </g>
     </g>
     <g id="text_13">
      <!-- 25 -->
      <g transform="translate(219.421833 318.526437) scale(0.1 -0.1)">
       <use xlink:href="#DejaVuSans-32"/>
       <use xlink:href="#DejaVuSans-35" transform="translate(63.623047 0)"/>
      </g>
     </g>
    </g>
    <g id="text_14">
     <!-- Time (s) -->
     <g transform="translate(133.119531 332.204562) scale(0.1 -0.1)">
      <defs>
       <path id="DejaVuSans-54" d="M -19 4666 
L 3928 4666 
L 3928 4134 
L 2272 4134 
L 2272 0 
L 1638 0 
L 1638 4134 
L -19 4134 
L -19 4666 
z
" transform="scale(0.015625)"/>
       <path id="DejaVuSans-20" transform="scale(0.015625)"/>
       <path id="DejaVuSans-28" d="M 1984 4856 
Q 1566 4138 1362 3434 
Q 1159 2731 1159 2009 
Q 1159 1288 1364 580 
Q 1569 -128 1984 -844 
L 1484 -844 
Q 1016 -109 783 600 
Q 550 1309 550 2009 
Q 550 2706 781 3412 
Q 1013 4119 1484 4856 
L 1984 4856 
z
" transform="scale(0.015625)"/>
       <path id="DejaVuSans-73" d="M 2834 3397 
L 2834 2853 
Q 2591 2978 2328 3040 
Q 2066 3103 1784 3103 
Q 1356 3103 1142 2972 
Q 928 2841 928 2578 
Q 928 2378 1081 2264 
Q 1234 2150 1697 2047 
L 1894 2003 
Q 2506 1872 2764 1633 
Q 3022 1394 3022 966 
Q 3022 478 2636 193 
Q 2250 -91 1575 -91 
Q 1294 -91 989 -36 
Q 684 19 347 128 
L 347 722 
Q 666 556 975 473 
Q 1284 391 1588 391 
Q 1994 391 2212 530 
Q 2431 669 2431 922 
Q 2431 1156 2273 1281 
Q 2116 1406 1581 1522 
L 1381 1569 
Q 847 1681 609 1914 
Q 372 2147 372 2553 
Q 372 3047 722 3315 
Q 1072 3584 1716 3584 
Q 2034 3584 2315 3537 
Q 2597 3491 2834 3397 
z
" transform="scale(0.015625)"/>
       <path id="DejaVuSans-29" d="M 513 4856 
L 1013 4856 
Q 1481 4119 1714 3412 
Q 1947 2706 1947 2009 
Q 1947 1309 1714 600 
Q 1481 -109 1013 -844 
L 513 -844 
Q 928 -128 1133 580 
Q 1338 1288 1338 2009 
Q 1338 2731 1133 3434 
Q 928 4138 513 4856 
z
" transform="scale(0.015625)"/>
      </defs>
      <use xlink:href="#DejaVuSans-54"/>
      <use xlink:href="#DejaVuSans-69" transform="translate(57.958984 0)"/>
      <use xlink:href="#DejaVuSans-6d" transform="translate(85.742188 0)"/>
      <use xlink:href="#DejaVuSans-65" transform="translate(183.154297 0)"/>
      <use xlink:href="#DejaVuSans-20" transform="translate(244.677734 0)"/>
      <use xlink:href="#DejaVuSans-28" transform="translate(276.464844 0)"/>
      <use xlink:href="#DejaVuSans-73" transform="translate(315.478516 0)"/>
      <use xlink:href="#DejaVuSans-29" transform="translate(367.578125 0)"/>
     </g>
    </g>
   </g>
   <g id="matplotlib.axis_6">
    <g id="ytick_9">
     <g id="line2d_31">
      <g>
       <use xlink:href="#m48ee8194c8" x="58.523438" y="280.553919" style="stroke: #000000; stroke-width: 0.8"/>
      </g>
     </g>
     <g id="text_15">
      <!-- −0.25 -->
      <g transform="translate(20.878125 284.353138) scale(0.1 -0.1)">
       <use xlink:href="#DejaVuSans-2212"/>
       <use xlink:href="#DejaVuSans-30" transform="translate(83.789062 0)"/>
       <use xlink:href="#DejaVuSans-2e" transform="translate(147.412109 0)"/>
       <use xlink:href="#DejaVuSans-32" transform="translate(179.199219 0)"/>
       <use xlink:href="#DejaVuSans-35" transform="translate(242.822266 0)"/>
      </g>
     </g>
    </g>
    <g id="ytick_10">
     <g id="line2d_32">
      <g>
       <use xlink:href="#m48ee8194c8" x="58.523438" y="256.84318" style="stroke: #000000; stroke-width: 0.8"/>
      </g>
     </g>
     <g id="text_16">
      <!-- 0.00 -->
      <g transform="translate(29.257813 260.642399) scale(0.1 -0.1)">
       <use xlink:href="#DejaVuSans-30"/>
       <use xlink:href="#DejaVuSans-2e" transform="translate(63.623047 0)"/>
       <use xlink:href="#DejaVuSans-30" transform="translate(95.410156 0)"/>
       <use xlink:href="#DejaVuSans-30" transform="translate(159.033203 0)"/>
      </g>
     </g>
    </g>
    <g id="ytick_11">
     <g id="line2d_33">
      <g>
       <use xlink:href="#m48ee8194c8" x="58.523438" y="233.132441" style="stroke: #000000; stroke-width: 0.8"/>
      </g>
     </g>
     <g id="text_17">
      <!-- 0.25 -->
      <g transform="translate(29.257813 236.93166) scale(0.1 -0.1)">
       <use xlink:href="#DejaVuSans-30"/>
       <use xlink:href="#DejaVuSans-2e" transform="translate(63.623047 0)"/>
       <use xlink:href="#DejaVuSans-32" transform="translate(95.410156 0)"/>
       <use xlink:href="#DejaVuSans-35" transform="translate(159.033203 0)"/>
      </g>
     </g>
    </g>
    <g id="ytick_12">
     <g id="line2d_34">
      <g>
       <use xlink:href="#m48ee8194c8" x="58.523438" y="209.421702" style="stroke: #000000; stroke-width: 0.8"/>
      </g>
     </g>
     <g id="text_18">
      <!-- 0.50 -->
      <g transform="translate(29.257813 213.220921) scale(0.1 -0.1)">
       <use xlink:href="#DejaVuSans-30"/>
       <use xlink:href="#DejaVuSans-2e" transform="translate(63.623047 0)"/>
       <use xlink:href="#DejaVuSans-35" transform="translate(95.410156 0)"/>
       <use xlink:href="#DejaVuSans-30" transform="translate(159.033203 0)"/>
      </g>
     </g>
    </g>
    <g id="text_19">
     <!-- Amplitude -->
     <g transform="translate(14.798438 273.895656) rotate(-90) scale(0.1 -0.1)">
      <use xlink:href="#DejaVuSans-41"/>
      <use xlink:href="#DejaVuSans-6d" transform="translate(68.408203 0)"/>
      <use xlink:href="#DejaVuSans-70" transform="translate(165.820312 0)"/>
      <use xlink:href="#DejaVuSans-6c" transform="translate(229.296875 0)"/>
      <use xlink:href="#DejaVuSans-69" transform="translate(257.080078 0)"/>
      <use xlink:href="#DejaVuSans-74" transform="translate(284.863281 0)"/>
      <use xlink:href="#DejaVuSans-75" transform="translate(324.072266 0)"/>
      <use xlink:href="#DejaVuSans-64" transform="translate(387.451172 0)"/>
      <use xlink:href="#DejaVuSans-65" transform="translate(450.927734 0)"/>
     </g>
    </g>
   </g>
   <g id="line2d_35">
    <path d="M 68.210526 253.146311 
L 68.633542 250.522178 
L 68.845051 249.59561 
L 69.056559 249.534219 
L 69.691085 246.822254 
L 69.902593 246.438889 
L 70.537118 246.331347 
L 71.383153 248.16673 
L 71.806169 250.495866 
L 72.017678 252.001704 
L 72.229186 252.065058 
L 73.07522 258.523909 
L 73.286729 258.463218 
L 74.132762 262.848578 
L 74.344269 262.867206 
L 74.767288 263.802692 
L 74.978794 263.771764 
L 75.190307 263.182074 
L 75.401813 263.15554 
L 75.61332 262.622248 
L 76.036339 260.028187 
L 76.247845 258.469679 
L 76.459358 258.431146 
L 77.093883 252.86254 
L 77.305389 250.663714 
L 77.516896 250.597701 
L 78.151421 245.187872 
L 78.362934 244.022442 
L 78.57444 243.997669 
L 78.997459 242.456215 
L 79.208966 242.135105 
L 79.420472 242.240694 
L 79.631985 242.176476 
L 79.843491 242.600737 
L 80.26651 244.508768 
L 80.478016 246.06185 
L 80.689523 246.088975 
L 81.535561 254.634927 
L 81.747067 254.682612 
L 82.593099 263.546717 
L 82.804612 263.62427 
L 83.227624 266.366352 
L 83.650643 267.495827 
L 84.073662 267.543382 
L 84.285169 267.143192 
L 84.496675 266.353311 
L 84.708188 265.12902 
L 84.919694 265.201107 
L 85.342713 261.812946 
L 85.765726 257.163384 
L 85.977239 257.126425 
L 86.82327 247.493061 
L 87.034777 247.439602 
L 87.457796 243.572232 
L 87.880815 241.22283 
L 88.092321 241.28389 
L 88.303828 240.74191 
L 88.51534 240.709217 
L 88.726847 241.263536 
L 88.938353 242.271717 
L 89.149866 242.32684 
L 89.572878 245.361388 
L 89.995897 249.606491 
L 90.207404 249.536417 
L 91.053442 259.883902 
L 91.264948 259.947536 
L 91.899474 266.373313 
L 92.11098 267.695197 
L 92.322493 267.632458 
L 92.745505 269.037291 
L 92.957018 269.067309 
L 93.168524 268.881388 
L 93.380031 268.927074 
L 93.80305 267.218279 
L 94.226069 263.981395 
L 94.437575 263.956581 
L 95.072101 256.874562 
L 95.283607 254.253752 
L 95.49512 254.236516 
L 96.341151 245.310153 
L 96.552658 245.292958 
L 96.975677 242.598053 
L 97.187183 241.831409 
L 97.398696 241.57962 
L 97.610202 241.575361 
L 97.821709 241.825215 
L 98.244728 243.790893 
L 98.456234 245.292589 
L 98.667747 245.280164 
L 99.090759 249.194464 
L 99.513778 254.088799 
L 99.725285 254.16525 
L 100.35981 261.132441 
L 100.571323 263.120872 
L 100.782829 263.147205 
L 101.205848 266.207046 
L 101.628861 267.82682 
L 102.263386 268.083901 
L 102.474899 267.669314 
L 102.686405 266.827735 
L 102.897912 266.810255 
L 103.320931 264.354157 
L 103.74395 260.799641 
L 103.955456 260.79797 
L 104.801488 251.956074 
L 105.013001 251.893199 
L 105.647526 246.774453 
L 105.859032 245.711377 
L 106.070539 245.74958 
L 106.493558 244.678898 
L 106.705064 244.689805 
L 106.916577 245.194853 
L 107.128083 245.216515 
L 107.551102 247.208321 
L 107.974115 250.21448 
L 108.185628 250.221549 
L 108.60864 253.926612 
M 109.031659 257.82036 
L 109.243166 257.885926 
L 109.877691 262.377855 
L 110.089204 263.488833 
L 110.30071 263.402348 
L 110.723729 264.996519 
L 110.935236 265.267723 
L 111.146742 265.272927 
L 111.569761 265.06093 
L 111.99278 263.746863 
L 112.204286 262.739274 
L 112.415793 262.639148 
L 113.050318 259.063241 
L 113.261831 257.390614 
L 113.473337 257.363442 
L 113.896356 253.328622 
L 114.319369 251.016499 
L 114.530882 251.028544 
L 115.165407 248.357784 
L 115.376913 247.984206 
L 115.799932 247.852265 
L 116.011439 248.050068 
L 116.222945 248.413369 
L 116.434458 249.099246 
L 116.645964 249.155138 
L 117.28049 251.763272 
L 117.491996 252.837336 
L 117.703509 252.860714 
L 118.54954 257.008982 
L 118.972559 257.206054 
L 119.395572 258.833804 
L 119.607085 259.293454 
L 119.818591 259.272867 
L 120.24161 259.566969 
L 120.453117 259.601301 
L 121.087642 259.265491 
L 121.510661 258.472577 
L 121.722167 257.933384 
L 122.145186 257.764262 
L 122.568199 256.184028 
L 122.779712 254.364314 
L 122.991218 254.377683 
L 123.83725 252.338724 
L 124.048763 252.300919 
L 124.471775 251.540219 
L 124.683288 251.145842 
L 125.317814 251.173892 
L 125.740826 251.029841 
L 126.586864 251.180929 
L 126.798371 251.428258 
L 127.009877 251.468522 
L 127.22139 251.710263 
L 127.855915 251.927618 
L 128.278928 252.282484 
L 128.701947 252.775233 
L 129.124966 253.217791 
L 129.336472 253.307971 
L 130.182504 254.637355 
L 130.394017 254.64787 
L 130.81701 255.295825 
L 131.240048 256.000601 
L 131.451536 255.934233 
L 132.086061 256.62969 
L 132.509099 256.756882 
L 133.566663 256.473603 
L 133.989637 255.779747 
L 134.412675 254.474373 
L 134.624163 254.387696 
L 135.258688 251.985145 
L 135.470239 251.03945 
L 135.681726 251.034969 
L 136.527739 248.025151 
L 136.73929 248.017733 
L 137.162264 247.16605 
L 137.585302 246.986228 
L 138.008341 247.095439 
L 138.219828 247.411393 
L 138.642866 248.640398 
L 138.854353 248.622135 
L 139.488879 251.454036 
L 139.700366 252.676368 
L 139.911917 252.728605 
L 140.757929 257.748727 
L 140.969417 257.770479 
L 141.392455 259.937598 
L 141.603942 260.776706 
L 141.815493 261.139405 
L 142.238468 261.291442 
L 142.450018 261.191798 
L 142.661506 260.943678 
L 142.872993 260.178158 
L 143.084544 260.154919 
L 143.507518 258.24774 
L 143.930556 255.253774 
L 144.142044 255.205116 
L 144.98812 248.22225 
L 145.199607 248.294814 
L 146.04562 243.141133 
L 146.257171 243.099326 
L 146.680145 242.090956 
L 146.891696 241.971596 
L 147.103183 242.21704 
L 147.314671 242.25512 
L 147.737709 243.460156 
L 148.160747 246.40264 
L 148.372234 246.402318 
L 149.00676 252.008475 
L 149.218247 254.113035 
L 149.429798 254.10385 
L 150.064323 260.334263 
L 150.27581 261.665328 
L 150.487298 261.717273 
L 150.910336 264.133914 
L 151.121823 264.84968 
L 151.333374 264.986563 
L 151.544861 264.884059 
L 151.756349 264.602535 
L 151.967899 263.967185 
L 152.390874 261.247744 
L 152.602425 261.231783 
L 153.025399 257.5509 
L 153.448438 252.949969 
L 153.659925 252.874308 
L 154.29445 245.903045 
L 154.506001 244.152415 
L 154.717488 244.167618 
L 155.352014 239.928897 
L 155.563501 239.167327 
L 155.775052 239.056038 
L 155.986539 238.750578 
L 156.198026 239.023014 
L 156.409577 239.582474 
L 156.621065 240.563235 
L 156.832552 240.655356 
L 157.25559 243.612057 
L 157.678628 247.525199 
L 157.890115 247.578333 
L 158.736128 258.34599 
L 158.947679 258.34362 
L 159.582204 264.156226 
L 159.793692 265.703708 
L 160.005179 265.688585 
L 160.428217 267.276218 
L 160.639704 267.316271 
L 160.851255 266.763156 
L 161.062742 266.714976 
L 161.48578 264.218291 
L 161.908755 260.064083 
L 162.120306 260.128941 
L 162.966319 249.855593 
L 163.177806 249.886014 
L 163.812331 243.098008 
L 164.023882 241.398802 
L 164.235369 241.447598 
L 164.658407 238.969285 
L 164.869895 238.247274 
L 165.292933 238.35457 
L 165.50442 238.472308 
L 165.927458 240.410215 
L 166.138946 242.023579 
L 166.350433 242.048628 
L 167.196509 251.062024 
L 167.407996 251.020722 
L 168.254009 261.306314 
L 168.46556 261.244856 
L 169.100085 265.791461 
L 169.311573 266.683734 
L 169.734611 266.845375 
L 169.946098 266.654874 
L 170.369136 264.856647 
L 170.580623 264.880318 
L 171.215149 259.406233 
L 171.426636 257.016143 
L 171.638187 257.015598 
L 172.4842 247.4527 
L 172.695687 247.506901 
L 173.118725 243.973295 
L 173.541763 241.429294 
L 173.75325 241.473547 
L 174.176288 240.587439 
L 174.387776 240.756715 
L 174.599263 241.251159 
L 174.810814 241.243629 
L 175.233788 243.259924 
L 175.656827 246.641938 
L 175.868314 246.552302 
L 176.71439 254.914453 
L 176.925877 254.917132 
L 177.560403 260.715179 
L 177.77189 262.175711 
L 177.983441 262.25795 
L 178.406415 263.842331 
L 178.617966 264.090767 
L 179.040941 264.077174 
L 179.252492 263.805755 
L 179.675466 262.040424 
L 179.887017 260.653226 
L 180.098504 260.65575 
L 180.521542 257.469337 
L 180.944517 253.741213 
L 181.156068 253.80004 
L 182.002081 247.652517 
L 182.213568 247.559088 
L 182.636606 245.572973 
L 183.059644 244.860475 
L 183.482619 244.948147 
L 183.694169 245.335932 
L 184.117144 246.806111 
L 184.328695 246.769236 
L 184.96322 250.451734 
L 185.174708 251.854771 
L 185.386195 251.797911 
L 186.232271 256.98689 
L 186.443758 257.023341 
L 186.866796 259.000594 
L 187.289771 259.727817 
L 188.347335 259.60214 
L 188.558822 259.339638 
L 189.193347 256.983086 
L 189.404898 257.006826 
L 190.250911 253.067844 
L 190.462398 253.072348 
L 191.096923 250.989404 
L 191.308474 250.492256 
L 191.519962 250.49724 
L 191.943 250.064515 
L 192.789012 250.697705 
L 193.423538 252.266897 
L 193.635025 252.299613 
L 194.481101 254.334233 
L 194.692589 254.39197 
L 195.115627 254.902225 
L 195.327114 255.015474 
L 195.750152 254.942671 
L 195.961639 254.981053 
L 196.384677 254.843 
L 196.596165 254.491726 
L 197.019203 254.312917 
L 197.442177 253.478994 
L 197.653728 253.302351 
L 197.865216 253.314826 
L 198.288254 252.789722 
L 198.711228 252.485056 
L 198.922779 252.453591 
L 199.134266 252.631137 
L 199.345754 252.530557 
L 200.19183 253.731456 
L 200.826355 255.257683 
L 201.037843 255.203863 
L 202.095406 256.823162 
L 202.518381 256.822574 
L 203.575944 256.689535 
L 203.998982 254.950489 
L 204.21047 254.941198 
L 205.056482 251.465641 
L 205.268033 251.477661 
L 205.902558 249.35875 
L 206.114046 248.861896 
L 206.325533 248.862002 
L 206.748571 248.186295 
L 206.960059 248.168095 
L 207.383097 248.32416 
L 207.806135 249.617684 
L 208.229109 251.581548 
L 208.44066 251.563444 
L 209.286673 256.304064 
L 209.49816 256.25169 
L 210.132686 260.139624 
L 210.344236 260.994491 
L 210.555724 261.0368 
L 210.978762 262.109891 
L 211.613287 261.949694 
L 212.036262 260.814896 
L 212.4593 258.563722 
L 212.670787 258.585124 
L 213.516863 251.972925 
L 213.728351 251.995261 
L 214.574363 246.015728 
L 214.785914 245.982495 
L 215.208889 244.429584 
L 215.420439 243.937017 
L 215.843414 243.93771 
L 216.054965 244.29282 
L 216.47794 245.965433 
L 216.68949 246.918737 
L 216.900978 246.985431 
L 217.324016 249.64845 
L 217.74699 253.954223 
L 217.958541 253.919363 
L 218.804554 261.703022 
L 219.016041 261.733728 
L 219.439079 264.419879 
L 219.862117 265.638863 
L 220.285092 265.657592 
L 220.496643 265.402149 
L 220.919617 263.550072 
L 221.131168 263.55489 
L 221.765693 258.571922 
L 221.977181 256.298561 
L 222.188668 256.227676 
L 223.034744 247.100618 
L 223.246232 247.054979 
L 223.880757 242.548696 
L 224.092244 241.71056 
L 224.303795 241.704234 
L 224.515282 241.249338 
L 224.72677 241.138258 
L 225.149808 242.215722 
L 225.361295 242.235961 
L 225.784333 244.831728 
L 226.207371 248.311568 
L 226.418859 248.339451 
L 227.264871 257.848286 
L 227.476422 257.816552 
L 227.899397 262.381349 
L 228.322435 265.603549 
L 228.533922 265.652515 
L 228.95696 267.186497 
L 229.168448 267.226274 
L 229.379998 266.937401 
L 229.591486 266.947644 
L 229.802973 266.192183 
L 230.226011 263.075365 
L 230.437498 260.912121 
L 230.649049 260.913197 
L 231.495062 251.218875 
L 231.706549 251.214252 
L 232.341075 244.461461 
L 232.552625 242.825685 
L 232.764113 242.820118 
L 233.187151 240.392138 
L 233.398638 239.843861 
L 233.821676 239.693411 
L 234.033163 239.903925 
L 234.456202 241.733047 
L 234.667689 243.2074 
L 234.879176 243.148768 
L 235.513702 249.39208 
L 235.725252 251.651878 
L 235.93674 251.749686 
L 236.782752 261.708165 
L 236.994303 261.71619 
L 237.417278 264.992551 
L 237.840316 266.878476 
L 238.051803 266.935192 
L 238.263354 267.162891 
L 238.474841 266.956645 
L 238.686329 266.252338 
L 238.897879 265.013053 
L 239.109367 265.081338 
L 239.532405 261.44557 
L 239.743892 259.40193 
L 239.743892 259.40193 
" clip-path="url(#p810b0b9241)" style="fill: none; stroke: #ff0000; stroke-width: 1.5; stroke-linecap: square"/>
   </g>
   <g id="line2d_36">
    <path d="M 58.523438 256.84318 
L 248.373437 256.84318 
" clip-path="url(#p810b0b9241)" style="fill: none; stroke-dasharray: 3.7,1.6; stroke-dashoffset: 0; stroke: #000000"/>
   </g>
   <g id="patch_13">
    <path d="M 58.523438 303.928 
L 58.523438 192.618 
" style="fill: none; stroke: #000000; stroke-width: 0.8; stroke-linejoin: miter; stroke-linecap: square"/>
   </g>
   <g id="patch_14">
    <path d="M 248.373437 303.928 
L 248.373437 192.618 
" style="fill: none; stroke: #000000; stroke-width: 0.8; stroke-linejoin: miter; stroke-linecap: square"/>
   </g>
   <g id="patch_15">
    <path d="M 58.523438 303.928 
L 248.373437 303.928 
" style="fill: none; stroke: #000000; stroke-width: 0.8; stroke-linejoin: miter; stroke-linecap: square"/>
   </g>
   <g id="patch_16">
    <path d="M 58.523438 192.618 
L 248.373437 192.618 
" style="fill: none; stroke: #000000; stroke-width: 0.8; stroke-linejoin: miter; stroke-linecap: square"/>
   </g>
   <g id="text_20">
    <!-- 40cm -->
    <g transform="translate(136.67 186.618) scale(0.12 -0.12)">
     <defs>
      <path id="DejaVuSans-34" d="M 2419 4116 
L 825 1625 
L 2419 1625 
L 2419 4116 
z
M 2253 4666 
L 3047 4666 
L 3047 1625 
L 3713 1625 
L 3713 1100 
L 3047 1100 
L 3047 0 
L 2419 0 
L 2419 1100 
L 313 1100 
L 313 1709 
L 2253 4666 
z
" transform="scale(0.015625)"/>
     </defs>
     <use xlink:href="#DejaVuSans-34"/>
     <use xlink:href="#DejaVuSans-30" transform="translate(63.623047 0)"/>
     <use xlink:href="#DejaVuSans-63" transform="translate(127.246094 0)"/>
     <use xlink:href="#DejaVuSans-6d" transform="translate(182.226562 0)"/>
    </g>
   </g>
  </g>
  <g id="axes_4">
   <g id="patch_17">
    <path d="M 262.673437 303.928 
L 452.523437 303.928 
L 452.523437 192.618 
L 262.673437 192.618 
z
" style="fill: #ffffff"/>
   </g>
   <g id="matplotlib.axis_7">
    <g id="xtick_19">
     <g id="line2d_37">
      <g>
       <use xlink:href="#mddb7ade06f" x="271.302983" y="303.928" style="stroke: #000000; stroke-width: 0.8"/>
      </g>
     </g>
     <g id="text_21">
      <!-- 0 -->
      <g transform="translate(268.121733 318.526437) scale(0.1 -0.1)">
       <use xlink:href="#DejaVuSans-30"/>
      </g>
     </g>
    </g>
    <g id="xtick_20">
     <g id="line2d_38">
      <g>
       <use xlink:href="#mddb7ade06f" x="303.029253" y="303.928" style="stroke: #000000; stroke-width: 0.8"/>
      </g>
     </g>
     <g id="text_22">
      <!-- 5 -->
      <g transform="translate(299.848003 318.526437) scale(0.1 -0.1)">
       <use xlink:href="#DejaVuSans-35"/>
      </g>
     </g>
    </g>
    <g id="xtick_21">
     <g id="line2d_39">
      <g>
       <use xlink:href="#mddb7ade06f" x="334.755523" y="303.928" style="stroke: #000000; stroke-width: 0.8"/>
      </g>
     </g>
     <g id="text_23">
      <!-- 10 -->
      <g transform="translate(328.393023 318.526437) scale(0.1 -0.1)">
       <use xlink:href="#DejaVuSans-31"/>
       <use xlink:href="#DejaVuSans-30" transform="translate(63.623047 0)"/>
      </g>
     </g>
    </g>
    <g id="xtick_22">
     <g id="line2d_40">
      <g>
       <use xlink:href="#mddb7ade06f" x="366.481793" y="303.928" style="stroke: #000000; stroke-width: 0.8"/>
      </g>
     </g>
     <g id="text_24">
      <!-- 15 -->
      <g transform="translate(360.119293 318.526437) scale(0.1 -0.1)">
       <use xlink:href="#DejaVuSans-31"/>
       <use xlink:href="#DejaVuSans-35" transform="translate(63.623047 0)"/>
      </g>
     </g>
    </g>
    <g id="xtick_23">
     <g id="line2d_41">
      <g>
       <use xlink:href="#mddb7ade06f" x="398.208063" y="303.928" style="stroke: #000000; stroke-width: 0.8"/>
      </g>
     </g>
     <g id="text_25">
      <!-- 20 -->
      <g transform="translate(391.845563 318.526437) scale(0.1 -0.1)">
       <use xlink:href="#DejaVuSans-32"/>
       <use xlink:href="#DejaVuSans-30" transform="translate(63.623047 0)"/>
      </g>
     </g>
    </g>
    <g id="xtick_24">
     <g id="line2d_42">
      <g>
       <use xlink:href="#mddb7ade06f" x="429.934333" y="303.928" style="stroke: #000000; stroke-width: 0.8"/>
      </g>
     </g>
     <g id="text_26">
      <!-- 25 -->
      <g transform="translate(423.571833 318.526437) scale(0.1 -0.1)">
       <use xlink:href="#DejaVuSans-32"/>
       <use xlink:href="#DejaVuSans-35" transform="translate(63.623047 0)"/>
      </g>
     </g>
    </g>
    <g id="text_27">
     <!-- Time (s) -->
     <g transform="translate(337.269531 332.204562) scale(0.1 -0.1)">
      <use xlink:href="#DejaVuSans-54"/>
      <use xlink:href="#DejaVuSans-69" transform="translate(57.958984 0)"/>
      <use xlink:href="#DejaVuSans-6d" transform="translate(85.742188 0)"/>
      <use xlink:href="#DejaVuSans-65" transform="translate(183.154297 0)"/>
      <use xlink:href="#DejaVuSans-20" transform="translate(244.677734 0)"/>
      <use xlink:href="#DejaVuSans-28" transform="translate(276.464844 0)"/>
      <use xlink:href="#DejaVuSans-73" transform="translate(315.478516 0)"/>
      <use xlink:href="#DejaVuSans-29" transform="translate(367.578125 0)"/>
     </g>
    </g>
   </g>
   <g id="matplotlib.axis_8">
    <g id="ytick_13">
     <g id="line2d_43">
      <g>
       <use xlink:href="#m48ee8194c8" x="262.673437" y="280.553919" style="stroke: #000000; stroke-width: 0.8"/>
      </g>
     </g>
    </g>
    <g id="ytick_14">
     <g id="line2d_44">
      <g>
       <use xlink:href="#m48ee8194c8" x="262.673437" y="256.84318" style="stroke: #000000; stroke-width: 0.8"/>
      </g>
     </g>
    </g>
    <g id="ytick_15">
     <g id="line2d_45">
      <g>
       <use xlink:href="#m48ee8194c8" x="262.673437" y="233.132441" style="stroke: #000000; stroke-width: 0.8"/>
      </g>
     </g>
    </g>
    <g id="ytick_16">
     <g id="line2d_46">
      <g>
       <use xlink:href="#m48ee8194c8" x="262.673437" y="209.421702" style="stroke: #000000; stroke-width: 0.8"/>
      </g>
     </g>
    </g>
   </g>
   <g id="line2d_47">
    <path d="M 272.360526 212.527923 
L 272.572034 212.226531 
L 272.783542 212.702557 
L 272.995051 214.391672 
L 273.206559 214.361939 
L 273.629576 220.102973 
L 274.052593 229.706913 
L 274.264102 229.762092 
L 275.110135 256.529463 
L 275.321644 256.516502 
L 275.744661 270.90895 
L 276.167678 280.961355 
L 276.379186 280.993469 
L 276.802203 287.014147 
L 277.013712 288.531739 
L 277.22522 289.019962 
L 277.436729 288.987364 
L 277.648237 288.716 
L 277.859743 287.667947 
L 278.282762 283.095198 
L 278.494269 283.187338 
L 278.917288 274.702204 
L 279.340307 262.616508 
L 279.551813 262.642433 
L 280.397845 234.846083 
L 280.609358 234.800634 
L 281.03237 222.826094 
L 281.455389 215.507452 
L 281.666896 215.426124 
L 281.878408 213.033265 
L 282.089915 212.031335 
L 282.301421 211.948859 
L 282.512934 212.717305 
L 282.72444 212.734794 
L 282.935947 214.298233 
L 283.358966 221.231718 
L 283.570472 226.381026 
L 283.781985 226.374435 
L 284.628016 250.495717 
L 284.839523 250.48713 
L 285.685561 276.783238 
L 285.897067 276.786501 
L 286.320086 284.569978 
L 286.743099 287.731416 
L 286.954612 287.672481 
L 287.166118 288.034743 
L 287.377624 287.505842 
L 288.01215 283.80285 
L 288.435169 274.992082 
L 288.858188 263.509212 
L 289.069694 263.467763 
L 289.915726 236.089237 
L 290.127239 236.103473 
L 290.97327 217.987965 
L 291.184777 217.95257 
L 291.607796 213.050232 
L 291.819302 212.353696 
L 292.242321 212.501547 
L 292.453828 213.383672 
L 292.876847 218.049518 
L 293.088353 221.688756 
L 293.299866 221.621342 
L 293.934391 237.296037 
L 294.145897 244.393885 
L 294.357404 244.438623 
L 294.568916 251.471548 
L 294.991929 268.615477 
L 295.203442 274.355079 
L 295.414948 274.38467 
L 295.837967 282.898921 
L 296.26098 287.096974 
L 296.472493 287.068331 
L 296.683999 287.971359 
L 296.895505 288.121771 
L 297.107018 287.459985 
L 297.318524 285.916672 
L 297.530031 285.843131 
L 297.95305 280.70544 
L 298.376069 271.578191 
L 298.587575 271.571191 
L 299.222101 251.460717 
L 299.433607 244.710528 
L 299.64512 244.694699 
L 300.491151 222.259104 
L 300.702658 222.302798 
L 301.125677 216.162068 
L 301.337183 214.49102 
L 301.548696 214.093002 
L 301.760202 214.167046 
L 301.971709 214.524443 
L 302.183221 215.736631 
L 302.606234 221.657781 
L 302.817747 221.612313 
L 303.240759 230.438389 
L 303.663778 243.546169 
L 303.875285 243.557484 
L 304.721323 269.788551 
L 304.932829 269.75768 
L 305.355848 279.37375 
L 305.778861 284.934687 
L 305.990374 284.96903 
L 306.413386 287.087527 
L 306.624899 287.064224 
L 306.836405 286.084174 
L 307.047912 286.065338 
L 307.470931 282.2696 
L 307.89395 274.398004 
L 308.105456 274.402301 
L 308.739982 256.417123 
L 308.951488 249.908833 
L 309.163001 249.903957 
L 310.009032 226.198918 
L 310.220539 226.217233 
L 310.643558 218.735375 
L 311.066577 215.359877 
L 311.278083 215.283594 
L 311.48959 214.955058 
L 311.701102 215.660386 
L 311.912609 217.194879 
L 312.124115 219.826022 
L 312.335628 219.808201 
L 312.75864 227.68599 
L 313.181659 239.34198 
L 313.393166 239.485506 
L 314.239204 265.742028 
L 314.45071 265.728391 
L 314.873729 276.196198 
L 315.296742 282.674854 
L 315.508255 282.65305 
L 315.931267 285.967745 
L 316.14278 286.407959 
L 316.354286 285.934616 
L 316.565793 285.979932 
L 316.777305 284.918355 
L 317.200318 280.45975 
L 317.411831 276.632239 
L 317.623337 276.747264 
L 318.257863 260.660279 
L 318.469369 254.409465 
L 318.680882 254.369689 
L 319.526913 229.672475 
L 319.73842 229.665741 
L 320.161439 221.309546 
L 320.584458 216.660667 
L 320.795964 216.61243 
L 321.007471 215.753807 
L 321.218983 215.744341 
L 321.43049 216.761323 
L 321.641996 218.666766 
L 321.853509 218.691577 
L 322.276521 225.460974 
L 322.69954 236.007928 
L 322.911047 236.045305 
L 323.757085 261.518819 
L 323.968591 261.576216 
L 324.603117 276.783751 
L 324.814623 280.469813 
L 325.026136 280.482948 
L 325.449148 284.818561 
L 325.660661 285.798517 
L 326.083674 285.920769 
L 326.295186 285.294502 
L 326.718199 281.615743 
L 326.929712 278.695822 
L 327.141218 278.62855 
L 327.775744 264.5127 
L 327.98725 258.561868 
L 328.198763 258.558063 
L 329.044794 231.899179 
L 329.256301 231.906824 
L 329.67932 223.167813 
L 330.102339 217.087763 
L 330.313845 217.053127 
L 330.525352 215.527587 
L 330.736864 215.010949 
L 330.948371 215.3223 
L 331.159877 216.315353 
L 331.37139 216.303147 
L 331.794402 221.271296 
L 332.217421 230.611496 
L 332.428928 230.710067 
L 333.063453 248.174663 
L 333.274966 254.532261 
L 333.486472 254.604227 
L 334.332504 277.856709 
L 334.544017 277.867967 
L 334.96701 283.383881 
L 335.178561 284.811742 
L 335.390048 285.428866 
L 335.813087 285.394979 
L 336.024574 284.472754 
L 336.870587 276.959248 
L 337.293625 267.995811 
L 337.505112 262.424241 
L 337.716663 262.360258 
L 338.562675 236.750529 
L 338.774163 236.816236 
L 339.408688 222.495614 
L 339.620239 219.179221 
L 339.831726 219.109882 
L 340.254764 215.724462 
L 340.466252 215.411481 
L 340.677739 215.994765 
L 340.88929 215.966426 
L 341.100777 217.498898 
L 341.523815 223.681198 
L 341.735302 228.252496 
L 341.94679 228.26144 
L 342.369828 239.426922 
L 342.792866 252.53748 
L 343.004353 252.604854 
L 343.850366 275.05979 
L 344.061917 274.996179 
L 344.484891 281.996443 
L 344.907929 285.180975 
L 345.119417 285.22154 
L 345.330968 285.735759 
L 345.542455 285.330865 
L 346.17698 282.368815 
L 346.600018 276.22523 
L 347.022993 266.486158 
L 347.234544 266.529472 
L 348.080556 241.263499 
L 348.292044 241.327555 
L 348.926569 224.591226 
L 349.13812 220.903571 
L 349.349607 220.90045 
L 349.772645 216.299837 
L 349.984133 215.165667 
L 350.407171 215.195599 
L 350.618658 215.969906 
L 350.830145 217.719636 
L 351.253183 223.860907 
L 351.464671 223.819754 
L 352.099196 240.670721 
L 352.310747 247.195878 
L 352.522234 247.090119 
L 353.368247 272.200835 
L 353.579798 272.288621 
L 354.002772 280.26591 
L 354.42581 284.961812 
L 354.637298 284.956046 
L 354.848849 285.999128 
L 355.060336 286.36949 
L 355.271823 285.796269 
L 355.483374 284.518914 
L 355.694861 284.507619 
L 356.117899 279.522331 
L 356.540874 270.846003 
L 356.752425 270.813092 
L 357.598437 246.396921 
L 357.809925 246.371332 
L 358.656001 223.313786 
L 358.867488 223.281767 
L 359.290526 216.976503 
L 359.502014 215.284979 
L 359.713501 214.580239 
L 359.925052 214.571058 
L 360.136539 214.711483 
L 360.348026 215.806454 
L 360.559577 217.693061 
L 360.771065 220.734475 
L 360.982552 220.79397 
L 361.40559 230.182085 
L 361.828628 241.978406 
L 362.040115 242.017424 
L 362.886128 266.961027 
L 363.097679 266.930212 
L 363.732204 280.924148 
L 363.943692 283.620249 
L 364.155179 283.576517 
L 364.578217 286.206948 
L 364.789704 286.332245 
L 365.001255 285.61987 
L 365.212742 285.673258 
L 365.63578 281.727534 
L 366.058755 274.329424 
L 366.270306 274.333274 
L 366.69328 263.76995 
L 367.116319 249.349397 
L 367.327806 249.364253 
L 367.750844 235.474294 
L 368.173882 225.647407 
L 368.385369 225.670804 
L 369.019895 215.69618 
L 369.231382 214.349998 
L 369.442933 214.364993 
L 369.65442 213.852585 
L 369.865907 214.082958 
L 370.077458 215.206715 
L 370.288946 217.006957 
L 370.500433 217.058296 
L 370.923471 224.021628 
L 371.346509 233.884034 
L 371.557996 233.893205 
L 371.981034 247.884316 
L 372.404009 262.959746 
L 372.61556 263.023901 
L 373.250085 278.283796 
L 373.461573 282.177403 
L 373.67306 282.234707 
L 374.096098 286.178495 
L 374.307585 286.921201 
L 374.730623 286.98007 
L 374.942111 286.123591 
L 375.365149 281.947485 
L 375.576636 278.610663 
L 375.788187 278.561686 
L 375.999674 274.454464 
L 376.6342 253.369911 
L 376.845687 253.372998 
L 377.268725 241.806825 
L 377.691763 228.943958 
L 377.90325 228.908904 
L 378.537776 216.537238 
L 378.749263 214.273707 
L 378.960814 214.174539 
L 379.172301 213.062107 
L 379.383788 212.778574 
L 379.595339 213.298427 
L 379.806827 214.726534 
L 380.018314 214.725984 
L 380.441352 220.231058 
L 380.86439 228.686137 
L 381.075877 228.664285 
L 381.710403 248.162473 
L 381.92189 254.889581 
L 382.133441 254.921228 
L 382.767966 274.143541 
L 382.979454 278.795749 
L 383.190941 278.863723 
L 383.613979 284.963377 
L 383.825466 286.356516 
L 384.037017 286.883321 
L 384.248504 286.862996 
L 384.459992 286.678147 
L 384.671542 285.345461 
L 385.094517 280.120411 
L 385.306068 280.234555 
L 385.729042 270.699319 
L 386.152081 257.498622 
L 386.363568 257.534725 
L 387.209644 231.271148 
L 387.421131 231.286627 
L 388.055657 218.308942 
L 388.267144 215.748088 
L 388.478695 215.759488 
L 388.901669 212.895363 
L 389.11322 212.80788 
L 389.324708 213.580101 
L 389.536195 213.630614 
L 389.959233 217.449077 
L 390.382271 224.754451 
L 390.593758 224.787494 
L 391.228284 243.043151 
L 391.439771 249.644513 
L 391.651322 249.689922 
L 392.285847 269.798984 
L 392.497335 269.741955 
L 392.920373 280.130389 
L 393.343347 285.273476 
L 393.554898 285.251605 
L 393.766385 286.477564 
L 393.977873 286.849168 
L 394.189423 286.299354 
L 394.400911 284.942066 
L 394.612398 284.944835 
L 394.823949 282.836533 
L 395.246923 274.378619 
L 395.458474 268.700115 
L 395.669962 268.599771 
L 396.515974 242.334949 
L 396.727525 242.278024 
L 397.36205 224.840198 
L 397.573538 220.991537 
L 397.785025 220.97089 
L 398.208063 215.460382 
L 398.41955 213.739921 
L 398.631101 212.953018 
L 398.842589 212.912132 
L 399.054076 213.032592 
L 399.477114 215.838255 
L 399.688601 218.514401 
L 399.900152 218.565161 
L 400.323127 226.629211 
L 400.746165 238.251628 
L 400.957652 238.249494 
L 401.803728 265.638982 
L 402.015216 265.709386 
L 402.649741 280.743178 
L 402.861228 283.647829 
L 403.072779 283.638516 
L 403.495754 286.315676 
L 403.707304 286.265334 
L 403.918792 285.427434 
L 404.130279 285.439972 
L 404.34183 283.886928 
L 404.764804 277.053436 
L 404.976355 272.142203 
L 405.187843 272.175559 
L 405.822368 253.903467 
L 406.033855 246.50195 
L 406.245406 246.480904 
L 406.879931 228.28718 
L 407.091419 223.926984 
L 407.302906 223.911771 
L 407.937432 215.465503 
L 408.148982 214.05222 
L 408.36047 213.983136 
L 408.571957 213.690176 
L 408.783508 214.085605 
L 408.994995 215.331765 
L 409.206482 217.291666 
L 409.418033 217.272461 
L 409.841008 224.529037 
L 410.264046 234.557485 
L 410.475533 234.552658 
L 411.321609 261.582473 
L 411.533097 261.533844 
L 412.167622 277.601202 
L 412.379109 281.308129 
L 412.59066 281.236817 
L 413.013635 284.961935 
L 413.225185 285.464745 
L 413.436673 285.189824 
L 413.64816 285.181392 
L 414.071198 282.180296 
L 414.494236 274.565601 
L 414.705724 274.631887 
L 415.340249 257.407914 
L 415.551736 250.814982 
L 415.763287 250.907308 
L 416.6093 227.293046 
L 416.820787 227.332349 
L 417.243825 220.162392 
L 417.666863 215.58768 
L 417.878351 215.582814 
L 418.089838 214.645851 
L 418.301389 214.624294 
L 418.512876 215.316277 
L 418.724363 216.895526 
L 418.935914 216.912664 
L 419.358889 223.279102 
L 419.781927 231.872765 
L 419.993414 231.79213 
L 420.62794 250.89622 
L 420.83949 257.417715 
L 421.050978 257.440548 
L 421.685503 274.418367 
L 421.89699 278.771431 
L 422.108541 278.785269 
L 422.531516 283.241304 
L 422.743066 284.3053 
L 422.954554 284.612572 
L 423.166041 284.611699 
L 423.377592 284.035064 
L 423.800567 280.144198 
L 424.012117 276.850368 
L 424.223605 276.821527 
L 424.646643 267.017866 
L 425.069617 254.495816 
L 425.281168 254.448901 
L 426.127181 230.709773 
L 426.338668 230.764545 
L 426.761706 222.557006 
L 427.184744 217.294322 
L 427.396232 217.191028 
L 427.607719 215.768432 
L 427.81927 215.317738 
L 428.030757 215.526421 
L 428.242244 216.857561 
L 428.453795 216.823654 
L 428.87677 221.68593 
L 429.299808 228.920105 
L 429.511295 228.939263 
L 430.145821 246.899864 
L 430.357371 253.249621 
L 430.568859 253.219239 
L 431.414871 275.932497 
L 431.626422 275.963046 
L 432.049397 281.642773 
L 432.472435 284.046597 
L 432.895473 283.987168 
L 433.10696 282.964894 
L 433.318448 281.32632 
L 433.529998 278.34368 
L 433.741486 278.394762 
L 434.376011 264.300813 
L 434.587498 258.299255 
L 434.799049 258.343331 
L 435.645062 234.06765 
L 435.856549 234.008724 
L 436.279587 224.935563 
L 436.702625 219.171141 
L 436.914113 219.216115 
L 437.337151 216.092548 
L 437.548638 215.894487 
L 437.760125 216.369044 
L 437.971676 216.343028 
L 438.394651 219.78541 
L 438.817689 226.606487 
L 439.029176 226.612993 
L 439.663702 242.860113 
L 439.875252 248.856342 
L 440.08674 248.857388 
L 440.932752 272.442077 
L 441.144303 272.51431 
L 441.567278 279.905829 
L 441.990316 283.226167 
L 442.201803 283.31291 
L 442.413354 283.723125 
L 442.624841 283.264474 
L 442.836329 282.0706 
L 443.047879 279.9654 
L 443.259367 279.992136 
L 443.682405 272.489793 
L 443.893892 267.461589 
L 443.893892 267.461589 
" clip-path="url(#pfdd0310d23)" style="fill: none; stroke: #ffa500; stroke-width: 1.5; stroke-linecap: square"/>
   </g>
   <g id="line2d_48">
    <path d="M 262.673437 256.84318 
L 452.523437 256.84318 
" clip-path="url(#pfdd0310d23)" style="fill: none; stroke-dasharray: 3.7,1.6; stroke-dashoffset: 0; stroke: #000000"/>
   </g>
   <g id="patch_18">
    <path d="M 262.673437 303.928 
L 262.673437 192.618 
" style="fill: none; stroke: #000000; stroke-width: 0.8; stroke-linejoin: miter; stroke-linecap: square"/>
   </g>
   <g id="patch_19">
    <path d="M 452.523437 303.928 
L 452.523437 192.618 
" style="fill: none; stroke: #000000; stroke-width: 0.8; stroke-linejoin: miter; stroke-linecap: square"/>
   </g>
   <g id="patch_20">
    <path d="M 262.673437 303.928 
L 452.523437 303.928 
" style="fill: none; stroke: #000000; stroke-width: 0.8; stroke-linejoin: miter; stroke-linecap: square"/>
   </g>
   <g id="patch_21">
    <path d="M 262.673437 192.618 
L 452.523437 192.618 
" style="fill: none; stroke: #000000; stroke-width: 0.8; stroke-linejoin: miter; stroke-linecap: square"/>
   </g>
   <g id="text_28">
    <!-- driver -->
    <g transform="translate(339.94625 186.618) scale(0.12 -0.12)">
     <defs>
      <path id="DejaVuSans-72" d="M 2631 2963 
Q 2534 3019 2420 3045 
Q 2306 3072 2169 3072 
Q 1681 3072 1420 2755 
Q 1159 2438 1159 1844 
L 1159 0 
L 581 0 
L 581 3500 
L 1159 3500 
L 1159 2956 
Q 1341 3275 1631 3429 
Q 1922 3584 2338 3584 
Q 2397 3584 2469 3576 
Q 2541 3569 2628 3553 
L 2631 2963 
z
" transform="scale(0.015625)"/>
      <path id="DejaVuSans-76" d="M 191 3500 
L 800 3500 
L 1894 563 
L 2988 3500 
L 3597 3500 
L 2284 0 
L 1503 0 
L 191 3500 
z
" transform="scale(0.015625)"/>
     </defs>
     <use xlink:href="#DejaVuSans-64"/>
     <use xlink:href="#DejaVuSans-72" transform="translate(63.476562 0)"/>
     <use xlink:href="#DejaVuSans-69" transform="translate(104.589844 0)"/>
     <use xlink:href="#DejaVuSans-76" transform="translate(132.373047 0)"/>
     <use xlink:href="#DejaVuSans-65" transform="translate(191.552734 0)"/>
     <use xlink:href="#DejaVuSans-72" transform="translate(253.076172 0)"/>
    </g>
   </g>
  </g>
  <g id="text_29">
   <!-- Amplitude vs Time - first setup -->
   <g transform="translate(140.615313 16.318125) scale(0.12 -0.12)">
    <defs>
     <path id="DejaVuSans-2d" d="M 313 2009 
L 1997 2009 
L 1997 1497 
L 313 1497 
L 313 2009 
z
" transform="scale(0.015625)"/>
     <path id="DejaVuSans-66" d="M 2375 4863 
L 2375 4384 
L 1825 4384 
Q 1516 4384 1395 4259 
Q 1275 4134 1275 3809 
L 1275 3500 
L 2222 3500 
L 2222 3053 
L 1275 3053 
L 1275 0 
L 697 0 
L 697 3053 
L 147 3053 
L 147 3500 
L 697 3500 
L 697 3744 
Q 697 4328 969 4595 
Q 1241 4863 1831 4863 
L 2375 4863 
z
" transform="scale(0.015625)"/>
    </defs>
    <use xlink:href="#DejaVuSans-41"/>
    <use xlink:href="#DejaVuSans-6d" transform="translate(68.408203 0)"/>
    <use xlink:href="#DejaVuSans-70" transform="translate(165.820312 0)"/>
    <use xlink:href="#DejaVuSans-6c" transform="translate(229.296875 0)"/>
    <use xlink:href="#DejaVuSans-69" transform="translate(257.080078 0)"/>
    <use xlink:href="#DejaVuSans-74" transform="translate(284.863281 0)"/>
    <use xlink:href="#DejaVuSans-75" transform="translate(324.072266 0)"/>
    <use xlink:href="#DejaVuSans-64" transform="translate(387.451172 0)"/>
    <use xlink:href="#DejaVuSans-65" transform="translate(450.927734 0)"/>
    <use xlink:href="#DejaVuSans-20" transform="translate(512.451172 0)"/>
    <use xlink:href="#DejaVuSans-76" transform="translate(544.238281 0)"/>
    <use xlink:href="#DejaVuSans-73" transform="translate(603.417969 0)"/>
    <use xlink:href="#DejaVuSans-20" transform="translate(655.517578 0)"/>
    <use xlink:href="#DejaVuSans-54" transform="translate(687.304688 0)"/>
    <use xlink:href="#DejaVuSans-69" transform="translate(745.263672 0)"/>
    <use xlink:href="#DejaVuSans-6d" transform="translate(773.046875 0)"/>
    <use xlink:href="#DejaVuSans-65" transform="translate(870.458984 0)"/>
    <use xlink:href="#DejaVuSans-20" transform="translate(931.982422 0)"/>
    <use xlink:href="#DejaVuSans-2d" transform="translate(963.769531 0)"/>
    <use xlink:href="#DejaVuSans-20" transform="translate(999.853516 0)"/>
    <use xlink:href="#DejaVuSans-66" transform="translate(1031.640625 0)"/>
    <use xlink:href="#DejaVuSans-69" transform="translate(1066.845703 0)"/>
    <use xlink:href="#DejaVuSans-72" transform="translate(1094.628906 0)"/>
    <use xlink:href="#DejaVuSans-73" transform="translate(1135.742188 0)"/>
    <use xlink:href="#DejaVuSans-74" transform="translate(1187.841797 0)"/>
    <use xlink:href="#DejaVuSans-20" transform="translate(1227.050781 0)"/>
    <use xlink:href="#DejaVuSans-73" transform="translate(1258.837891 0)"/>
    <use xlink:href="#DejaVuSans-65" transform="translate(1310.9375 0)"/>
    <use xlink:href="#DejaVuSans-74" transform="translate(1372.460938 0)"/>
    <use xlink:href="#DejaVuSans-75" transform="translate(1411.669922 0)"/>
    <use xlink:href="#DejaVuSans-70" transform="translate(1475.048828 0)"/>
   </g>
  </g>
 </g>
 <defs>
  <clipPath id="pf4dee27855">
   <rect x="58.523438" y="50.928" width="189.85" height="111.31"/>
  </clipPath>
  <clipPath id="pa3c1e897d2">
   <rect x="262.673437" y="50.928" width="189.85" height="111.31"/>
  </clipPath>
  <clipPath id="p810b0b9241">
   <rect x="58.523438" y="192.618" width="189.85" height="111.31"/>
  </clipPath>
  <clipPath id="pfdd0310d23">
   <rect x="262.673437" y="192.618" width="189.85" height="111.31"/>
  </clipPath>
 </defs>
</svg>
