<?xml version="1.0" encoding="utf-8" standalone="no"?>
<!DOCTYPE svg PUBLIC "-//W3C//DTD SVG 1.1//EN"
  "http://www.w3.org/Graphics/SVG/1.1/DTD/svg11.dtd">
<svg xmlns:xlink="http://www.w3.org/1999/xlink" width="453.360937pt" height="341.48425pt" viewBox="0 0 453.360937 341.48425" xmlns="http://www.w3.org/2000/svg" version="1.1">
 <metadata>
  <rdf:RDF xmlns:dc="http://purl.org/dc/elements/1.1/" xmlns:cc="http://creativecommons.org/ns#" xmlns:rdf="http://www.w3.org/1999/02/22-rdf-syntax-ns#">
   <cc:Work>
    <dc:type rdf:resource="http://purl.org/dc/dcmitype/StillImage"/>
    <dc:date>2026-05-22T20:06:49.890860</dc:date>
    <dc:format>image/svg+xml</dc:format>
    <dc:creator>
     <cc:Agent>
      <dc:title>Matplotlib v3.10.9, https://matplotlib.org/</dc:title>
     </cc:Agent>
    </dc:creator>
   </cc:Work>
  </rdf:RDF>
 </metadata>
 <defs>
  <style type="text/css">*{stroke-linejoin: round; stroke-linecap: butt}</style>
 </defs>
 <g id="figure_1">
  <g id="patch_1">
   <path d="M 0 341.48425 
L 453.360937 341.48425 
L 453.360937 -0 
L 0 -0 
z
" style="fill: #ffffff"/>
  </g>
  <g id="axes_1">
   <g id="patch_2">
    <path d="M 52.160938 169.466118 
L 242.010937 169.466118 
L 242.010937 50.928 
L 52.160938 50.928 
z
" style="fill: #ffffff"/>
   </g>
   <g id="matplotlib.axis_1">
    <g id="xtick_1">
     <g id="line2d_1">
      <defs>
       <path id="m1d19a1700c" d="M 0 0 
L 0 3.5 
" style="stroke: #000000; stroke-width: 0.8"/>
      </defs>
      <g>
       <use xlink:href="#m1d19a1700c" x="59.72642" y="169.466118" style="stroke: #000000; stroke-width: 0.8"/>
      </g>
     </g>
    </g>
    <g id="xtick_2">
     <g id="line2d_2">
      <g>
       <use xlink:href="#m1d19a1700c" x="91.64829" y="169.466118" style="stroke: #000000; stroke-width: 0.8"/>
      </g>
     </g>
    </g>
    <g id="xtick_3">
     <g id="line2d_3">
      <g>
       <use xlink:href="#m1d19a1700c" x="123.57016" y="169.466118" style="stroke: #000000; stroke-width: 0.8"/>
      </g>
     </g>
    </g>
    <g id="xtick_4">
     <g id="line2d_4">
      <g>
       <use xlink:href="#m1d19a1700c" x="155.49203" y="169.466118" style="stroke: #000000; stroke-width: 0.8"/>
      </g>
     </g>
    </g>
    <g id="xtick_5">
     <g id="line2d_5">
      <g>
       <use xlink:href="#m1d19a1700c" x="187.4139" y="169.466118" style="stroke: #000000; stroke-width: 0.8"/>
      </g>
     </g>
    </g>
    <g id="xtick_6">
     <g id="line2d_6">
      <g>
       <use xlink:href="#m1d19a1700c" x="219.335769" y="169.466118" style="stroke: #000000; stroke-width: 0.8"/>
      </g>
     </g>
    </g>
   </g>
   <g id="matplotlib.axis_2">
    <g id="ytick_1">
     <g id="line2d_7">
      <defs>
       <path id="m39d53b3963" d="M 0 0 
L -3.5 0 
" style="stroke: #000000; stroke-width: 0.8"/>
      </defs>
      <g>
       <use xlink:href="#m39d53b3963" x="52.160938" y="147.966378" style="stroke: #000000; stroke-width: 0.8"/>
      </g>
     </g>
     <g id="text_1">
      <!-- −0.2 -->
      <g transform="translate(20.878125 151.765597) scale(0.1 -0.1)">
       <defs>
        <path id="DejaVuSans-2212" d="M 678 2272 
L 4684 2272 
L 4684 1741 
L 678 1741 
L 678 2272 
z
" transform="scale(0.015625)"/>
        <path id="DejaVuSans-30" d="M 2034 4250 
Q 1547 4250 1301 3770 
Q 1056 3291 1056 2328 
Q 1056 1369 1301 889 
Q 1547 409 2034 409 
Q 2525 409 2770 889 
Q 3016 1369 3016 2328 
Q 3016 3291 2770 3770 
Q 2525 4250 2034 4250 
z
M 2034 4750 
Q 2819 4750 3233 4129 
Q 3647 3509 3647 2328 
Q 3647 1150 3233 529 
Q 2819 -91 2034 -91 
Q 1250 -91 836 529 
Q 422 1150 422 2328 
Q 422 3509 836 4129 
Q 1250 4750 2034 4750 
z
" transform="scale(0.015625)"/>
        <path id="DejaVuSans-2e" d="M 684 794 
L 1344 794 
L 1344 0 
L 684 0 
L 684 794 
z
" transform="scale(0.015625)"/>
        <path id="DejaVuSans-32" d="M 1228 531 
L 3431 531 
L 3431 0 
L 469 0 
L 469 531 
Q 828 903 1448 1529 
Q 2069 2156 2228 2338 
Q 2531 2678 2651 2914 
Q 2772 3150 2772 3378 
Q 2772 3750 2511 3984 
Q 2250 4219 1831 4219 
Q 1534 4219 1204 4116 
Q 875 4013 500 3803 
L 500 4441 
Q 881 4594 1212 4672 
Q 1544 4750 1819 4750 
Q 2544 4750 2975 4387 
Q 3406 4025 3406 3419 
Q 3406 3131 3298 2873 
Q 3191 2616 2906 2266 
Q 2828 2175 2409 1742 
Q 1991 1309 1228 531 
z
" transform="scale(0.015625)"/>
       </defs>
       <use xlink:href="#DejaVuSans-2212"/>
       <use xlink:href="#DejaVuSans-30" transform="translate(83.789062 0)"/>
       <use xlink:href="#DejaVuSans-2e" transform="translate(147.412109 0)"/>
       <use xlink:href="#DejaVuSans-32" transform="translate(179.199219 0)"/>
      </g>
     </g>
    </g>
    <g id="ytick_2">
     <g id="line2d_8">
      <g>
       <use xlink:href="#m39d53b3963" x="52.160938" y="116.383405" style="stroke: #000000; stroke-width: 0.8"/>
      </g>
     </g>
     <g id="text_2">
      <!-- 0.0 -->
      <g transform="translate(29.257812 120.182624) scale(0.1 -0.1)">
       <use xlink:href="#DejaVuSans-30"/>
       <use xlink:href="#DejaVuSans-2e" transform="translate(63.623047 0)"/>
       <use xlink:href="#DejaVuSans-30" transform="translate(95.410156 0)"/>
      </g>
     </g>
    </g>
    <g id="ytick_3">
     <g id="line2d_9">
      <g>
       <use xlink:href="#m39d53b3963" x="52.160938" y="84.800432" style="stroke: #000000; stroke-width: 0.8"/>
      </g>
     </g>
     <g id="text_3">
      <!-- 0.2 -->
      <g transform="translate(29.257812 88.599651) scale(0.1 -0.1)">
       <use xlink:href="#DejaVuSans-30"/>
       <use xlink:href="#DejaVuSans-2e" transform="translate(63.623047 0)"/>
       <use xlink:href="#DejaVuSans-32" transform="translate(95.410156 0)"/>
      </g>
     </g>
    </g>
    <g id="ytick_4">
     <g id="line2d_10">
      <g>
       <use xlink:href="#m39d53b3963" x="52.160938" y="53.217459" style="stroke: #000000; stroke-width: 0.8"/>
      </g>
     </g>
     <g id="text_4">
      <!-- 0.4 -->
      <g transform="translate(29.257812 57.016678) scale(0.1 -0.1)">
       <defs>
        <path id="DejaVuSans-34" d="M 2419 4116 
L 825 1625 
L 2419 1625 
L 2419 4116 
z
M 2253 4666 
L 3047 4666 
L 3047 1625 
L 3713 1625 
L 3713 1100 
L 3047 1100 
L 3047 0 
L 2419 0 
L 2419 1100 
L 313 1100 
L 313 1709 
L 2253 4666 
z
" transform="scale(0.015625)"/>
       </defs>
       <use xlink:href="#DejaVuSans-30"/>
       <use xlink:href="#DejaVuSans-2e" transform="translate(63.623047 0)"/>
       <use xlink:href="#DejaVuSans-34" transform="translate(95.410156 0)"/>
      </g>
     </g>
    </g>
    <g id="text_5">
     <!-- Amplitude -->
     <g transform="translate(14.798437 135.819715) rotate(-90) scale(0.1 -0.1)">
      <defs>
       <path id="DejaVuSans-41" d="M 2188 4044 
L 1331 1722 
L 3047 1722 
L 2188 4044 
z
M 1831 4666 
L 2547 4666 
L 4325 0 
L 3669 0 
L 3244 1197 
L 1141 1197 
L 716 0 
L 50 0 
L 1831 4666 
z
" transform="scale(0.015625)"/>
       <path id="DejaVuSans-6d" d="M 3328 2828 
Q 3544 3216 3844 3400 
Q 4144 3584 4550 3584 
Q 5097 3584 5394 3201 
Q 5691 2819 5691 2113 
L 5691 0 
L 5113 0 
L 5113 2094 
Q 5113 2597 4934 2840 
Q 4756 3084 4391 3084 
Q 3944 3084 3684 2787 
Q 3425 2491 3425 1978 
L 3425 0 
L 2847 0 
L 2847 2094 
Q 2847 2600 2669 2842 
Q 2491 3084 2119 3084 
Q 1678 3084 1418 2786 
Q 1159 2488 1159 1978 
L 1159 0 
L 581 0 
L 581 3500 
L 1159 3500 
L 1159 2956 
Q 1356 3278 1631 3431 
Q 1906 3584 2284 3584 
Q 2666 3584 2933 3390 
Q 3200 3197 3328 2828 
z
" transform="scale(0.015625)"/>
       <path id="DejaVuSans-70" d="M 1159 525 
L 1159 -1331 
L 581 -1331 
L 581 3500 
L 1159 3500 
L 1159 2969 
Q 1341 3281 1617 3432 
Q 1894 3584 2278 3584 
Q 2916 3584 3314 3078 
Q 3713 2572 3713 1747 
Q 3713 922 3314 415 
Q 2916 -91 2278 -91 
Q 1894 -91 1617 61 
Q 1341 213 1159 525 
z
M 3116 1747 
Q 3116 2381 2855 2742 
Q 2594 3103 2138 3103 
Q 1681 3103 1420 2742 
Q 1159 2381 1159 1747 
Q 1159 1113 1420 752 
Q 1681 391 2138 391 
Q 2594 391 2855 752 
Q 3116 1113 3116 1747 
z
" transform="scale(0.015625)"/>
       <path id="DejaVuSans-6c" d="M 603 4863 
L 1178 4863 
L 1178 0 
L 603 0 
L 603 4863 
z
" transform="scale(0.015625)"/>
       <path id="DejaVuSans-69" d="M 603 3500 
L 1178 3500 
L 1178 0 
L 603 0 
L 603 3500 
z
M 603 4863 
L 1178 4863 
L 1178 4134 
L 603 4134 
L 603 4863 
z
" transform="scale(0.015625)"/>
       <path id="DejaVuSans-74" d="M 1172 4494 
L 1172 3500 
L 2356 3500 
L 2356 3053 
L 1172 3053 
L 1172 1153 
Q 1172 725 1289 603 
Q 1406 481 1766 481 
L 2356 481 
L 2356 0 
L 1766 0 
Q 1100 0 847 248 
Q 594 497 594 1153 
L 594 3053 
L 172 3053 
L 172 3500 
L 594 3500 
L 594 4494 
L 1172 4494 
z
" transform="scale(0.015625)"/>
       <path id="DejaVuSans-75" d="M 544 1381 
L 544 3500 
L 1119 3500 
L 1119 1403 
Q 1119 906 1312 657 
Q 1506 409 1894 409 
Q 2359 409 2629 706 
Q 2900 1003 2900 1516 
L 2900 3500 
L 3475 3500 
L 3475 0 
L 2900 0 
L 2900 538 
Q 2691 219 2414 64 
Q 2138 -91 1772 -91 
Q 1169 -91 856 284 
Q 544 659 544 1381 
z
M 1991 3584 
L 1991 3584 
z
" transform="scale(0.015625)"/>
       <path id="DejaVuSans-64" d="M 2906 2969 
L 2906 4863 
L 3481 4863 
L 3481 0 
L 2906 0 
L 2906 525 
Q 2725 213 2448 61 
Q 2172 -91 1784 -91 
Q 1150 -91 751 415 
Q 353 922 353 1747 
Q 353 2572 751 3078 
Q 1150 3584 1784 3584 
Q 2172 3584 2448 3432 
Q 2725 3281 2906 2969 
z
M 947 1747 
Q 947 1113 1208 752 
Q 1469 391 1925 391 
Q 2381 391 2643 752 
Q 2906 1113 2906 1747 
Q 2906 2381 2643 2742 
Q 2381 3103 1925 3103 
Q 1469 3103 1208 2742 
Q 947 2381 947 1747 
z
" transform="scale(0.015625)"/>
       <path id="DejaVuSans-65" d="M 3597 1894 
L 3597 1613 
L 953 1613 
Q 991 1019 1311 708 
Q 1631 397 2203 397 
Q 2534 397 2845 478 
Q 3156 559 3463 722 
L 3463 178 
Q 3153 47 2828 -22 
Q 2503 -91 2169 -91 
Q 1331 -91 842 396 
Q 353 884 353 1716 
Q 353 2575 817 3079 
Q 1281 3584 2069 3584 
Q 2775 3584 3186 3129 
Q 3597 2675 3597 1894 
z
M 3022 2063 
Q 3016 2534 2758 2815 
Q 2500 3097 2075 3097 
Q 1594 3097 1305 2825 
Q 1016 2553 972 2059 
L 3022 2063 
z
" transform="scale(0.015625)"/>
      </defs>
      <use xlink:href="#DejaVuSans-41"/>
      <use xlink:href="#DejaVuSans-6d" transform="translate(68.408203 0)"/>
      <use xlink:href="#DejaVuSans-70" transform="translate(165.820312 0)"/>
      <use xlink:href="#DejaVuSans-6c" transform="translate(229.296875 0)"/>
      <use xlink:href="#DejaVuSans-69" transform="translate(257.080078 0)"/>
      <use xlink:href="#DejaVuSans-74" transform="translate(284.863281 0)"/>
      <use xlink:href="#DejaVuSans-75" transform="translate(324.072266 0)"/>
      <use xlink:href="#DejaVuSans-64" transform="translate(387.451172 0)"/>
      <use xlink:href="#DejaVuSans-65" transform="translate(450.927734 0)"/>
     </g>
    </g>
   </g>
   <g id="line2d_11">
    <path d="M 60.790483 105.072668 
L 61.216107 105.033396 
L 61.641733 104.776574 
L 62.067358 104.988146 
L 62.492982 105.158183 
L 62.705795 105.155676 
L 63.344233 106.598587 
L 63.769857 106.942195 
L 64.195482 108.703519 
L 64.621107 111.017341 
L 64.83392 111.054451 
L 65.259545 113.679993 
L 65.685169 116.84845 
L 65.897982 116.889618 
L 66.323605 119.285672 
L 66.749232 121.055989 
L 66.962042 121.014016 
L 67.174859 121.717681 
L 67.387669 121.89495 
L 68.026107 121.843263 
L 68.451734 120.667794 
L 68.877354 117.661353 
L 69.090171 117.798403 
L 69.941419 108.121 
L 70.154229 108.161342 
L 71.005483 97.795736 
L 71.218294 97.766174 
L 71.856731 92.074433 
L 72.069541 91.125665 
L 72.282358 91.052708 
L 72.495168 90.503243 
L 72.707979 90.410342 
L 73.133606 91.782654 
L 73.346416 91.853368 
L 73.772043 96.187642 
L 74.19767 102.305897 
L 74.410481 102.330546 
L 75.048918 113.625729 
L 75.261728 119.002324 
L 75.474545 119.150604 
L 76.325793 131.305305 
L 76.538603 131.332583 
L 76.96423 134.726765 
L 77.17704 134.93387 
L 77.602667 134.945698 
L 77.815478 134.703677 
L 78.028295 133.196948 
L 78.453915 127.687389 
L 78.666732 127.746174 
L 79.305169 116.635659 
L 79.51798 110.410738 
L 79.73079 110.393811 
L 79.943607 106.812718 
L 80.369227 97.097058 
L 80.582044 92.832677 
L 80.794854 92.829535 
L 81.220482 84.209041 
L 81.646102 79.75641 
L 81.858919 79.663304 
L 82.071729 79.026559 
L 82.28454 79.062943 
L 82.497356 79.6775 
L 82.710167 81.313988 
L 82.922977 81.367379 
L 83.135794 83.749698 
L 83.561414 92.126814 
L 83.774231 97.202055 
L 83.987041 97.256488 
L 84.412669 108.576145 
L 84.625479 118.974311 
L 84.838289 123.379956 
L 85.051106 123.378698 
L 85.902354 141.18943 
L 86.115164 141.153031 
L 86.540791 145.40432 
L 86.753601 145.670075 
L 86.966418 145.327684 
L 87.179228 145.384091 
L 87.604855 141.227788 
L 88.030476 133.179215 
L 88.243293 133.176609 
L 88.668914 121.705852 
L 89.094541 106.15738 
L 89.307351 106.121355 
L 89.945788 85.870937 
L 90.158605 82.327122 
L 90.371415 82.363759 
L 91.009853 71.14596 
L 91.222663 69.607933 
L 91.64829 69.611959 
L 91.861101 69.895164 
L 92.073917 71.797296 
L 92.286728 74.894338 
L 92.499538 74.929064 
L 92.925165 84.100554 
L 93.350792 97.368371 
L 93.563602 97.336441 
L 94.41485 126.851561 
L 94.627667 126.947166 
L 95.053288 140.927481 
L 95.478915 150.483194 
L 95.691725 150.557114 
L 95.904542 152.941976 
L 96.117352 153.620394 
L 96.330162 153.634511 
L 96.542979 152.668072 
L 96.755789 152.763848 
L 96.9686 150.639577 
L 97.394227 141.744106 
L 97.607037 135.741131 
L 97.819854 135.842986 
L 98.458291 111.498718 
L 98.671102 102.574178 
L 98.883912 102.529735 
L 99.735166 73.648895 
L 99.947976 73.60539 
L 100.586414 63.683772 
L 100.799224 63.17876 
L 101.012041 63.127359 
L 101.224851 63.787301 
L 101.437661 65.005172 
L 101.863289 72.692705 
L 102.076099 72.713028 
L 102.501726 85.079784 
L 102.927353 102.475609 
L 103.140163 102.455658 
L 103.991411 137.408727 
L 104.204228 137.472478 
L 104.629848 150.698227 
L 105.055476 157.464468 
L 105.268286 157.562691 
L 105.481103 159.269024 
L 105.693913 159.641435 
L 105.906723 159.058477 
L 106.11954 157.071371 
L 106.33235 157.096558 
L 106.757977 148.615693 
L 107.183598 133.828466 
L 107.396415 133.881588 
L 107.822035 115.694834 
L 108.247662 94.813293 
L 108.460473 94.719902 
L 109.09891 72.127512 
L 109.311727 66.996431 
L 109.524537 66.998926 
L 109.950164 60.599253 
L 110.162975 59.334023 
L 110.588602 59.268694 
L 110.801412 60.327971 
L 111.227039 67.895062 
L 111.439849 73.190768 
L 111.65266 73.224183 
L 112.078287 90.366726 
L 112.503914 110.937207 
L 112.716724 110.67176 
L 113.567972 146.487979 
L 113.780789 146.388493 
L 114.206409 157.120545 
L 114.419226 161.214157 
L 114.632036 162.964248 
L 114.844847 163.032783 
L 115.057664 163.640961 
L 115.270474 163.089932 
L 115.483284 161.25733 
L 115.696101 157.547421 
L 115.908911 157.569481 
L 116.334538 146.950544 
L 116.760159 131.225598 
L 116.972976 131.256552 
L 117.824223 89.310512 
L 118.037034 89.328752 
L 118.675471 65.618972 
L 118.888288 61.023049 
L 119.101098 60.956961 
L 119.526725 56.706525 
L 119.739536 56.465184 
L 119.952346 57.422543 
L 120.165163 57.450146 
L 120.377973 59.732237 
L 120.590783 63.226103 
L 121.01641 76.350281 
L 121.229221 76.312508 
L 121.654848 93.623657 
L 122.080475 116.612859 
L 122.293285 116.581872 
L 123.144533 151.080775 
L 123.35735 151.07228 
L 123.782951 160.525616 
L 123.995806 163.071109 
L 124.208597 163.989621 
L 124.421389 164.078022 
L 124.634244 163.998006 
L 124.847035 162.553701 
L 125.698263 150.077353 
L 126.12391 134.309759 
L 126.336701 124.753046 
L 126.549556 124.73326 
L 127.400784 83.698834 
L 127.613576 83.663193 
L 128.252013 63.450264 
L 128.464868 59.325417 
L 128.677659 59.30124 
L 128.89045 56.800705 
L 129.103305 56.316096 
L 129.316097 56.67112 
L 129.528888 58.414201 
L 129.741743 58.420249 
L 129.954534 60.902244 
L 130.592971 79.134384 
L 130.805763 79.02607 
L 131.231409 96.401158 
L 131.657055 120.660654 
L 131.869846 120.591037 
L 132.295492 140.00769 
L 132.721075 154.349424 
L 132.93393 154.476087 
L 133.359512 161.54393 
L 133.572367 163.152514 
L 133.785158 163.568872 
L 133.99795 163.675449 
L 134.210805 162.738382 
L 134.423596 160.638667 
L 134.849242 152.205098 
L 135.062033 152.222089 
L 135.487679 139.109281 
L 135.913262 120.947544 
L 136.126117 120.869647 
L 136.977345 80.64885 
L 137.190136 80.604492 
L 137.828574 63.497196 
L 138.041429 60.618297 
L 138.25422 60.51919 
L 138.467011 59.050282 
L 138.679866 58.68763 
L 138.892657 59.388756 
L 139.105449 61.684491 
L 139.318304 61.77744 
L 139.956741 77.55075 
L 140.169532 85.990747 
L 140.382323 85.88387 
L 140.80797 104.461075 
L 141.233616 124.444182 
L 141.446407 124.36245 
L 142.084844 147.547857 
L 142.297636 152.236712 
L 142.510491 152.369076 
L 142.936073 158.073751 
L 143.148928 159.069167 
L 143.361719 158.91629 
L 143.57451 158.932492 
L 143.787365 157.584325 
L 144.000157 155.21794 
L 144.425803 145.901105 
L 144.638594 145.824927 
L 145.06424 131.919114 
L 145.489823 112.277679 
L 145.702678 112.166644 
L 146.553906 80.337474 
L 146.766697 80.330952 
L 147.192344 70.653392 
L 147.405135 67.081484 
L 147.61799 65.404886 
L 147.830781 65.407255 
L 148.043572 64.706429 
L 148.256427 65.125045 
L 148.469218 66.97227 
L 148.68201 69.923936 
L 148.894865 69.8924 
L 149.107656 73.800683 
L 149.746093 92.653317 
L 149.958884 92.533018 
L 150.810177 125.39381 
L 151.022968 125.328213 
L 151.661405 143.82593 
L 151.874197 147.197017 
L 152.087052 147.222363 
L 152.512634 151.384383 
L 152.725489 151.775017 
L 152.93828 150.693158 
L 153.151071 150.628744 
L 153.576718 144.627932 
L 154.002364 135.668411 
L 154.215155 135.691245 
L 154.853592 117.985235 
L 155.066384 109.60747 
L 155.279239 109.580635 
L 156.130467 84.170999 
L 156.343258 84.203672 
L 156.768905 76.257617 
L 157.194551 73.083939 
L 157.407342 73.260803 
L 157.620133 72.809988 
L 157.832988 73.46764 
L 158.258571 79.056942 
L 158.471426 78.910997 
L 159.109863 93.643775 
L 159.322654 100.670726 
L 159.535445 100.697335 
L 159.961092 111.36353 
L 160.386738 124.253783 
L 160.599529 124.274471 
L 161.237966 137.719725 
L 161.450758 140.757075 
L 161.663613 140.647782 
L 161.876404 142.564032 
L 162.089195 143.468853 
L 162.30205 143.61066 
L 162.514841 142.941496 
L 162.727632 142.784055 
L 163.153279 138.57425 
L 163.578925 132.009005 
L 163.791716 131.88644 
L 164.430153 116.930715 
L 164.642944 111.359666 
L 164.8558 111.247561 
L 165.707028 92.810301 
L 165.919819 92.847158 
L 166.345465 86.334749 
L 166.771112 83.737049 
L 167.196694 83.641085 
L 167.409549 84.393944 
L 167.62234 85.633117 
L 167.835131 88.021532 
L 168.047987 88.02229 
L 168.473569 94.094148 
L 168.899215 101.303264 
L 169.112006 101.241964 
L 169.963299 118.638635 
L 170.17609 118.651289 
L 170.814527 126.597691 
L 171.027318 128.239927 
L 171.240173 128.301989 
L 171.665756 130.159323 
L 171.878611 130.127745 
L 172.091402 129.451648 
L 172.304193 129.378411 
L 172.729839 126.736059 
L 173.155486 122.430675 
L 173.368277 122.371422 
L 173.793923 116.242331 
L 174.219505 110.053922 
L 174.43236 110.054091 
L 175.283589 99.76743 
L 175.49638 99.890445 
L 175.922026 96.619823 
L 176.347673 95.156047 
L 176.773255 95.043154 
L 176.98611 95.256828 
L 177.411692 96.955455 
L 177.624547 96.908128 
L 177.837339 97.912483 
L 178.475776 103.252175 
L 178.688567 103.386301 
L 179.53986 111.040768 
L 179.752651 110.944838 
L 180.603879 116.882905 
L 180.816734 116.971648 
L 181.242317 118.365798 
L 181.455172 118.513325 
L 182.519192 118.197531 
L 182.732047 118.205009 
L 183.583275 114.81813 
L 183.796066 114.780396 
L 184.647359 111.012869 
L 184.86015 110.785143 
L 185.711379 107.456833 
L 185.924234 107.396458 
L 186.562671 105.401732 
L 186.775462 104.846231 
L 187.201108 104.502502 
L 187.839546 103.097188 
L 188.690774 102.841214 
L 189.542003 103.085668 
L 189.754858 103.715184 
L 189.967649 103.974471 
L 190.18044 103.943431 
L 190.818878 106.577527 
L 191.031733 107.467084 
L 191.244524 107.422215 
L 191.67017 109.356017 
L 192.095753 112.561941 
L 192.308608 112.580898 
L 192.947045 117.126226 
L 193.159836 118.513786 
L 193.372627 118.670032 
L 194.011065 121.136709 
L 194.436711 121.347019 
L 194.862357 121.349281 
L 195.075148 120.961649 
L 195.287939 120.321289 
L 195.500795 120.390217 
L 195.926377 117.727904 
L 196.352023 114.131745 
L 196.564814 114.25366 
L 197.416107 104.834974 
L 197.628898 104.697317 
L 198.054544 100.42464 
L 198.480126 96.916687 
L 198.692981 96.946991 
L 199.118564 95.145546 
L 199.331419 94.639429 
L 199.757001 94.790269 
L 199.969856 95.369532 
L 200.395439 98.210721 
L 200.608294 100.157448 
L 200.821085 100.023125 
L 201.459522 108.921194 
L 201.672313 111.59638 
L 201.885168 111.632807 
L 202.736397 123.96657 
L 202.949188 123.960497 
L 203.374834 128.370292 
L 203.587626 129.989019 
L 203.800481 130.75513 
L 204.226063 131.065938 
L 204.438918 130.987352 
L 204.651709 130.136934 
L 204.8645 128.456325 
L 205.077355 128.415727 
L 205.502938 123.864643 
L 205.928584 117.139139 
L 206.141375 117.045938 
L 206.992668 100.261119 
L 207.205459 100.340187 
L 208.056687 87.569169 
L 208.269542 87.672367 
L 208.695125 84.783188 
L 208.90798 84.302053 
L 209.333562 84.267959 
L 209.546417 85.263044 
L 209.759208 87.088034 
L 210.184855 93.214989 
L 210.397646 93.200335 
L 211.036083 106.610173 
L 211.248874 111.547495 
L 211.461729 111.681699 
L 212.100167 125.916713 
L 212.312958 130.122501 
L 212.525749 130.113176 
L 212.951395 136.361626 
L 213.377042 139.800269 
L 213.589833 139.784004 
L 213.802624 140.130137 
L 214.015479 139.907999 
L 214.22827 138.610239 
L 214.441061 136.060766 
L 214.653916 136.15223 
L 215.079499 129.353155 
L 215.505145 119.608117 
L 215.717936 119.65417 
L 216.356374 100.593256 
L 216.569229 95.252249 
L 216.78202 95.241195 
L 217.420457 82.096472 
L 217.633248 79.293483 
L 217.846103 79.363218 
L 218.271686 76.552002 
L 218.484541 76.332832 
L 218.697332 77.024815 
L 218.910123 77.162438 
L 219.122978 78.627951 
L 219.335769 81.008059 
L 219.761416 89.069898 
L 219.974207 89.082325 
L 220.825435 112.71312 
L 221.03829 112.654454 
L 221.676728 131.276153 
L 221.889519 136.289127 
L 222.10231 136.262234 
L 222.527956 143.41633 
L 222.953603 145.952632 
L 223.166394 146.000591 
L 223.379185 145.861926 
L 223.59204 144.782957 
L 224.017622 138.901797 
L 224.230477 138.890711 
L 224.65606 129.277333 
L 225.081706 117.076753 
L 225.294497 117.052805 
L 226.14579 88.821671 
L 226.358581 88.878205 
L 226.997018 73.789629 
L 227.209809 70.721453 
L 227.422664 70.664194 
L 227.635455 69.163371 
L 227.848247 68.722078 
L 228.061102 68.734979 
L 228.273893 70.248767 
L 228.486684 70.189786 
L 228.699539 72.732894 
L 229.125121 81.759939 
L 229.337976 86.96006 
L 229.550768 86.861253 
L 230.189205 109.859938 
L 230.401996 119.269595 
L 230.614851 119.223479 
L 231.46608 144.518023 
L 231.678871 144.53143 
L 232.104517 151.517268 
L 232.317308 152.974033 
L 232.742955 153.250968 
L 232.955746 152.613623 
L 233.381392 148.742451 
L 233.381392 148.742451 
" clip-path="url(#p75e25c75a9)" style="fill: none; stroke: #0000ff; stroke-opacity: 0.4; stroke-width: 1.5; stroke-linecap: square"/>
   </g>
   <g id="line2d_12">
    <defs>
     <path id="m416691d9f0" d="M -4.5 4.5 
L 4.5 -4.5 
M -4.5 -4.5 
L 4.5 4.5 
" style="stroke: #ff0000; stroke-width: 2"/>
    </defs>
    <g clip-path="url(#p75e25c75a9)">
     <use xlink:href="#m416691d9f0" x="124.421389" y="164.078022" style="fill: #ff0000; stroke: #ff0000; stroke-width: 2"/>
     <use xlink:href="#m416691d9f0" x="129.103305" y="56.316096" style="fill: #ff0000; stroke: #ff0000; stroke-width: 2"/>
    </g>
   </g>
   <g id="patch_3">
    <path d="M 52.160938 169.466118 
L 52.160938 50.928 
" style="fill: none; stroke: #000000; stroke-width: 0.8; stroke-linejoin: miter; stroke-linecap: square"/>
   </g>
   <g id="patch_4">
    <path d="M 242.010937 169.466118 
L 242.010937 50.928 
" style="fill: none; stroke: #000000; stroke-width: 0.8; stroke-linejoin: miter; stroke-linecap: square"/>
   </g>
   <g id="patch_5">
    <path d="M 52.160938 169.466118 
L 242.010937 169.466118 
" style="fill: none; stroke: #000000; stroke-width: 0.8; stroke-linejoin: miter; stroke-linecap: square"/>
   </g>
   <g id="patch_6">
    <path d="M 52.160938 50.928 
L 242.010937 50.928 
" style="fill: none; stroke: #000000; stroke-width: 0.8; stroke-linejoin: miter; stroke-linecap: square"/>
   </g>
   <g id="text_6">
    <!-- 50cm (2 env peaks) -->
    <g transform="translate(87.264062 44.928) scale(0.12 -0.12)">
     <defs>
      <path id="DejaVuSans-35" d="M 691 4666 
L 3169 4666 
L 3169 4134 
L 1269 4134 
L 1269 2991 
Q 1406 3038 1543 3061 
Q 1681 3084 1819 3084 
Q 2600 3084 3056 2656 
Q 3513 2228 3513 1497 
Q 3513 744 3044 326 
Q 2575 -91 1722 -91 
Q 1428 -91 1123 -41 
Q 819 9 494 109 
L 494 744 
Q 775 591 1075 516 
Q 1375 441 1709 441 
Q 2250 441 2565 725 
Q 2881 1009 2881 1497 
Q 2881 1984 2565 2268 
Q 2250 2553 1709 2553 
Q 1456 2553 1204 2497 
Q 953 2441 691 2322 
L 691 4666 
z
" transform="scale(0.015625)"/>
      <path id="DejaVuSans-63" d="M 3122 3366 
L 3122 2828 
Q 2878 2963 2633 3030 
Q 2388 3097 2138 3097 
Q 1578 3097 1268 2742 
Q 959 2388 959 1747 
Q 959 1106 1268 751 
Q 1578 397 2138 397 
Q 2388 397 2633 464 
Q 2878 531 3122 666 
L 3122 134 
Q 2881 22 2623 -34 
Q 2366 -91 2075 -91 
Q 1284 -91 818 406 
Q 353 903 353 1747 
Q 353 2603 823 3093 
Q 1294 3584 2113 3584 
Q 2378 3584 2631 3529 
Q 2884 3475 3122 3366 
z
" transform="scale(0.015625)"/>
      <path id="DejaVuSans-20" transform="scale(0.015625)"/>
      <path id="DejaVuSans-28" d="M 1984 4856 
Q 1566 4138 1362 3434 
Q 1159 2731 1159 2009 
Q 1159 1288 1364 580 
Q 1569 -128 1984 -844 
L 1484 -844 
Q 1016 -109 783 600 
Q 550 1309 550 2009 
Q 550 2706 781 3412 
Q 1013 4119 1484 4856 
L 1984 4856 
z
" transform="scale(0.015625)"/>
      <path id="DejaVuSans-6e" d="M 3513 2113 
L 3513 0 
L 2938 0 
L 2938 2094 
Q 2938 2591 2744 2837 
Q 2550 3084 2163 3084 
Q 1697 3084 1428 2787 
Q 1159 2491 1159 1978 
L 1159 0 
L 581 0 
L 581 3500 
L 1159 3500 
L 1159 2956 
Q 1366 3272 1645 3428 
Q 1925 3584 2291 3584 
Q 2894 3584 3203 3211 
Q 3513 2838 3513 2113 
z
" transform="scale(0.015625)"/>
      <path id="DejaVuSans-76" d="M 191 3500 
L 800 3500 
L 1894 563 
L 2988 3500 
L 3597 3500 
L 2284 0 
L 1503 0 
L 191 3500 
z
" transform="scale(0.015625)"/>
      <path id="DejaVuSans-61" d="M 2194 1759 
Q 1497 1759 1228 1600 
Q 959 1441 959 1056 
Q 959 750 1161 570 
Q 1363 391 1709 391 
Q 2188 391 2477 730 
Q 2766 1069 2766 1631 
L 2766 1759 
L 2194 1759 
z
M 3341 1997 
L 3341 0 
L 2766 0 
L 2766 531 
Q 2569 213 2275 61 
Q 1981 -91 1556 -91 
Q 1019 -91 701 211 
Q 384 513 384 1019 
Q 384 1609 779 1909 
Q 1175 2209 1959 2209 
L 2766 2209 
L 2766 2266 
Q 2766 2663 2505 2880 
Q 2244 3097 1772 3097 
Q 1472 3097 1187 3025 
Q 903 2953 641 2809 
L 641 3341 
Q 956 3463 1253 3523 
Q 1550 3584 1831 3584 
Q 2591 3584 2966 3190 
Q 3341 2797 3341 1997 
z
" transform="scale(0.015625)"/>
      <path id="DejaVuSans-6b" d="M 581 4863 
L 1159 4863 
L 1159 1991 
L 2875 3500 
L 3609 3500 
L 1753 1863 
L 3688 0 
L 2938 0 
L 1159 1709 
L 1159 0 
L 581 0 
L 581 4863 
z
" transform="scale(0.015625)"/>
      <path id="DejaVuSans-73" d="M 2834 3397 
L 2834 2853 
Q 2591 2978 2328 3040 
Q 2066 3103 1784 3103 
Q 1356 3103 1142 2972 
Q 928 2841 928 2578 
Q 928 2378 1081 2264 
Q 1234 2150 1697 2047 
L 1894 2003 
Q 2506 1872 2764 1633 
Q 3022 1394 3022 966 
Q 3022 478 2636 193 
Q 2250 -91 1575 -91 
Q 1294 -91 989 -36 
Q 684 19 347 128 
L 347 722 
Q 666 556 975 473 
Q 1284 391 1588 391 
Q 1994 391 2212 530 
Q 2431 669 2431 922 
Q 2431 1156 2273 1281 
Q 2116 1406 1581 1522 
L 1381 1569 
Q 847 1681 609 1914 
Q 372 2147 372 2553 
Q 372 3047 722 3315 
Q 1072 3584 1716 3584 
Q 2034 3584 2315 3537 
Q 2597 3491 2834 3397 
z
" transform="scale(0.015625)"/>
      <path id="DejaVuSans-29" d="M 513 4856 
L 1013 4856 
Q 1481 4119 1714 3412 
Q 1947 2706 1947 2009 
Q 1947 1309 1714 600 
Q 1481 -109 1013 -844 
L 513 -844 
Q 928 -128 1133 580 
Q 1338 1288 1338 2009 
Q 1338 2731 1133 3434 
Q 928 4138 513 4856 
z
" transform="scale(0.015625)"/>
     </defs>
     <use xlink:href="#DejaVuSans-35"/>
     <use xlink:href="#DejaVuSans-30" transform="translate(63.623047 0)"/>
     <use xlink:href="#DejaVuSans-63" transform="translate(127.246094 0)"/>
     <use xlink:href="#DejaVuSans-6d" transform="translate(182.226562 0)"/>
     <use xlink:href="#DejaVuSans-20" transform="translate(279.638672 0)"/>
     <use xlink:href="#DejaVuSans-28" transform="translate(311.425781 0)"/>
     <use xlink:href="#DejaVuSans-32" transform="translate(350.439453 0)"/>
     <use xlink:href="#DejaVuSans-20" transform="translate(414.0625 0)"/>
     <use xlink:href="#DejaVuSans-65" transform="translate(445.849609 0)"/>
     <use xlink:href="#DejaVuSans-6e" transform="translate(507.373047 0)"/>
     <use xlink:href="#DejaVuSans-76" transform="translate(570.751953 0)"/>
     <use xlink:href="#DejaVuSans-20" transform="translate(629.931641 0)"/>
     <use xlink:href="#DejaVuSans-70" transform="translate(661.71875 0)"/>
     <use xlink:href="#DejaVuSans-65" transform="translate(725.195312 0)"/>
     <use xlink:href="#DejaVuSans-61" transform="translate(786.71875 0)"/>
     <use xlink:href="#DejaVuSans-6b" transform="translate(847.998047 0)"/>
     <use xlink:href="#DejaVuSans-73" transform="translate(905.908203 0)"/>
     <use xlink:href="#DejaVuSans-29" transform="translate(958.007812 0)"/>
    </g>
   </g>
  </g>
  <g id="axes_2">
   <g id="patch_7">
    <path d="M 256.310937 169.466118 
L 446.160937 169.466118 
L 446.160937 50.928 
L 256.310937 50.928 
z
" style="fill: #ffffff"/>
   </g>
   <g id="matplotlib.axis_3">
    <g id="xtick_7">
     <g id="line2d_13">
      <g>
       <use xlink:href="#m1d19a1700c" x="263.87642" y="169.466118" style="stroke: #000000; stroke-width: 0.8"/>
      </g>
     </g>
    </g>
    <g id="xtick_8">
     <g id="line2d_14">
      <g>
       <use xlink:href="#m1d19a1700c" x="295.79829" y="169.466118" style="stroke: #000000; stroke-width: 0.8"/>
      </g>
     </g>
    </g>
    <g id="xtick_9">
     <g id="line2d_15">
      <g>
       <use xlink:href="#m1d19a1700c" x="327.72016" y="169.466118" style="stroke: #000000; stroke-width: 0.8"/>
      </g>
     </g>
    </g>
    <g id="xtick_10">
     <g id="line2d_16">
      <g>
       <use xlink:href="#m1d19a1700c" x="359.64203" y="169.466118" style="stroke: #000000; stroke-width: 0.8"/>
      </g>
     </g>
    </g>
    <g id="xtick_11">
     <g id="line2d_17">
      <g>
       <use xlink:href="#m1d19a1700c" x="391.5639" y="169.466118" style="stroke: #000000; stroke-width: 0.8"/>
      </g>
     </g>
    </g>
    <g id="xtick_12">
     <g id="line2d_18">
      <g>
       <use xlink:href="#m1d19a1700c" x="423.485769" y="169.466118" style="stroke: #000000; stroke-width: 0.8"/>
      </g>
     </g>
    </g>
   </g>
   <g id="matplotlib.axis_4">
    <g id="ytick_5">
     <g id="line2d_19">
      <g>
       <use xlink:href="#m39d53b3963" x="256.310937" y="147.966378" style="stroke: #000000; stroke-width: 0.8"/>
      </g>
     </g>
    </g>
    <g id="ytick_6">
     <g id="line2d_20">
      <g>
       <use xlink:href="#m39d53b3963" x="256.310937" y="116.383405" style="stroke: #000000; stroke-width: 0.8"/>
      </g>
     </g>
    </g>
    <g id="ytick_7">
     <g id="line2d_21">
      <g>
       <use xlink:href="#m39d53b3963" x="256.310937" y="84.800432" style="stroke: #000000; stroke-width: 0.8"/>
      </g>
     </g>
    </g>
    <g id="ytick_8">
     <g id="line2d_22">
      <g>
       <use xlink:href="#m39d53b3963" x="256.310937" y="53.217459" style="stroke: #000000; stroke-width: 0.8"/>
      </g>
     </g>
    </g>
   </g>
   <g id="line2d_23">
    <path d="M 264.940483 110.228066 
L 265.366107 105.858847 
L 265.57892 104.316098 
L 265.791733 104.213881 
L 266.43017 99.698421 
L 266.642982 99.060113 
L 267.28142 98.881053 
L 267.919857 100.595571 
L 268.345482 103.724457 
L 268.771107 108.322279 
L 268.98392 108.427765 
L 269.835169 119.181843 
L 270.047982 119.080792 
L 270.899232 126.382478 
L 271.112042 126.413494 
L 271.537669 127.971091 
L 271.75048 127.919595 
L 271.963296 126.937753 
L 272.176107 126.893575 
L 272.388917 126.005635 
L 272.814544 121.686487 
L 273.027354 119.091549 
L 273.240171 119.027391 
L 273.878608 109.755583 
L 274.091419 106.094507 
L 274.304229 105.984595 
L 274.942666 96.977153 
L 275.155483 95.036695 
L 275.368294 94.995448 
L 275.793921 92.428905 
L 276.006731 91.894252 
L 276.219541 92.070059 
L 276.432358 91.963135 
L 276.645168 92.669535 
L 277.070795 95.846435 
L 277.283606 98.432338 
L 277.496416 98.477502 
L 278.34767 112.706632 
L 278.560481 112.786029 
L 279.411728 127.54489 
L 279.624545 127.674017 
L 280.050166 132.239621 
L 280.475793 134.120214 
L 280.688603 134.24754 
L 280.90142 134.199392 
L 281.11423 133.53307 
L 281.32704 132.217908 
L 281.539857 130.179447 
L 281.752667 130.299471 
L 282.178295 124.658136 
L 282.603915 116.91655 
L 282.816732 116.855012 
L 283.66798 100.815324 
L 283.88079 100.726314 
L 284.306417 94.287089 
L 284.732044 90.375301 
L 284.944854 90.476966 
L 285.157665 89.574562 
L 285.370482 89.520129 
L 285.583292 90.443078 
L 285.796102 92.121713 
L 286.008919 92.213493 
L 286.43454 97.266058 
L 286.860167 104.334215 
L 287.072977 104.217541 
L 287.924231 121.446251 
L 288.137041 121.552202 
L 288.775479 132.251212 
L 288.988289 134.452166 
L 289.201106 134.347706 
L 289.626727 136.686772 
L 289.839543 136.736752 
L 290.052354 136.427192 
L 290.265164 136.503259 
L 290.690791 133.658091 
L 291.116418 128.268634 
L 291.329228 128.227319 
L 291.967666 116.435657 
L 292.180476 112.071971 
L 292.393293 112.043273 
L 293.244541 97.180752 
L 293.457351 97.152122 
L 293.882978 92.665066 
L 294.095788 91.388593 
L 294.308605 90.969361 
L 294.521415 90.96227 
L 294.734226 91.378281 
L 295.159853 94.651162 
L 295.372663 97.151507 
L 295.58548 97.13082 
L 296.011101 103.648184 
L 296.436728 111.797321 
L 296.649538 111.924614 
L 297.287975 123.525085 
L 297.500792 126.83585 
L 297.713602 126.879695 
L 298.139229 131.974375 
L 298.56485 134.671321 
L 298.777667 134.813381 
L 298.990477 135.117114 
L 299.203288 135.099365 
L 299.416104 134.409071 
L 299.628915 133.00783 
L 299.841725 132.978726 
L 300.267352 128.889288 
L 300.692979 122.970969 
L 300.905789 122.968187 
L 301.757037 108.246303 
L 301.969854 108.141617 
L 302.608291 99.618832 
L 302.821102 97.848795 
L 303.033912 97.912404 
L 303.459539 96.129703 
L 303.672349 96.147863 
L 303.885166 96.988775 
L 304.097976 97.024843 
L 304.523603 100.341229 
L 304.949224 105.346525 
L 305.162041 105.358295 
L 305.587661 111.527278 
L 306.013289 118.010424 
L 306.226099 118.119592 
L 306.864536 125.598717 
L 307.077353 127.448511 
L 307.290163 127.304513 
L 307.71579 129.95883 
L 307.928601 130.410389 
L 308.141411 130.419054 
L 308.567038 130.066075 
L 308.992665 127.878134 
L 309.205476 126.200485 
L 309.418286 126.033774 
L 310.056723 120.079839 
L 310.26954 117.29489 
L 310.48235 117.249649 
L 310.907977 110.531616 
L 311.333598 106.681899 
L 311.546415 106.701954 
L 312.184852 102.2551 
L 312.397662 101.633088 
L 312.82329 101.413405 
L 313.0361 101.742749 
L 313.24891 102.347651 
L 313.461727 103.489646 
L 313.674537 103.582706 
L 314.312975 107.925286 
L 314.525785 109.713618 
L 314.738602 109.752543 
L 315.589849 116.659468 
L 316.015477 116.987596 
L 316.441097 119.697822 
L 316.653914 120.463145 
L 316.866724 120.428868 
L 317.292351 120.918553 
L 317.505162 120.975715 
L 317.717972 120.827564 
L 317.930789 120.814891 
L 318.356409 119.85453 
L 318.782036 118.19861 
L 318.994847 118.143253 
L 319.207664 117.91702 
L 319.633284 115.285907 
L 319.846101 112.256057 
L 320.058911 112.278317 
L 320.910159 108.883422 
L 321.122976 108.820476 
L 321.548596 107.5539 
L 321.761413 106.897257 
L 322.39985 106.943961 
L 322.825471 106.704113 
L 323.038288 106.769264 
L 323.251098 106.677182 
L 325.592037 109.128365 
L 326.230475 110.347081 
L 326.443285 110.497231 
L 327.294533 112.710675 
L 327.50735 112.728183 
L 327.932951 113.807037 
L 328.358597 114.980499 
L 328.571389 114.869995 
L 328.997035 115.573539 
L 329.209826 116.027941 
L 329.635472 116.239718 
L 330.699556 115.768054 
L 331.125138 114.612774 
L 331.550784 112.439308 
L 331.763576 112.294989 
L 332.402013 108.294707 
L 332.614868 106.720112 
L 332.827659 106.712652 
L 333.678888 101.701261 
L 333.891743 101.688911 
L 334.317325 100.270846 
L 334.53018 100.005423 
L 334.955763 99.994637 
L 335.168618 100.153279 
L 335.381409 100.679345 
L 335.807055 102.725657 
L 336.019846 102.695249 
L 336.658284 107.410403 
L 336.871075 109.445604 
L 337.08393 109.53258 
L 337.935158 117.891154 
L 338.14795 117.927371 
L 338.360805 120.377057 
L 338.999242 123.53668 
L 339.424824 123.789824 
L 339.637679 123.623916 
L 339.850471 123.210793 
L 340.063262 121.936191 
L 340.276117 121.897497 
L 340.701699 118.722017 
L 341.127345 113.737021 
L 341.340136 113.656006 
L 342.191429 102.029434 
L 342.40422 102.150254 
L 343.255449 93.569303 
L 343.468304 93.499694 
L 343.893886 91.820743 
L 344.106741 91.622007 
L 344.319532 92.030675 
L 344.532323 92.094078 
L 344.95797 94.100481 
L 345.383616 98.999758 
L 345.596407 98.999221 
L 346.234844 108.333553 
L 346.447636 111.837674 
L 346.660491 111.822382 
L 347.298928 122.196108 
L 347.511719 124.41235 
L 347.72451 124.498838 
L 348.150157 128.52258 
L 348.362948 129.714341 
L 348.575803 129.942254 
L 348.788594 129.771582 
L 349.001385 129.302841 
L 349.21424 128.244974 
L 349.639823 123.717066 
L 349.852678 123.690491 
L 350.27826 117.561768 
L 350.703906 109.901153 
L 350.916697 109.775177 
L 351.555135 98.167926 
L 351.76799 95.253101 
L 351.980781 95.278415 
L 352.619218 88.220884 
L 352.83201 86.952859 
L 353.044865 86.767562 
L 353.257656 86.258966 
L 353.470447 86.712576 
L 353.683302 87.644084 
L 353.896093 89.277066 
L 354.108884 89.430449 
L 354.534531 94.353397 
L 354.960177 100.868835 
L 355.172968 100.957304 
L 356.024197 118.885604 
L 356.237052 118.88166 
L 356.875489 128.55973 
L 357.08828 131.13631 
L 357.301071 131.11113 
L 357.726718 133.754562 
L 357.939509 133.821249 
L 358.152364 132.900305 
L 358.365155 132.820085 
L 358.790801 128.663069 
L 359.216384 121.746254 
L 359.429239 121.854244 
L 360.280467 104.748974 
L 360.493258 104.799625 
L 361.131696 93.497499 
L 361.344551 90.668296 
L 361.557342 90.749543 
L 361.982988 86.623117 
L 362.195779 85.420959 
L 362.621426 85.599608 
L 362.834217 85.795643 
L 363.259863 89.022286 
L 363.472654 91.70856 
L 363.685445 91.750266 
L 364.536738 106.757698 
L 364.749529 106.68893 
L 365.600758 123.814587 
L 365.813613 123.712258 
L 366.45205 131.28242 
L 366.664841 132.768068 
L 366.877632 132.829149 
L 367.090487 133.037202 
L 367.303279 132.720014 
L 367.728925 129.72594 
L 367.941716 129.765354 
L 368.580153 120.650925 
L 368.792944 116.671391 
L 369.0058 116.670483 
L 369.857028 100.748123 
L 370.069819 100.838369 
L 370.495465 94.954863 
L 370.921112 90.719066 
L 371.133903 90.792749 
L 371.559549 89.317366 
L 371.77234 89.599212 
L 371.985131 90.42247 
L 372.197987 90.409932 
L 372.623569 93.767091 
L 373.049215 99.398193 
L 373.262006 99.248948 
L 374.113299 113.172047 
L 374.32609 113.176508 
L 374.964527 122.830338 
L 375.177318 125.262145 
L 375.390173 125.399073 
L 375.815756 128.03709 
L 376.028611 128.45074 
L 376.241402 128.526937 
L 376.454193 128.428107 
L 376.667048 127.976191 
L 377.092631 125.03689 
L 377.305486 122.727185 
L 377.518277 122.731389 
L 377.943923 117.425965 
L 378.369505 111.218587 
L 378.58236 111.316533 
L 379.433589 101.080822 
L 379.64638 100.92526 
L 380.072026 97.61835 
L 380.497673 96.432031 
L 380.923255 96.578007 
L 381.13611 97.223674 
L 381.561692 99.671544 
L 381.774547 99.610146 
L 382.20013 103.392744 
L 382.625776 108.077633 
L 382.838567 107.982961 
L 383.68986 116.622685 
L 383.902651 116.683376 
L 384.328297 119.97553 
L 384.753879 121.186367 
L 384.966734 121.13546 
L 385.179526 121.220884 
L 385.605172 120.895401 
L 385.817963 120.977112 
L 386.030754 120.540044 
L 386.669192 116.616351 
L 386.882047 116.655878 
L 387.733275 110.097418 
L 387.946066 110.104916 
L 388.584504 106.636785 
L 388.797359 105.809026 
L 389.01015 105.817325 
L 389.435796 105.096832 
L 389.861379 105.596899 
L 390.074234 105.749913 
L 390.287025 106.151102 
L 390.925462 108.763828 
L 391.138253 108.818301 
L 391.989546 112.205973 
L 392.202337 112.302105 
L 392.627983 113.151687 
L 392.840774 113.340249 
L 393.266421 113.21903 
L 393.479212 113.282936 
L 393.904858 113.053077 
L 394.117649 112.468202 
L 394.33044 112.399886 
L 394.543295 112.170482 
L 394.968878 110.781988 
L 395.181733 110.487875 
L 395.394524 110.508645 
L 395.82017 109.63434 
L 396.245753 109.127067 
L 396.458608 109.074677 
L 396.671399 109.370294 
L 396.88419 109.202827 
L 397.097045 109.686195 
L 397.309836 110.449014 
L 397.522627 110.50976 
L 398.161065 112.890003 
L 398.37392 113.74353 
L 398.586711 113.65392 
L 399.650795 116.350074 
L 400.076377 116.349096 
L 400.502023 116.250355 
L 401.14046 116.127583 
L 401.566107 113.232048 
L 401.778898 113.216577 
L 402.630126 107.429726 
L 402.842981 107.44974 
L 403.481419 103.921723 
L 403.69421 103.094454 
L 403.907001 103.094631 
L 404.119856 102.31446 
L 404.332647 101.969568 
L 404.545439 101.939266 
L 404.971085 102.199116 
L 405.396731 104.352852 
L 405.822313 107.622713 
L 406.035168 107.592569 
L 406.886397 115.48577 
L 407.099188 115.398566 
L 407.737626 121.87203 
L 407.950481 123.295396 
L 408.163272 123.365842 
L 408.588918 125.152554 
L 409.227355 124.885823 
L 409.652938 122.996368 
L 410.078584 119.248131 
L 410.291375 119.283766 
L 411.142668 108.274362 
L 411.355459 108.311551 
L 412.206687 98.355544 
L 412.419542 98.300211 
L 412.845125 95.714592 
L 413.05798 94.894461 
L 413.483562 94.895614 
L 413.696417 95.486879 
L 414.122 98.271802 
L 414.334855 99.859068 
L 414.547646 99.970113 
L 414.973292 104.404077 
L 415.398874 111.573251 
L 415.611729 111.515207 
L 416.462958 124.47511 
L 416.675749 124.526236 
L 417.101395 128.998715 
L 417.527042 131.028342 
L 417.952624 131.059525 
L 418.165479 130.63421 
L 418.591061 127.550475 
L 418.803916 127.558497 
L 419.442354 119.261784 
L 419.655145 115.476606 
L 419.867936 115.358582 
L 420.719229 100.161901 
L 420.93202 100.085912 
L 421.570457 92.582887 
L 421.783248 91.187378 
L 421.996103 91.176845 
L 422.208895 90.419438 
L 422.421686 90.234488 
L 422.847332 92.02848 
L 423.060123 92.062179 
L 423.485769 96.384167 
L 423.911416 102.17815 
L 424.124207 102.224575 
L 424.975435 118.056921 
L 425.18829 118.004082 
L 425.613873 125.604534 
L 426.039519 130.969544 
L 426.25231 131.051072 
L 426.677956 133.605174 
L 426.890748 133.671404 
L 427.103603 133.190427 
L 427.316394 133.207481 
L 427.529185 131.949628 
L 427.954831 126.760081 
L 428.167622 123.15825 
L 428.380477 123.160041 
L 429.231706 107.018858 
L 429.444497 107.01116 
L 430.082934 95.767667 
L 430.29579 93.044078 
L 430.508581 93.034808 
L 430.934227 88.992188 
L 431.147018 88.079298 
L 431.572664 87.828797 
L 431.785455 88.179305 
L 432.211102 91.22482 
L 432.423893 93.679638 
L 432.636684 93.582015 
L 433.275121 103.977217 
L 433.487976 107.739814 
L 433.700768 107.902665 
L 434.551996 124.483674 
L 434.764851 124.497035 
L 435.190434 129.952223 
L 435.61608 133.092314 
L 435.828871 133.186747 
L 436.041726 133.565869 
L 436.254517 133.222468 
L 436.467308 132.049787 
L 436.680163 129.986359 
L 436.892955 130.100055 
L 437.318601 124.04645 
L 437.531392 120.643761 
L 437.531392 120.643761 
" clip-path="url(#pf2beb7f492)" style="fill: none; stroke: #008000; stroke-opacity: 0.4; stroke-width: 1.5; stroke-linecap: square"/>
   </g>
   <g id="line2d_24">
    <g clip-path="url(#pf2beb7f492)">
     <use xlink:href="#m416691d9f0" x="289.839543" y="136.736752" style="fill: #ff0000; stroke: #ff0000; stroke-width: 2"/>
     <use xlink:href="#m416691d9f0" x="362.195779" y="85.420959" style="fill: #ff0000; stroke: #ff0000; stroke-width: 2"/>
    </g>
   </g>
   <g id="patch_8">
    <path d="M 256.310937 169.466118 
L 256.310937 50.928 
" style="fill: none; stroke: #000000; stroke-width: 0.8; stroke-linejoin: miter; stroke-linecap: square"/>
   </g>
   <g id="patch_9">
    <path d="M 446.160937 169.466118 
L 446.160937 50.928 
" style="fill: none; stroke: #000000; stroke-width: 0.8; stroke-linejoin: miter; stroke-linecap: square"/>
   </g>
   <g id="patch_10">
    <path d="M 256.310937 169.466118 
L 446.160937 169.466118 
" style="fill: none; stroke: #000000; stroke-width: 0.8; stroke-linejoin: miter; stroke-linecap: square"/>
   </g>
   <g id="patch_11">
    <path d="M 256.310937 50.928 
L 446.160937 50.928 
" style="fill: none; stroke: #000000; stroke-width: 0.8; stroke-linejoin: miter; stroke-linecap: square"/>
   </g>
   <g id="text_7">
    <!-- 40cm (2 env peaks) -->
    <g transform="translate(291.414062 44.928) scale(0.12 -0.12)">
     <use xlink:href="#DejaVuSans-34"/>
     <use xlink:href="#DejaVuSans-30" transform="translate(63.623047 0)"/>
     <use xlink:href="#DejaVuSans-63" transform="translate(127.246094 0)"/>
     <use xlink:href="#DejaVuSans-6d" transform="translate(182.226562 0)"/>
     <use xlink:href="#DejaVuSans-20" transform="translate(279.638672 0)"/>
     <use xlink:href="#DejaVuSans-28" transform="translate(311.425781 0)"/>
     <use xlink:href="#DejaVuSans-32" transform="translate(350.439453 0)"/>
     <use xlink:href="#DejaVuSans-20" transform="translate(414.0625 0)"/>
     <use xlink:href="#DejaVuSans-65" transform="translate(445.849609 0)"/>
     <use xlink:href="#DejaVuSans-6e" transform="translate(507.373047 0)"/>
     <use xlink:href="#DejaVuSans-76" transform="translate(570.751953 0)"/>
     <use xlink:href="#DejaVuSans-20" transform="translate(629.931641 0)"/>
     <use xlink:href="#DejaVuSans-70" transform="translate(661.71875 0)"/>
     <use xlink:href="#DejaVuSans-65" transform="translate(725.195312 0)"/>
     <use xlink:href="#DejaVuSans-61" transform="translate(786.71875 0)"/>
     <use xlink:href="#DejaVuSans-6b" transform="translate(847.998047 0)"/>
     <use xlink:href="#DejaVuSans-73" transform="translate(905.908203 0)"/>
     <use xlink:href="#DejaVuSans-29" transform="translate(958.007812 0)"/>
    </g>
   </g>
  </g>
  <g id="axes_3">
   <g id="patch_12">
    <path d="M 52.160938 303.928 
L 242.010937 303.928 
L 242.010937 185.389882 
L 52.160938 185.389882 
z
" style="fill: #ffffff"/>
   </g>
   <g id="matplotlib.axis_5">
    <g id="xtick_13">
     <g id="line2d_25">
      <g>
       <use xlink:href="#m1d19a1700c" x="59.72642" y="303.928" style="stroke: #000000; stroke-width: 0.8"/>
      </g>
     </g>
     <g id="text_8">
      <!-- 0 -->
      <g transform="translate(56.54517 318.526437) scale(0.1 -0.1)">
       <use xlink:href="#DejaVuSans-30"/>
      </g>
     </g>
    </g>
    <g id="xtick_14">
     <g id="line2d_26">
      <g>
       <use xlink:href="#m1d19a1700c" x="91.64829" y="303.928" style="stroke: #000000; stroke-width: 0.8"/>
      </g>
     </g>
     <g id="text_9">
      <!-- 5 -->
      <g transform="translate(88.46704 318.526437) scale(0.1 -0.1)">
       <use xlink:href="#DejaVuSans-35"/>
      </g>
     </g>
    </g>
    <g id="xtick_15">
     <g id="line2d_27">
      <g>
       <use xlink:href="#m1d19a1700c" x="123.57016" y="303.928" style="stroke: #000000; stroke-width: 0.8"/>
      </g>
     </g>
     <g id="text_10">
      <!-- 10 -->
      <g transform="translate(117.20766 318.526437) scale(0.1 -0.1)">
       <defs>
        <path id="DejaVuSans-31" d="M 794 531 
L 1825 531 
L 1825 4091 
L 703 3866 
L 703 4441 
L 1819 4666 
L 2450 4666 
L 2450 531 
L 3481 531 
L 3481 0 
L 794 0 
L 794 531 
z
" transform="scale(0.015625)"/>
       </defs>
       <use xlink:href="#DejaVuSans-31"/>
       <use xlink:href="#DejaVuSans-30" transform="translate(63.623047 0)"/>
      </g>
     </g>
    </g>
    <g id="xtick_16">
     <g id="line2d_28">
      <g>
       <use xlink:href="#m1d19a1700c" x="155.49203" y="303.928" style="stroke: #000000; stroke-width: 0.8"/>
      </g>
     </g>
     <g id="text_11">
      <!-- 15 -->
      <g transform="translate(149.12953 318.526437) scale(0.1 -0.1)">
       <use xlink:href="#DejaVuSans-31"/>
       <use xlink:href="#DejaVuSans-35" transform="translate(63.623047 0)"/>
      </g>
     </g>
    </g>
    <g id="xtick_17">
     <g id="line2d_29">
      <g>
       <use xlink:href="#m1d19a1700c" x="187.4139" y="303.928" style="stroke: #000000; stroke-width: 0.8"/>
      </g>
     </g>
     <g id="text_12">
      <!-- 20 -->
      <g transform="translate(181.0514 318.526437) scale(0.1 -0.1)">
       <use xlink:href="#DejaVuSans-32"/>
       <use xlink:href="#DejaVuSans-30" transform="translate(63.623047 0)"/>
      </g>
     </g>
    </g>
    <g id="xtick_18">
     <g id="line2d_30">
      <g>
       <use xlink:href="#m1d19a1700c" x="219.335769" y="303.928" style="stroke: #000000; stroke-width: 0.8"/>
      </g>
     </g>
     <g id="text_13">
      <!-- 25 -->
      <g transform="translate(212.973269 318.526437) scale(0.1 -0.1)">
       <use xlink:href="#DejaVuSans-32"/>
       <use xlink:href="#DejaVuSans-35" transform="translate(63.623047 0)"/>
      </g>
     </g>
    </g>
    <g id="text_14">
     <!-- Time (s) -->
     <g transform="translate(126.757031 332.204562) scale(0.1 -0.1)">
      <defs>
       <path id="DejaVuSans-54" d="M -19 4666 
L 3928 4666 
L 3928 4134 
L 2272 4134 
L 2272 0 
L 1638 0 
L 1638 4134 
L -19 4134 
L -19 4666 
z
" transform="scale(0.015625)"/>
      </defs>
      <use xlink:href="#DejaVuSans-54"/>
      <use xlink:href="#DejaVuSans-69" transform="translate(57.958984 0)"/>
      <use xlink:href="#DejaVuSans-6d" transform="translate(85.742188 0)"/>
      <use xlink:href="#DejaVuSans-65" transform="translate(183.154297 0)"/>
      <use xlink:href="#DejaVuSans-20" transform="translate(244.677734 0)"/>
      <use xlink:href="#DejaVuSans-28" transform="translate(276.464844 0)"/>
      <use xlink:href="#DejaVuSans-73" transform="translate(315.478516 0)"/>
      <use xlink:href="#DejaVuSans-29" transform="translate(367.578125 0)"/>
     </g>
    </g>
   </g>
   <g id="matplotlib.axis_6">
    <g id="ytick_9">
     <g id="line2d_31">
      <g>
       <use xlink:href="#m39d53b3963" x="52.160938" y="282.428261" style="stroke: #000000; stroke-width: 0.8"/>
      </g>
     </g>
     <g id="text_15">
      <!-- −0.2 -->
      <g transform="translate(20.878125 286.227479) scale(0.1 -0.1)">
       <use xlink:href="#DejaVuSans-2212"/>
       <use xlink:href="#DejaVuSans-30" transform="translate(83.789062 0)"/>
       <use xlink:href="#DejaVuSans-2e" transform="translate(147.412109 0)"/>
       <use xlink:href="#DejaVuSans-32" transform="translate(179.199219 0)"/>
      </g>
     </g>
    </g>
    <g id="ytick_10">
     <g id="line2d_32">
      <g>
       <use xlink:href="#m39d53b3963" x="52.160938" y="250.845288" style="stroke: #000000; stroke-width: 0.8"/>
      </g>
     </g>
     <g id="text_16">
      <!-- 0.0 -->
      <g transform="translate(29.257812 254.644506) scale(0.1 -0.1)">
       <use xlink:href="#DejaVuSans-30"/>
       <use xlink:href="#DejaVuSans-2e" transform="translate(63.623047 0)"/>
       <use xlink:href="#DejaVuSans-30" transform="translate(95.410156 0)"/>
      </g>
     </g>
    </g>
    <g id="ytick_11">
     <g id="line2d_33">
      <g>
       <use xlink:href="#m39d53b3963" x="52.160938" y="219.262314" style="stroke: #000000; stroke-width: 0.8"/>
      </g>
     </g>
     <g id="text_17">
      <!-- 0.2 -->
      <g transform="translate(29.257812 223.061533) scale(0.1 -0.1)">
       <use xlink:href="#DejaVuSans-30"/>
       <use xlink:href="#DejaVuSans-2e" transform="translate(63.623047 0)"/>
       <use xlink:href="#DejaVuSans-32" transform="translate(95.410156 0)"/>
      </g>
     </g>
    </g>
    <g id="ytick_12">
     <g id="line2d_34">
      <g>
       <use xlink:href="#m39d53b3963" x="52.160938" y="187.679341" style="stroke: #000000; stroke-width: 0.8"/>
      </g>
     </g>
     <g id="text_18">
      <!-- 0.4 -->
      <g transform="translate(29.257812 191.47856) scale(0.1 -0.1)">
       <use xlink:href="#DejaVuSans-30"/>
       <use xlink:href="#DejaVuSans-2e" transform="translate(63.623047 0)"/>
       <use xlink:href="#DejaVuSans-34" transform="translate(95.410156 0)"/>
      </g>
     </g>
    </g>
    <g id="text_19">
     <!-- Amplitude -->
     <g transform="translate(14.798437 270.281597) rotate(-90) scale(0.1 -0.1)">
      <use xlink:href="#DejaVuSans-41"/>
      <use xlink:href="#DejaVuSans-6d" transform="translate(68.408203 0)"/>
      <use xlink:href="#DejaVuSans-70" transform="translate(165.820312 0)"/>
      <use xlink:href="#DejaVuSans-6c" transform="translate(229.296875 0)"/>
      <use xlink:href="#DejaVuSans-69" transform="translate(257.080078 0)"/>
      <use xlink:href="#DejaVuSans-74" transform="translate(284.863281 0)"/>
      <use xlink:href="#DejaVuSans-75" transform="translate(324.072266 0)"/>
      <use xlink:href="#DejaVuSans-64" transform="translate(387.451172 0)"/>
      <use xlink:href="#DejaVuSans-65" transform="translate(450.927734 0)"/>
     </g>
    </g>
   </g>
   <g id="patch_13">
    <path d="M 52.160938 303.928 
L 52.160938 185.389882 
" style="fill: none; stroke: #000000; stroke-width: 0.8; stroke-linejoin: miter; stroke-linecap: square"/>
   </g>
   <g id="patch_14">
    <path d="M 242.010937 303.928 
L 242.010937 185.389882 
" style="fill: none; stroke: #000000; stroke-width: 0.8; stroke-linejoin: miter; stroke-linecap: square"/>
   </g>
   <g id="patch_15">
    <path d="M 52.160938 303.928 
L 242.010937 303.928 
" style="fill: none; stroke: #000000; stroke-width: 0.8; stroke-linejoin: miter; stroke-linecap: square"/>
   </g>
   <g id="patch_16">
    <path d="M 52.160938 185.389882 
L 242.010937 185.389882 
" style="fill: none; stroke: #000000; stroke-width: 0.8; stroke-linejoin: miter; stroke-linecap: square"/>
   </g>
  </g>
  <g id="axes_4">
   <g id="patch_17">
    <path d="M 256.310937 303.928 
L 446.160937 303.928 
L 446.160937 185.389882 
L 256.310937 185.389882 
z
" style="fill: #ffffff"/>
   </g>
   <g id="matplotlib.axis_7">
    <g id="xtick_19">
     <g id="line2d_35">
      <g>
       <use xlink:href="#m1d19a1700c" x="263.87642" y="303.928" style="stroke: #000000; stroke-width: 0.8"/>
      </g>
     </g>
     <g id="text_20">
      <!-- 0 -->
      <g transform="translate(260.69517 318.526437) scale(0.1 -0.1)">
       <use xlink:href="#DejaVuSans-30"/>
      </g>
     </g>
    </g>
    <g id="xtick_20">
     <g id="line2d_36">
      <g>
       <use xlink:href="#m1d19a1700c" x="295.79829" y="303.928" style="stroke: #000000; stroke-width: 0.8"/>
      </g>
     </g>
     <g id="text_21">
      <!-- 5 -->
      <g transform="translate(292.61704 318.526437) scale(0.1 -0.1)">
       <use xlink:href="#DejaVuSans-35"/>
      </g>
     </g>
    </g>
    <g id="xtick_21">
     <g id="line2d_37">
      <g>
       <use xlink:href="#m1d19a1700c" x="327.72016" y="303.928" style="stroke: #000000; stroke-width: 0.8"/>
      </g>
     </g>
     <g id="text_22">
      <!-- 10 -->
      <g transform="translate(321.35766 318.526437) scale(0.1 -0.1)">
       <use xlink:href="#DejaVuSans-31"/>
       <use xlink:href="#DejaVuSans-30" transform="translate(63.623047 0)"/>
      </g>
     </g>
    </g>
    <g id="xtick_22">
     <g id="line2d_38">
      <g>
       <use xlink:href="#m1d19a1700c" x="359.64203" y="303.928" style="stroke: #000000; stroke-width: 0.8"/>
      </g>
     </g>
     <g id="text_23">
      <!-- 15 -->
      <g transform="translate(353.27953 318.526437) scale(0.1 -0.1)">
       <use xlink:href="#DejaVuSans-31"/>
       <use xlink:href="#DejaVuSans-35" transform="translate(63.623047 0)"/>
      </g>
     </g>
    </g>
    <g id="xtick_23">
     <g id="line2d_39">
      <g>
       <use xlink:href="#m1d19a1700c" x="391.5639" y="303.928" style="stroke: #000000; stroke-width: 0.8"/>
      </g>
     </g>
     <g id="text_24">
      <!-- 20 -->
      <g transform="translate(385.2014 318.526437) scale(0.1 -0.1)">
       <use xlink:href="#DejaVuSans-32"/>
       <use xlink:href="#DejaVuSans-30" transform="translate(63.623047 0)"/>
      </g>
     </g>
    </g>
    <g id="xtick_24">
     <g id="line2d_40">
      <g>
       <use xlink:href="#m1d19a1700c" x="423.485769" y="303.928" style="stroke: #000000; stroke-width: 0.8"/>
      </g>
     </g>
     <g id="text_25">
      <!-- 25 -->
      <g transform="translate(417.123269 318.526437) scale(0.1 -0.1)">
       <use xlink:href="#DejaVuSans-32"/>
       <use xlink:href="#DejaVuSans-35" transform="translate(63.623047 0)"/>
      </g>
     </g>
    </g>
    <g id="text_26">
     <!-- Time (s) -->
     <g transform="translate(330.907031 332.204562) scale(0.1 -0.1)">
      <use xlink:href="#DejaVuSans-54"/>
      <use xlink:href="#DejaVuSans-69" transform="translate(57.958984 0)"/>
      <use xlink:href="#DejaVuSans-6d" transform="translate(85.742188 0)"/>
      <use xlink:href="#DejaVuSans-65" transform="translate(183.154297 0)"/>
      <use xlink:href="#DejaVuSans-20" transform="translate(244.677734 0)"/>
      <use xlink:href="#DejaVuSans-28" transform="translate(276.464844 0)"/>
      <use xlink:href="#DejaVuSans-73" transform="translate(315.478516 0)"/>
      <use xlink:href="#DejaVuSans-29" transform="translate(367.578125 0)"/>
     </g>
    </g>
   </g>
   <g id="matplotlib.axis_8">
    <g id="ytick_13">
     <g id="line2d_41">
      <g>
       <use xlink:href="#m39d53b3963" x="256.310937" y="282.428261" style="stroke: #000000; stroke-width: 0.8"/>
      </g>
     </g>
    </g>
    <g id="ytick_14">
     <g id="line2d_42">
      <g>
       <use xlink:href="#m39d53b3963" x="256.310937" y="250.845288" style="stroke: #000000; stroke-width: 0.8"/>
      </g>
     </g>
    </g>
    <g id="ytick_15">
     <g id="line2d_43">
      <g>
       <use xlink:href="#m39d53b3963" x="256.310937" y="219.262314" style="stroke: #000000; stroke-width: 0.8"/>
      </g>
     </g>
    </g>
    <g id="ytick_16">
     <g id="line2d_44">
      <g>
       <use xlink:href="#m39d53b3963" x="256.310937" y="187.679341" style="stroke: #000000; stroke-width: 0.8"/>
      </g>
     </g>
    </g>
   </g>
   <g id="patch_18">
    <path d="M 256.310937 303.928 
L 256.310937 185.389882 
" style="fill: none; stroke: #000000; stroke-width: 0.8; stroke-linejoin: miter; stroke-linecap: square"/>
   </g>
   <g id="patch_19">
    <path d="M 446.160937 303.928 
L 446.160937 185.389882 
" style="fill: none; stroke: #000000; stroke-width: 0.8; stroke-linejoin: miter; stroke-linecap: square"/>
   </g>
   <g id="patch_20">
    <path d="M 256.310937 303.928 
L 446.160937 303.928 
" style="fill: none; stroke: #000000; stroke-width: 0.8; stroke-linejoin: miter; stroke-linecap: square"/>
   </g>
   <g id="patch_21">
    <path d="M 256.310937 185.389882 
L 446.160937 185.389882 
" style="fill: none; stroke: #000000; stroke-width: 0.8; stroke-linejoin: miter; stroke-linecap: square"/>
   </g>
  </g>
  <g id="text_27">
   <!-- Detected Peaks - first setup -->
   <g transform="translate(143.386875 16.318125) scale(0.12 -0.12)">
    <defs>
     <path id="DejaVuSans-44" d="M 1259 4147 
L 1259 519 
L 2022 519 
Q 2988 519 3436 956 
Q 3884 1394 3884 2338 
Q 3884 3275 3436 3711 
Q 2988 4147 2022 4147 
L 1259 4147 
z
M 628 4666 
L 1925 4666 
Q 3281 4666 3915 4102 
Q 4550 3538 4550 2338 
Q 4550 1131 3912 565 
Q 3275 0 1925 0 
L 628 0 
L 628 4666 
z
" transform="scale(0.015625)"/>
     <path id="DejaVuSans-50" d="M 1259 4147 
L 1259 2394 
L 2053 2394 
Q 2494 2394 2734 2622 
Q 2975 2850 2975 3272 
Q 2975 3691 2734 3919 
Q 2494 4147 2053 4147 
L 1259 4147 
z
M 628 4666 
L 2053 4666 
Q 2838 4666 3239 4311 
Q 3641 3956 3641 3272 
Q 3641 2581 3239 2228 
Q 2838 1875 2053 1875 
L 1259 1875 
L 1259 0 
L 628 0 
L 628 4666 
z
" transform="scale(0.015625)"/>
     <path id="DejaVuSans-2d" d="M 313 2009 
L 1997 2009 
L 1997 1497 
L 313 1497 
L 313 2009 
z
" transform="scale(0.015625)"/>
     <path id="DejaVuSans-66" d="M 2375 4863 
L 2375 4384 
L 1825 4384 
Q 1516 4384 1395 4259 
Q 1275 4134 1275 3809 
L 1275 3500 
L 2222 3500 
L 2222 3053 
L 1275 3053 
L 1275 0 
L 697 0 
L 697 3053 
L 147 3053 
L 147 3500 
L 697 3500 
L 697 3744 
Q 697 4328 969 4595 
Q 1241 4863 1831 4863 
L 2375 4863 
z
" transform="scale(0.015625)"/>
     <path id="DejaVuSans-72" d="M 2631 2963 
Q 2534 3019 2420 3045 
Q 2306 3072 2169 3072 
Q 1681 3072 1420 2755 
Q 1159 2438 1159 1844 
L 1159 0 
L 581 0 
L 581 3500 
L 1159 3500 
L 1159 2956 
Q 1341 3275 1631 3429 
Q 1922 3584 2338 3584 
Q 2397 3584 2469 3576 
Q 2541 3569 2628 3553 
L 2631 2963 
z
" transform="scale(0.015625)"/>
    </defs>
    <use xlink:href="#DejaVuSans-44"/>
    <use xlink:href="#DejaVuSans-65" transform="translate(77.001953 0)"/>
    <use xlink:href="#DejaVuSans-74" transform="translate(138.525391 0)"/>
    <use xlink:href="#DejaVuSans-65" transform="translate(177.734375 0)"/>
    <use xlink:href="#DejaVuSans-63" transform="translate(239.257812 0)"/>
    <use xlink:href="#DejaVuSans-74" transform="translate(294.238281 0)"/>
    <use xlink:href="#DejaVuSans-65" transform="translate(333.447266 0)"/>
    <use xlink:href="#DejaVuSans-64" transform="translate(394.970703 0)"/>
    <use xlink:href="#DejaVuSans-20" transform="translate(458.447266 0)"/>
    <use xlink:href="#DejaVuSans-50" transform="translate(490.234375 0)"/>
    <use xlink:href="#DejaVuSans-65" transform="translate(546.912109 0)"/>
    <use xlink:href="#DejaVuSans-61" transform="translate(608.435547 0)"/>
    <use xlink:href="#DejaVuSans-6b" transform="translate(669.714844 0)"/>
    <use xlink:href="#DejaVuSans-73" transform="translate(727.625 0)"/>
    <use xlink:href="#DejaVuSans-20" transform="translate(779.724609 0)"/>
    <use xlink:href="#DejaVuSans-2d" transform="translate(811.511719 0)"/>
    <use xlink:href="#DejaVuSans-20" transform="translate(847.595703 0)"/>
    <use xlink:href="#DejaVuSans-66" transform="translate(879.382812 0)"/>
    <use xlink:href="#DejaVuSans-69" transform="translate(914.587891 0)"/>
    <use xlink:href="#DejaVuSans-72" transform="translate(942.371094 0)"/>
    <use xlink:href="#DejaVuSans-73" transform="translate(983.484375 0)"/>
    <use xlink:href="#DejaVuSans-74" transform="translate(1035.583984 0)"/>
    <use xlink:href="#DejaVuSans-20" transform="translate(1074.792969 0)"/>
    <use xlink:href="#DejaVuSans-73" transform="translate(1106.580078 0)"/>
    <use xlink:href="#DejaVuSans-65" transform="translate(1158.679688 0)"/>
    <use xlink:href="#DejaVuSans-74" transform="translate(1220.203125 0)"/>
    <use xlink:href="#DejaVuSans-75" transform="translate(1259.412109 0)"/>
    <use xlink:href="#DejaVuSans-70" transform="translate(1322.791016 0)"/>
   </g>
  </g>
 </g>
 <defs>
  <clipPath id="p75e25c75a9">
   <rect x="52.160938" y="50.928" width="189.85" height="118.538118"/>
  </clipPath>
  <clipPath id="pf2beb7f492">
   <rect x="256.310937" y="50.928" width="189.85" height="118.538118"/>
  </clipPath>
 </defs>
</svg>
